SplineFontDB: 3.0
FontName: BenchNine-Bold
FullName: BenchNine Bold
FamilyName: BenchNine
Weight: Bold
Copyright: Copyright (c) 2012, vernon adams (vern@newtypography.co.uk), with Reserved Font Name 'BenchNine'
Version: 1
ItalicAngle: 0
UnderlinePosition: 0
UnderlineWidth: 0
Ascent: 1638
Descent: 410
sfntRevision: 0x00010000
LayerCount: 2
Layer: 0 1 "Back"  1
Layer: 1 1 "Fore"  0
XUID: [1021 332 1330122705 8706027]
FSType: 0
OS2Version: 1
OS2_WeightWidthSlopeOnly: 0
OS2_UseTypoMetrics: 1
CreationTime: 1348080930
ModificationTime: 1348522037
PfmFamily: 81
TTFWeight: 700
TTFWidth: 5
LineGap: 0
VLineGap: 0
Panose: 0 0 0 0 0 0 0 0 0 0
OS2TypoAscent: 2020
OS2TypoAOffset: 0
OS2TypoDescent: -720
OS2TypoDOffset: 0
OS2TypoLinegap: 0
OS2WinAscent: 2020
OS2WinAOffset: 0
OS2WinDescent: 720
OS2WinDOffset: 0
HheadAscent: 2020
HheadAOffset: 0
HheadDescent: -720
HheadDOffset: 0
OS2SubXSize: 3863
OS2SubYSize: 3575
OS2SubXOff: 0
OS2SubYOff: 607
OS2SupXSize: 3863
OS2SupYSize: 3575
OS2SupXOff: 0
OS2SupYOff: 2351
OS2StrikeYSize: 209
OS2StrikeYPos: 1567
OS2Vendor: 'newt'
OS2CodePages: 00000093.00000000
OS2UnicodeRanges: a00000ef.4000204a.00000000.00000000
Lookup: 258 0 0 "'kern' Horizontal Kerning in Latin lookup 0"  {"'kern' Horizontal Kerning in Latin lookup 0 per glyph data 0"  "'kern' Horizontal Kerning in Latin lookup 0 kerning class 1"  } ['kern' ('DFLT' <'dflt' > 'latn' <'dflt' > ) ]
MarkAttachClasses: 1
DEI: 91125
KernClass2: 30 29 "'kern' Horizontal Kerning in Latin lookup 0 kerning class 1" 
 89 A Agrave Aacute Acircumflex Atilde Adieresis Aring Amacron Abreve Aogonek uni0200 uni0202
 47 C Ccedilla Cacute Ccircumflex Cdotaccent Ccaron
 16 D Dcaron uni1E0A
 9 F uni1E1E
 52 G Gcircumflex Gbreve Gdotaccent Gcommaaccent uni01F4
 14 K Kcommaaccent
 28 L Lacute Lcommaaccent Lcaron
 89 O Ograve Oacute Ocircumflex Otilde Odieresis Omacron Obreve Ohungarumlaut uni020C uni020E
 9 P uni1E56
 44 R Racute Rcommaaccent Rcaron uni0210 uni0212
 24 T Tcaron uni021A uni1E6A
 1 V

StartChar: .notdef
Encoding: 65536 -1 0
Width: 349
Flags: W
LayerCount: 2
Fore
SplineSet
70 -197 m 1,0,-1
 280 -197 l 1,1,-1
 280 1373 l 1,2,-1
 70 1373 l 1,3,-1
 70 -197 l 1,0,-1
35 -299 m 1,4,-1
 35 1475 l 1,5,-1
 314 1475 l 1,6,-1
 314 -299 l 1,7,-1
 35 -299 l 1,4,-1
EndSplineSet
EndChar

StartChar: exclam
Encoding: 33 33 4
Width: 402
GlyphClass: 2
Flags: W
LayerCount: 2
Fore
SplineSet
132 0 m 2,0,1
 105 0 105 0 105 51 c 2,2,-1
 105 203 l 2,3,4
 105 253 105 253 132 253 c 2,5,-1
 269 253 l 2,6,7
 282 253 282 253 288.5 243 c 128,-1,8
 295 233 295 233 295 203 c 2,9,-1
 295 51 l 2,10,11
 295 0 295 0 269 0 c 2,12,-1
 132 0 l 2,0,1
183 468 m 2,13,14
 163 468 163 468 160 541 c 2,15,-1
 116 1428 l 1,16,-1
 116 1437 l 2,17,18
 116 1465 116 1465 123.5 1483.5 c 128,-1,19
 131 1502 131 1502 142 1502 c 2,20,-1
 260 1502 l 2,21,22
 271 1502 271 1502 278.5 1485 c 128,-1,23
 286 1468 286 1468 286 1441 c 2,24,-1
 286 1429 l 1,25,-1
 243 541 l 2,26,27
 240 468 240 468 221 468 c 2,28,-1
 183 468 l 2,13,14
EndSplineSet
EndChar

StartChar: quotedbl
Encoding: 34 34 5
Width: 533
GlyphClass: 2
Flags: W
LayerCount: 2
Fore
SplineSet
130 765 m 2,0,1
 110 765 110 765 107 835 c 1,2,-1
 69 1364 l 1,3,4
 69 1375 l 0,5,6
 69 1401 69 1401 76.5 1419.5 c 128,-1,7
 84 1438 84 1438 94 1438 c 2,8,-1
 192 1438 l 2,9,10
 202 1438 202 1438 209 1419 c 128,-1,11
 216 1400 216 1400 216 1373 c 2,12,-1
 216 1364 l 1,13,-1
 179 835 l 2,14,15
 174 765 174 765 156 765 c 2,16,-1
 130 765 l 2,0,1
383 765 m 2,17,18
 364 765 364 765 360 835 c 1,19,-1
 321 1364 l 1,20,-1
 321 1373 l 2,21,22
 321 1400 321 1400 328.5 1419 c 128,-1,23
 336 1438 336 1438 346 1438 c 2,24,-1
 445 1438 l 2,25,26
 455 1438 455 1438 461.5 1420 c 128,-1,27
 468 1402 468 1402 468 1376 c 2,28,-1
 468 1364 l 1,29,-1
 431 835 l 1,30,31
 428 765 428 765 409 765 c 2,32,-1
 383 765 l 2,17,18
EndSplineSet
EndChar

StartChar: numbersign
Encoding: 35 35 6
Width: 731
GlyphClass: 2
Flags: W
LayerCount: 2
Fore
SplineSet
140 -159 m 2,0,1
 136 -159 136 -159 133 -148 c 128,-1,2
 130 -137 130 -137 132 -124 c 2,3,-1
 170 347 l 1,4,-1
 113 347 l 2,5,6
 89 347 89 347 89 397 c 2,7,-1
 89 430 l 2,8,9
 89 480 89 480 111 480 c 2,10,-1
 184 480 l 1,11,-1
 213 844 l 1,12,-1
 147 844 l 2,13,14
 123 844 123 844 123 894 c 2,15,-1
 123 930 l 2,16,17
 123 980 123 980 146 980 c 2,18,-1
 228 980 l 1,19,-1
 273 1492 l 2,20,21
 274 1507 274 1507 279 1517 c 128,-1,22
 284 1527 284 1527 289 1527 c 2,23,-1
 366 1527 l 2,24,25
 377 1527 377 1527 375 1492 c 1,26,-1
 330 980 l 1,27,-1
 466 980 l 1,28,-1
 512 1492 l 1,29,30
 514 1527 514 1527 528 1527 c 2,31,-1
 602 1527 l 2,32,33
 606 1527 606 1527 609 1516 c 128,-1,34
 612 1505 612 1505 610 1492 c 2,35,-1
 565 980 l 1,36,-1
 626 980 l 2,37,38
 648 980 648 980 648 930 c 2,39,-1
 648 894 l 2,40,41
 648 844 648 844 627 844 c 2,42,-1
 551 844 l 1,43,-1
 522 480 l 1,44,-1
 589 480 l 2,45,46
 614 480 614 480 614 430 c 2,47,-1
 614 397 l 2,48,49
 614 347 614 347 591 347 c 2,50,-1
 507 347 l 1,51,-1
 469 -124 l 2,52,53
 466 -159 466 -159 453 -159 c 2,54,-1
 378 -159 l 2,55,56
 368 -159 368 -159 370 -124 c 2,57,-1
 408 347 l 1,58,-1
 272 347 l 1,59,-1
 234 -124 l 2,60,61
 231 -159 231 -159 218 -159 c 2,62,-1
 140 -159 l 2,0,1
287 480 m 1,63,-1
 423 480 l 1,64,-1
 451 844 l 1,65,-1
 315 844 l 1,66,-1
 287 480 l 1,63,-1
EndSplineSet
EndChar

StartChar: dollar
Encoding: 36 36 7
Width: 776
GlyphClass: 2
Flags: W
LayerCount: 2
Fore
SplineSet
388 1283 m 1,0,1
 329 1273 329 1273 293 1217 c 128,-1,2
 257 1161 257 1161 257 1084 c 0,3,4
 257 1008 257 1008 291 958 c 128,-1,5
 325 908 325 908 388 867 c 1,6,-1
 388 1283 l 1,0,1
439 168 m 1,7,8
 491 189 491 189 519 243.5 c 128,-1,9
 547 298 547 298 547 371 c 128,-1,10
 547 444 547 444 520 493 c 128,-1,11
 493 542 493 542 439 583 c 1,12,-1
 439 168 l 1,7,8
403 -198 m 2,13,14
 388 -198 388 -198 388 -132 c 2,15,-1
 388 -15 l 1,16,-1
 381 -15 l 2,17,18
 169 -15 169 -15 47 168 c 0,19,20
 41 177 41 177 41 191 c 0,21,22
 41 226 41 226 69.5 267.5 c 128,-1,23
 98 309 98 309 124 309 c 0,24,25
 134 309 134 309 142 300 c 0,26,27
 254 157 254 157 381 157 c 2,28,-1
 388 157 l 1,29,-1
 388 618 l 1,30,-1
 277 693 l 2,31,32
 235 721 235 721 204 751 c 128,-1,33
 173 781 173 781 144.5 823.5 c 128,-1,34
 116 866 116 866 100.5 923.5 c 128,-1,35
 85 981 85 981 85 1050 c 0,36,37
 85 1223 85 1223 167.5 1336 c 128,-1,38
 250 1449 250 1449 388 1454 c 1,39,-1
 388 1578 l 2,40,41
 388 1643 388 1643 403 1643 c 2,42,-1
 425 1643 l 2,43,44
 439 1643 439 1643 439 1578 c 2,45,-1
 439 1453 l 1,46,47
 604 1443 604 1443 700 1317 c 0,48,49
 710 1304 710 1304 710 1286 c 0,50,51
 710 1251 710 1251 680.5 1212 c 128,-1,52
 651 1173 651 1173 631 1173 c 0,53,54
 625 1173 625 1173 622 1177 c 0,55,56
 544 1271 544 1271 439 1283 c 1,57,-1
 439 834 l 1,58,-1
 523 780 l 2,59,60
 724 650 724 650 724 400 c 0,61,62
 724 236 724 236 647.5 123.5 c 128,-1,63
 571 11 571 11 439 -10 c 1,64,-1
 439 -132 l 2,65,66
 439 -198 439 -198 425 -198 c 2,67,-1
 403 -198 l 2,13,14
EndSplineSet
EndChar

StartChar: percent
Encoding: 37 37 8
Width: 1073
GlyphClass: 2
Flags: W
LayerCount: 2
Fore
SplineSet
387 -73 m 2,0,1
 380 -73 380 -73 374.5 -58 c 128,-1,2
 369 -43 369 -43 369 -23 c 0,3,4
 369 -16 369 -16 371 -3 c 2,5,-1
 595 1415 l 2,6,7
 606 1485 606 1485 632 1485 c 2,8,-1
 673 1485 l 2,9,10
 680 1485 680 1485 684.5 1471 c 128,-1,11
 689 1457 689 1457 689 1438 c 0,12,13
 689 1428 689 1428 687 1415 c 2,14,-1
 464 -3 l 2,15,16
 453 -73 453 -73 428 -73 c 2,17,-1
 387 -73 l 2,0,1
226 785 m 0,18,19
 269 785 269 785 288.5 848.5 c 128,-1,20
 308 912 308 912 308 1051 c 0,21,22
 308 1193 308 1193 288.5 1258 c 128,-1,23
 269 1323 269 1323 226 1323 c 0,24,25
 182 1323 182 1323 162.5 1258 c 128,-1,26
 143 1193 143 1193 143 1051 c 0,27,28
 143 912 143 912 162.5 848.5 c 128,-1,29
 182 785 182 785 226 785 c 0,18,19
226 670 m 0,30,31
 137 670 137 670 91.5 761.5 c 128,-1,32
 46 853 46 853 46 1055 c 0,33,34
 46 1256 46 1256 91 1347 c 128,-1,35
 136 1438 136 1438 226 1438 c 0,36,37
 315 1438 315 1438 359.5 1347 c 128,-1,38
 404 1256 404 1256 404 1055 c 0,39,40
 404 853 404 853 359 761.5 c 128,-1,41
 314 670 314 670 226 670 c 0,30,31
849 115 m 128,-1,43
 892 115 892 115 911.5 178.5 c 128,-1,44
 931 242 931 242 931 381 c 0,45,46
 931 523 931 523 911.5 588 c 128,-1,47
 892 653 892 653 849 653 c 0,48,49
 805 653 805 653 785.5 588 c 128,-1,50
 766 523 766 523 766 381 c 0,51,52
 766 243 766 243 786 179 c 128,-1,42
 806 115 806 115 849 115 c 128,-1,43
849 0 m 0,53,54
 760 0 760 0 714.5 91.5 c 128,-1,55
 669 183 669 183 669 385 c 0,56,57
 669 586 669 586 714 677 c 128,-1,58
 759 768 759 768 849 768 c 0,59,60
 938 768 938 768 983 677 c 128,-1,61
 1028 586 1028 586 1028 385 c 0,62,63
 1028 183 1028 183 982.5 91.5 c 128,-1,64
 937 0 937 0 849 0 c 0,53,54
EndSplineSet
EndChar

StartChar: ampersand
Encoding: 38 38 9
Width: 1181
GlyphClass: 2
Flags: W
LayerCount: 2
Fore
SplineSet
478 -18 m 0,0,1
 398 -18 398 -18 334 4.5 c 128,-1,2
 270 27 270 27 219 75 c 128,-1,3
 168 123 168 123 140 206.5 c 128,-1,4
 112 290 112 290 112 405 c 0,5,6
 112 536 112 536 169.5 629.5 c 128,-1,7
 227 723 227 723 299 745 c 1,8,9
 227 764 227 764 168.5 844.5 c 128,-1,10
 110 925 110 925 110 1058 c 0,11,12
 110 1259 110 1259 198 1359 c 128,-1,13
 286 1459 286 1459 437 1459 c 0,14,15
 535 1459 535 1459 586 1430 c 0,16,17
 611 1416 611 1416 611 1389 c 0,18,19
 611 1380 611 1380 610 1375 c 2,20,-1
 604 1296 l 1,21,22
 603 1251 603 1251 577 1264 c 0,23,24
 575 1264 575 1264 567 1268 c 128,-1,25
 559 1272 559 1272 550 1275.5 c 128,-1,26
 541 1279 541 1279 521 1282 c 128,-1,27
 501 1285 501 1285 475 1285 c 0,28,29
 409 1285 409 1285 359 1235 c 128,-1,30
 309 1185 309 1185 308 1072 c 0,31,32
 308 975 308 975 348.5 905 c 128,-1,33
 389 835 389 835 463 835 c 2,34,-1
 708 835 l 2,35,36
 723 835 723 835 723 865 c 2,37,-1
 730 1354 l 2,38,39
 731 1408 731 1408 761 1408 c 2,40,-1
 891 1408 l 2,41,42
 920 1408 920 1408 920 1354 c 2,43,-1
 920 865 l 2,44,45
 920 835 920 835 934 835 c 2,46,-1
 1083 835 l 2,47,48
 1114 835 1114 835 1114 776 c 2,49,-1
 1114 731 l 2,50,51
 1114 669 1114 669 1083 669 c 2,52,-1
 934 669 l 2,53,54
 920 669 920 669 920 640 c 2,55,-1
 920 365 l 2,56,57
 920 157 920 157 1024 157 c 0,58,59
 1066 157 1066 157 1114 189 c 0,60,61
 1126 196 1126 196 1134.5 185 c 128,-1,62
 1143 174 1143 174 1145 150 c 1,63,-1
 1146 91 l 1,64,-1
 1146 81 l 2,65,66
 1146 35 1146 35 1123 20 c 1,67,68
 1059 -18 1059 -18 993 -18 c 0,69,70
 925 -18 925 -18 858 18.5 c 128,-1,71
 791 55 791 55 764 125 c 1,72,73
 763 124 763 124 748 106.5 c 128,-1,74
 733 89 733 89 727.5 83.5 c 128,-1,75
 722 78 722 78 704 61 c 128,-1,76
 686 44 686 44 673 36.5 c 128,-1,77
 660 29 660 29 637 16 c 128,-1,78
 614 3 614 3 592.5 -2.5 c 128,-1,79
 571 -8 571 -8 540.5 -13 c 128,-1,80
 510 -18 510 -18 478 -18 c 0,0,1
507 144 m 0,81,82
 539 144 539 144 566.5 149.5 c 128,-1,83
 594 155 594 155 613.5 162.5 c 128,-1,84
 633 170 633 170 650.5 182.5 c 128,-1,85
 668 195 668 195 678.5 205 c 128,-1,86
 689 215 689 215 699 229.5 c 128,-1,87
 709 244 709 244 713 252 c 128,-1,88
 717 260 717 260 722 271 c 128,-1,89
 727 282 727 282 727 283 c 2,90,-1
 723 641 l 2,91,92
 723 669 723 669 708 669 c 2,93,-1
 473 669 l 1,94,95
 404 668 404 668 357 593 c 128,-1,96
 310 518 310 518 310 407 c 0,97,98
 310 348 310 348 323 301 c 128,-1,99
 336 254 336 254 356 225 c 128,-1,100
 376 196 376 196 403 177.5 c 128,-1,101
 430 159 430 159 455.5 151.5 c 128,-1,102
 481 144 481 144 507 144 c 0,81,82
EndSplineSet
EndChar

StartChar: quotesingle
Encoding: 39 39 10
Width: 363
GlyphClass: 2
Flags: W
LayerCount: 2
Fore
SplineSet
169 765 m 2,0,1
 150 765 150 765 146 835 c 1,2,-1
 108 1364 l 1,3,4
 108 1375 l 0,5,6
 108 1401 108 1401 115.5 1419.5 c 128,-1,7
 123 1438 123 1438 133 1438 c 2,8,-1
 231 1438 l 2,9,10
 241 1438 241 1438 248 1419 c 128,-1,11
 255 1400 255 1400 255 1373 c 2,12,-1
 255 1364 l 1,13,-1
 218 835 l 2,14,15
 213 765 213 765 195 765 c 2,16,-1
 169 765 l 2,0,1
EndSplineSet
EndChar

StartChar: parenleft
Encoding: 40 40 11
Width: 446
GlyphClass: 2
Flags: W
LayerCount: 2
Fore
SplineSet
318 -143 m 1,0,1
 247 -117 247 -117 197 10.5 c 128,-1,2
 147 138 147 138 125.5 313.5 c 128,-1,3
 104 489 104 489 104 698 c 128,-1,4
 104 907 104 907 125.5 1082.5 c 128,-1,5
 147 1258 147 1258 197 1386 c 128,-1,6
 247 1514 247 1514 318 1540 c 1,7,-1
 320 1540 l 2,8,9
 329 1540 329 1540 336.5 1518.5 c 128,-1,10
 344 1497 344 1497 344 1470 c 2,11,-1
 344 1399 l 2,12,13
 344 1351 344 1351 338.5 1331.5 c 128,-1,14
 333 1312 333 1312 315 1286 c 0,15,16
 281 1235 281 1235 260.5 1083 c 128,-1,17
 240 931 240 931 240 698 c 0,18,19
 240 221 240 221 316 112 c 0,20,21
 333 87 333 87 338.5 67 c 128,-1,22
 344 47 344 47 344 -2 c 2,23,-1
 344 -73 l 2,24,25
 344 -100 344 -100 336.5 -121.5 c 128,-1,26
 329 -143 329 -143 320 -143 c 2,27,-1
 318 -143 l 1,0,1
EndSplineSet
EndChar

StartChar: parenright
Encoding: 41 41 12
Width: 450
GlyphClass: 2
Flags: W
LayerCount: 2
Fore
SplineSet
129 -143 m 1,0,1
 127 -143 l 0,2,3
 118 -143 118 -143 110.5 -121.5 c 128,-1,4
 103 -100 103 -100 103 -73 c 2,5,-1
 103 -1 l 2,6,7
 103 47 103 47 109 67 c 128,-1,8
 115 87 115 87 132 112 c 0,9,10
 167 163 167 163 187.5 314.5 c 128,-1,11
 208 466 208 466 208 698 c 0,12,13
 208 931 208 931 187.5 1083 c 128,-1,14
 167 1235 167 1235 132 1286 c 0,15,16
 120 1305 120 1305 115 1315 c 128,-1,17
 110 1325 110 1325 106.5 1346 c 128,-1,18
 103 1367 103 1367 103 1400 c 2,19,-1
 103 1470 l 2,20,21
 103 1497 103 1497 110.5 1518.5 c 128,-1,22
 118 1540 118 1540 127 1540 c 2,23,-1
 129 1540 l 1,24,25
 201 1514 201 1514 250.5 1386 c 128,-1,26
 300 1258 300 1258 321.5 1082.5 c 128,-1,27
 343 907 343 907 343 698 c 0,28,29
 343 488 343 488 321.5 313 c 128,-1,30
 300 138 300 138 250.5 10.5 c 128,-1,31
 201 -117 201 -117 129 -143 c 1,0,1
EndSplineSet
EndChar

StartChar: asterisk
Encoding: 42 42 13
Width: 709
GlyphClass: 2
Flags: W
LayerCount: 2
Fore
SplineSet
247 422 m 0,0,1
 225 422 225 422 204.5 432.5 c 128,-1,2
 184 443 184 443 184 460 c 0,3,4
 184 478 184 478 203 515.5 c 128,-1,5
 222 553 222 553 242 583.5 c 128,-1,6
 262 614 262 614 290 654 c 128,-1,7
 318 694 318 694 321 698 c 1,8,-1
 135 753 l 2,9,10
 119 758 119 758 109 774.5 c 128,-1,11
 99 791 99 791 99 813 c 0,12,13
 99 839 99 839 110.5 858.5 c 128,-1,14
 122 878 122 878 141 878 c 0,15,16
 154 878 154 878 194 850 c 128,-1,17
 234 822 234 822 280 786 c 128,-1,18
 326 750 326 750 336 743 c 1,19,20
 333 768 333 768 325 822.5 c 128,-1,21
 317 877 317 877 313 917.5 c 128,-1,22
 309 958 309 958 309 997 c 0,23,24
 309 1021 309 1021 322 1033.5 c 128,-1,25
 335 1046 335 1046 355 1046 c 0,26,27
 400 1046 400 1046 400 1001 c 1,28,-1
 379 743 l 1,29,-1
 537 843 l 1,30,31
 547 848 547 848 555 848 c 0,32,33
 575 848 575 848 589.5 830 c 128,-1,34
 604 812 604 812 604 790 c 0,35,36
 604 753 604 753 564 743 c 2,37,-1
 388 698 l 1,38,39
 524 548 524 548 549 517 c 0,40,41
 558 506 558 506 558 494 c 0,42,43
 558 476 558 476 541.5 461.5 c 128,-1,44
 525 447 525 447 506 447 c 0,45,46
 485 447 485 447 472 467 c 2,47,-1
 353 667 l 1,48,-1
 269 431 l 2,49,50
 266 422 266 422 247 422 c 0,0,1
EndSplineSet
EndChar

StartChar: plus
Encoding: 43 43 14
Width: 801
GlyphClass: 2
Flags: W
LayerCount: 2
Fore
SplineSet
369 271 m 2,0,1
 352 271 352 271 344 279.5 c 128,-1,2
 336 288 336 288 336 316 c 2,3,-1
 336 523 l 2,4,5
 336 537 336 537 332.5 541 c 128,-1,6
 329 545 329 545 321 545 c 2,7,-1
 142 545 l 2,8,9
 127 545 127 545 119 553 c 128,-1,10
 111 561 111 561 111 587 c 2,11,-1
 111 620 l 2,12,13
 111 646 111 646 119 653.5 c 128,-1,14
 127 661 127 661 142 661 c 2,15,-1
 321 661 l 2,16,17
 329 661 329 661 332.5 665 c 128,-1,18
 336 669 336 669 336 683 c 2,19,-1
 336 881 l 2,20,21
 336 909 336 909 344 917.5 c 128,-1,22
 352 926 352 926 369 926 c 2,23,-1
 441 926 l 2,24,25
 457 926 457 926 464.5 917.5 c 128,-1,26
 472 909 472 909 472 881 c 2,27,-1
 472 683 l 2,28,29
 472 669 472 669 476 665 c 128,-1,30
 480 661 480 661 489 661 c 2,31,-1
 665 661 l 2,32,33
 680 661 680 661 688 653.5 c 128,-1,34
 696 646 696 646 696 620 c 2,35,-1
 696 587 l 2,36,37
 696 561 696 561 688 553 c 128,-1,38
 680 545 680 545 665 545 c 2,39,-1
 489 545 l 2,40,41
 480 545 480 545 476 541 c 128,-1,42
 472 537 472 537 472 523 c 2,43,-1
 472 316 l 2,44,45
 472 288 472 288 464.5 279.5 c 128,-1,46
 457 271 457 271 441 271 c 2,47,-1
 369 271 l 2,0,1
EndSplineSet
EndChar

StartChar: comma
Encoding: 44 44 15
Width: 400
GlyphClass: 2
Flags: W
LayerCount: 2
Fore
SplineSet
117 -316 m 0,0,1
 113 -318 113 -318 111 -318 c 0,2,3
 92 -318 92 -318 92 -275 c 2,4,-1
 92 -257 l 2,5,6
 92 -226 92 -226 95 -218 c 128,-1,7
 98 -210 98 -210 115 -191 c 1,8,9
 137 -164 137 -164 149.5 -116 c 128,-1,10
 162 -68 162 -68 162 -27 c 0,11,12
 162 0 162 0 156 0 c 2,13,-1
 111 0 l 2,14,15
 90 0 90 0 90 57 c 2,16,-1
 90 204 l 2,17,18
 90 264 90 264 117 264 c 2,19,-1
 233 264 l 2,20,21
 259 264 259 264 259 200 c 2,22,-1
 259 50 l 2,23,24
 259 -34 259 -34 244 -103.5 c 128,-1,25
 229 -173 229 -173 205.5 -215 c 128,-1,26
 182 -257 182 -257 160 -281.5 c 128,-1,27
 138 -306 138 -306 117 -316 c 0,0,1
EndSplineSet
EndChar

StartChar: hyphen
Encoding: 45 45 16
Width: 656
GlyphClass: 2
Flags: W
LayerCount: 2
Fore
SplineSet
115 532 m 2,0,1
 102 532 102 532 95.5 542.5 c 128,-1,2
 89 553 89 553 89 583 c 2,3,-1
 89 634 l 2,4,5
 89 664 89 664 95.5 674 c 128,-1,6
 102 684 102 684 115 684 c 2,7,-1
 542 684 l 2,8,9
 567 684 567 684 567 634 c 2,10,-1
 567 583 l 2,11,12
 567 532 567 532 542 532 c 2,13,-1
 115 532 l 2,0,1
EndSplineSet
EndChar

StartChar: period
Encoding: 46 46 17
Width: 377
GlyphClass: 2
Flags: W
LayerCount: 2
Fore
SplineSet
120 0 m 2,0,1
 94 0 94 0 94 51 c 2,2,-1
 94 203 l 2,3,4
 94 253 94 253 120 253 c 2,5,-1
 257 253 l 2,6,7
 284 253 284 253 284 203 c 2,8,-1
 284 51 l 2,9,10
 284 0 284 0 257 0 c 2,11,-1
 120 0 l 2,0,1
EndSplineSet
EndChar

StartChar: slash
Encoding: 47 47 18
Width: 564
GlyphClass: 2
Flags: W
LayerCount: 2
Fore
SplineSet
93 -205 m 2,0,1
 84 -205 84 -205 84 -179 c 0,2,3
 84 -178 84 -178 84.5 -175 c 128,-1,4
 85 -172 85 -172 85 -170 c 2,5,-1
 319 1612 l 2,6,7
 324 1647 324 1647 337 1647 c 2,8,-1
 474 1647 l 2,9,10
 484 1647 484 1647 484 1622 c 0,11,12
 484 1615 484 1615 483 1612 c 2,13,-1
 248 -171 l 2,14,15
 243 -206 243 -206 232 -206 c 2,16,-1
 93 -205 l 2,0,1
EndSplineSet
EndChar

StartChar: zero
Encoding: 48 48 19
Width: 891
GlyphClass: 2
Flags: W
LayerCount: 2
Fore
SplineSet
445 145 m 0,0,1
 530 145 530 145 564 276.5 c 128,-1,2
 598 408 598 408 598 724 c 0,3,4
 598 1034 598 1034 563.5 1164 c 128,-1,5
 529 1294 529 1294 443 1294 c 128,-1,6
 357 1294 357 1294 323.5 1164.5 c 128,-1,7
 290 1035 290 1035 290 724 c 0,8,9
 290 409 290 409 324.5 277 c 128,-1,10
 359 145 359 145 445 145 c 0,0,1
444 -18 m 0,11,12
 387 -18 387 -18 339 1.5 c 128,-1,13
 291 21 291 21 246.5 72.5 c 128,-1,14
 202 124 202 124 171 205.5 c 128,-1,15
 140 287 140 287 121.5 419 c 128,-1,16
 103 551 103 551 103 724 c 0,17,18
 103 854 103 854 112.5 959 c 128,-1,19
 122 1064 122 1064 139 1139.5 c 128,-1,20
 156 1215 156 1215 181 1271.5 c 128,-1,21
 206 1328 206 1328 234 1362.5 c 128,-1,22
 262 1397 262 1397 297.5 1418.5 c 128,-1,23
 333 1440 333 1440 367.5 1448 c 128,-1,24
 402 1456 402 1456 443 1456 c 0,25,26
 502 1456 502 1456 548.5 1440 c 128,-1,27
 595 1424 595 1424 641 1376.5 c 128,-1,28
 687 1329 687 1329 717.5 1250.5 c 128,-1,29
 748 1172 748 1172 767 1038 c 128,-1,30
 786 904 786 904 786 724 c 0,31,32
 786 -18 786 -18 444 -18 c 0,11,12
EndSplineSet
EndChar

StartChar: one
Encoding: 49 49 20
Width: 539
GlyphClass: 2
Flags: W
LayerCount: 2
Fore
SplineSet
216 0 m 2,0,1
 191 0 191 0 191 67 c 2,2,-1
 191 1172 l 2,3,4
 191 1204 191 1204 178 1202 c 1,5,6
 99 1182 99 1182 98 1182 c 0,7,8
 76 1180 76 1180 76 1226 c 2,9,-1
 76 1322 l 2,10,11
 76 1362 76 1362 100 1367 c 1,12,-1
 364 1435 l 2,13,14
 367 1436 367 1436 373 1436 c 0,15,16
 395 1436 395 1436 395 1389 c 2,17,-1
 395 67 l 2,18,19
 395 0 395 0 369 0 c 2,20,-1
 216 0 l 2,0,1
EndSplineSet
EndChar

StartChar: two
Encoding: 50 50 21
Width: 727
GlyphClass: 2
Flags: W
LayerCount: 2
Fore
SplineSet
611 1 m 2,0,-1
 111 1 l 2,1,2
 84 1 84 1 84 70 c 0,3,4
 84 73 84 73 84.5 99.5 c 128,-1,5
 85 126 85 126 85 130 c 0,6,7
 94 275 94 275 140 405 c 128,-1,8
 186 535 186 535 245 626 c 128,-1,9
 304 717 304 717 361.5 797.5 c 128,-1,10
 419 878 419 878 458.5 957 c 128,-1,11
 498 1036 498 1036 498 1107 c 0,12,13
 498 1198 498 1198 452 1244 c 128,-1,14
 406 1290 406 1290 338 1290 c 0,15,16
 300 1290 300 1290 262.5 1282 c 128,-1,17
 225 1274 225 1274 205 1266 c 128,-1,18
 185 1258 185 1258 155 1244 c 128,-1,19
 125 1230 125 1230 119 1227 c 1,20,21
 100 1209 100 1209 98 1240 c 1,22,23
 80 1317 80 1317 80 1334 c 0,24,25
 80 1370 80 1370 89 1383 c 1,26,27
 137 1415 137 1415 205 1434.5 c 128,-1,28
 273 1454 273 1454 342 1454 c 0,29,30
 392 1454 392 1454 435.5 1446.5 c 128,-1,31
 479 1439 479 1439 523 1418 c 128,-1,32
 567 1397 567 1397 598 1363 c 128,-1,33
 629 1329 629 1329 648.5 1272 c 128,-1,34
 668 1215 668 1215 668 1140 c 0,35,36
 668 1074 668 1074 650.5 1012 c 128,-1,37
 633 950 633 950 604 896.5 c 128,-1,38
 575 843 575 843 538.5 788.5 c 128,-1,39
 502 734 502 734 462 672 c 128,-1,40
 422 610 422 610 385.5 544.5 c 128,-1,41
 349 479 349 479 316.5 390.5 c 128,-1,42
 284 302 284 302 265 206 c 0,43,44
 264 203 264 203 264 194 c 0,45,46
 264 178 264 178 268 162 c 128,-1,47
 272 146 272 146 278 146 c 2,48,-1
 611 146 l 2,49,50
 629 146 629 146 629 96 c 2,51,-1
 629 48 l 2,52,53
 629 1 629 1 611 1 c 2,0,-1
EndSplineSet
EndChar

StartChar: three
Encoding: 51 51 22
Width: 662
GlyphClass: 2
Flags: W
LayerCount: 2
Fore
SplineSet
276 -15 m 0,0,1
 134 -15 134 -15 73 35 c 0,2,3
 67 40 67 40 63 61 c 128,-1,4
 59 82 59 82 59 91 c 128,-1,5
 59 100 59 100 61.5 134.5 c 128,-1,6
 64 169 64 169 66 169 c 1,7,8
 67 197 67 197 74 197 c 0,9,10
 76 197 76 197 80 194 c 0,11,12
 161 146 161 146 251 146 c 0,13,14
 437 146 437 146 437 397 c 1,15,16
 436 514 436 514 391.5 580.5 c 128,-1,17
 347 647 347 647 262 648 c 1,18,-1
 226 648 l 2,19,20
 209 648 209 648 203.5 655.5 c 128,-1,21
 198 663 198 663 198 684 c 2,22,-1
 198 791 l 2,23,24
 198 815 198 815 226 815 c 2,25,-1
 261 815 l 1,26,27
 427 819 427 819 427 1053 c 0,28,29
 427 1182 427 1182 387 1237 c 128,-1,30
 347 1292 347 1292 267 1292 c 0,31,32
 157 1292 157 1292 78 1245 c 1,33,34
 67 1237 67 1237 65 1258 c 0,35,36
 64 1263 64 1263 64 1271 c 1,37,38
 62 1271 62 1271 59 1304.5 c 128,-1,39
 56 1338 56 1338 56 1345 c 0,40,41
 56 1353 56 1353 60.5 1375 c 128,-1,42
 65 1397 65 1397 71 1402 c 1,43,44
 154 1454 154 1454 293 1454 c 0,45,46
 361 1454 361 1454 415 1433 c 128,-1,47
 469 1412 469 1412 512 1367.5 c 128,-1,48
 555 1323 555 1323 578.5 1245 c 128,-1,49
 602 1167 602 1167 602 1061 c 0,50,51
 602 780 602 780 405 730 c 1,52,53
 506 707 506 707 557.5 612 c 128,-1,54
 609 517 609 517 609 363 c 0,55,56
 609 258 609 258 581.5 181.5 c 128,-1,57
 554 105 554 105 505.5 63.5 c 128,-1,58
 457 22 457 22 400.5 3.5 c 128,-1,59
 344 -15 344 -15 276 -15 c 0,0,1
EndSplineSet
EndChar

StartChar: four
Encoding: 52 52 23
Width: 894
GlyphClass: 2
Flags: W
LayerCount: 2
Fore
SplineSet
571 -1 m 2,0,1
 534 -1 534 -1 534 60 c 2,2,-1
 534 285 l 1,3,-1
 136 285 l 2,4,5
 115 285 115 285 101 299.5 c 128,-1,6
 87 314 87 314 87 338 c 0,7,8
 87 347 87 347 88 352 c 2,9,-1
 231 1370 l 2,10,11
 237 1407 237 1407 244.5 1422.5 c 128,-1,12
 252 1438 252 1438 269 1438 c 2,13,-1
 351 1438 l 2,14,15
 368 1438 368 1438 377 1423.5 c 128,-1,16
 386 1409 386 1409 386 1387 c 0,17,18
 386 1376 386 1376 385 1370 c 2,19,-1
 287 489 l 2,20,21
 286 482 286 482 291 471 c 128,-1,22
 296 460 296 460 305 460 c 2,23,-1
 534 460 l 1,24,-1
 534 1377 l 2,25,26
 534 1438 534 1438 571 1438 c 2,27,-1
 668 1438 l 2,28,29
 705 1438 705 1438 705 1377 c 2,30,-1
 705 460 l 1,31,-1
 835 460 l 2,32,33
 879 460 879 460 879 404 c 2,34,-1
 879 341 l 2,35,36
 879 285 879 285 835 285 c 2,37,-1
 705 285 l 1,38,-1
 705 60 l 2,39,40
 705 -1 705 -1 668 -1 c 2,41,-1
 571 -1 l 2,0,1
EndSplineSet
EndChar

StartChar: five
Encoding: 53 53 24
Width: 841
GlyphClass: 2
Flags: W
LayerCount: 2
Fore
SplineSet
399 -15 m 1,0,1
 356 -14 356 -14 260.5 8.5 c 128,-1,2
 165 31 165 31 137 51 c 0,3,4
 118 64 118 64 118 104 c 0,5,6
 118 112 118 112 118.5 126 c 128,-1,7
 119 140 119 140 121 161 c 128,-1,8
 123 182 123 182 127 197 c 128,-1,9
 131 212 131 212 137 212 c 0,10,11
 140 212 140 212 145 209 c 0,12,13
 146 208 146 208 158 202.5 c 128,-1,14
 170 197 170 197 183 190.5 c 128,-1,15
 196 184 196 184 217.5 176 c 128,-1,16
 239 168 239 168 261 162 c 128,-1,17
 283 156 283 156 311.5 152 c 128,-1,18
 340 148 340 148 368 148 c 0,19,20
 494 148 494 148 539 227.5 c 128,-1,21
 584 307 584 307 584 477 c 0,22,23
 584 525 584 525 581 562.5 c 128,-1,24
 578 600 578 600 567.5 644.5 c 128,-1,25
 557 689 557 689 539 718.5 c 128,-1,26
 521 748 521 748 487 768 c 128,-1,27
 453 788 453 788 407 788 c 0,28,29
 366 788 366 788 334.5 773 c 128,-1,30
 303 758 303 758 285.5 736 c 128,-1,31
 268 714 268 714 255 692.5 c 128,-1,32
 242 671 242 671 229.5 656 c 128,-1,33
 217 641 217 641 203 641 c 2,34,-1
 155 641 l 2,35,36
 141 641 141 641 137 657.5 c 128,-1,37
 133 674 133 674 132 709 c 0,38,39
 132 717 132 717 132 721 c 2,40,-1
 112 1345 l 1,41,-1
 112 1358 l 2,42,43
 112 1438 112 1438 141 1438 c 2,44,-1
 688 1438 l 2,45,46
 698 1438 698 1438 704 1425.5 c 128,-1,47
 710 1413 710 1413 710 1393 c 2,48,-1
 708 1310 l 1,49,50
 705 1267 705 1267 693 1267 c 2,51,-1
 273 1267 l 2,52,53
 250 1267 250 1267 250 1217 c 2,54,-1
 253 822 l 1,55,56
 327 938 327 938 479 938 c 0,57,58
 624 938 624 938 692.5 814 c 128,-1,59
 761 690 761 690 761 464 c 0,60,61
 761 351 761 351 743.5 267 c 128,-1,62
 726 183 726 183 695.5 129.5 c 128,-1,63
 665 76 665 76 618.5 43 c 128,-1,64
 572 10 572 10 519.5 -2.5 c 128,-1,65
 467 -15 467 -15 399 -15 c 1,0,1
EndSplineSet
EndChar

StartChar: six
Encoding: 54 54 25
Width: 844
GlyphClass: 2
Flags: W
LayerCount: 2
Fore
SplineSet
104 687 m 0,0,1
 104 1102 104 1102 190.5 1278 c 128,-1,2
 277 1454 277 1454 480 1454 c 0,3,4
 542 1454 542 1454 608.5 1434.5 c 128,-1,5
 675 1415 675 1415 703 1391 c 0,6,7
 710 1385 710 1385 714.5 1366 c 128,-1,8
 719 1347 719 1347 719 1340 c 0,9,10
 719 1336 719 1336 715.5 1300 c 128,-1,11
 712 1264 712 1264 711 1263 c 0,12,13
 709 1241 709 1241 703.5 1233 c 128,-1,14
 698 1225 698 1225 688 1232 c 0,15,16
 600 1289 600 1289 519 1289 c 0,17,18
 449 1289 449 1289 403.5 1255 c 128,-1,19
 358 1221 358 1221 330.5 1129.5 c 128,-1,20
 303 1038 303 1038 303 884 c 2,21,-1
 303 859 l 1,22,23
 416 905 416 905 469 905 c 0,24,25
 551 905 551 905 612 870 c 128,-1,26
 673 835 673 835 708.5 770.5 c 128,-1,27
 744 706 744 706 760.5 624.5 c 128,-1,28
 777 543 777 543 777 441 c 0,29,30
 777 331 777 331 760 249 c 128,-1,31
 743 167 743 167 714.5 117 c 128,-1,32
 686 67 686 67 642 37 c 128,-1,33
 598 7 598 7 550.5 -4 c 128,-1,34
 503 -15 503 -15 442 -15 c 0,35,36
 267 -15 267 -15 185.5 149.5 c 128,-1,37
 104 314 104 314 104 687 c 0,0,1
447 147 m 0,38,39
 494 147 494 147 522.5 171.5 c 128,-1,40
 551 196 551 196 568 265 c 128,-1,41
 585 334 585 334 585 456 c 0,42,43
 585 518 585 518 579.5 566 c 128,-1,44
 574 614 574 614 560.5 655 c 128,-1,45
 547 696 547 696 521 718 c 128,-1,46
 495 740 495 740 457 740 c 0,47,48
 393 740 393 740 302 696 c 1,49,-1
 302 576 l 2,50,51
 302 336 302 336 335.5 241.5 c 128,-1,52
 369 147 369 147 447 147 c 0,38,39
EndSplineSet
EndChar

StartChar: seven
Encoding: 55 55 26
Width: 586
GlyphClass: 2
Flags: W
LayerCount: 2
Fore
SplineSet
189 0 m 2,0,1
 179 0 179 0 172 13.5 c 128,-1,2
 165 27 165 27 165 50 c 0,3,4
 165 58 165 58 166 66 c 2,5,-1
 304 1210 l 2,6,7
 307 1237 307 1237 293 1237 c 2,8,-1
 98 1237 l 2,9,10
 72 1237 72 1237 72 1283 c 2,11,-1
 72 1394 l 2,12,13
 72 1438 72 1438 98 1438 c 2,14,-1
 490 1438 l 2,15,16
 514 1438 514 1438 514 1389 c 0,17,18
 514 1379 514 1379 513 1373 c 2,19,-1
 357 66 l 2,20,21
 349 0 349 0 330 0 c 2,22,-1
 189 0 l 2,0,1
EndSplineSet
EndChar

StartChar: eight
Encoding: 56 56 27
Width: 849
GlyphClass: 2
Flags: W
LayerCount: 2
Fore
SplineSet
525 826 m 1,0,1
 537 840 537 840 550 915.5 c 128,-1,2
 563 991 563 991 563 1057 c 0,3,4
 563 1301 563 1301 426 1301 c 128,-1,5
 289 1301 289 1301 289 1071 c 0,6,7
 289 942 289 942 339.5 892.5 c 128,-1,8
 390 843 390 843 525 826 c 1,0,1
426 -15 m 0,9,10
 381 -15 381 -15 345 -8.5 c 128,-1,11
 309 -2 309 -2 270.5 15 c 128,-1,12
 232 32 232 32 204 64.5 c 128,-1,13
 176 97 176 97 153 145 c 128,-1,14
 130 193 130 193 118 265.5 c 128,-1,15
 106 338 106 338 106 431 c 0,16,17
 106 557 106 557 139.5 655.5 c 128,-1,18
 173 754 173 754 217 794 c 1,19,20
 135 880 135 880 135 1068 c 0,21,22
 135 1454 135 1454 426 1454 c 0,23,24
 474 1454 474 1454 514 1444 c 128,-1,25
 554 1434 554 1434 591.5 1407 c 128,-1,26
 629 1380 629 1380 655 1337 c 128,-1,27
 681 1294 681 1294 696.5 1224.5 c 128,-1,28
 712 1155 712 1155 712 1064 c 0,29,30
 712 969 712 969 688.5 887 c 128,-1,31
 665 805 665 805 633 767 c 1,32,33
 689 719 689 719 716.5 638 c 128,-1,34
 744 557 744 557 744 425 c 0,35,36
 744 320 744 320 726.5 240.5 c 128,-1,37
 709 161 709 161 680 113.5 c 128,-1,38
 651 66 651 66 608.5 36 c 128,-1,39
 566 6 566 6 522.5 -4.5 c 128,-1,40
 479 -15 479 -15 426 -15 c 0,9,10
427 175 m 0,41,42
 501 175 501 175 538.5 233.5 c 128,-1,43
 576 292 576 292 576 444 c 0,44,45
 576 501 576 501 566.5 541 c 128,-1,46
 557 581 557 581 543.5 604.5 c 128,-1,47
 530 628 530 628 502 646 c 128,-1,48
 474 664 474 664 452 672 c 128,-1,49
 430 680 430 680 387 694.5 c 128,-1,50
 344 709 344 709 316 721 c 1,51,52
 298 683 298 683 284.5 603 c 128,-1,53
 271 523 271 523 271 457 c 0,54,55
 271 175 271 175 427 175 c 0,41,42
EndSplineSet
EndChar

StartChar: nine
Encoding: 57 57 28
Width: 866
GlyphClass: 2
Flags: W
LayerCount: 2
Fore
SplineSet
408 -15 m 0,0,1
 353 -15 353 -15 277 12 c 128,-1,2
 201 39 201 39 171 68 c 1,3,4
 157 79 157 79 157 121 c 1,5,-1
 163 199 l 2,6,7
 164 219 164 219 167.5 227.5 c 128,-1,8
 171 236 171 236 176 235.5 c 128,-1,9
 181 235 181 235 187 231 c 0,10,11
 209 212 209 212 271 186 c 128,-1,12
 333 160 333 160 399 160 c 0,13,14
 490 160 490 160 526.5 245 c 128,-1,15
 563 330 563 330 563 527 c 2,16,-1
 563 581 l 1,17,18
 476 527 476 527 411 527 c 0,19,20
 305 527 305 527 235 588 c 128,-1,21
 165 649 165 649 134 751.5 c 128,-1,22
 103 854 103 854 103 994 c 0,23,24
 103 1102 103 1102 119.5 1184 c 128,-1,25
 136 1266 136 1266 164 1318.5 c 128,-1,26
 192 1371 192 1371 235 1403.5 c 128,-1,27
 278 1436 278 1436 325.5 1449 c 128,-1,28
 373 1462 373 1462 433 1462 c 0,29,30
 547 1462 547 1462 617.5 1396 c 128,-1,31
 688 1330 688 1330 725.5 1171.5 c 128,-1,32
 763 1013 763 1013 763 749 c 0,33,34
 763 454 763 454 725.5 287 c 128,-1,35
 688 120 688 120 613 52.5 c 128,-1,36
 538 -15 538 -15 408 -15 c 0,0,1
423 692 m 0,37,38
 497 692 497 692 564 745 c 1,39,-1
 564 912 l 2,40,41
 564 1057 564 1057 548.5 1142 c 128,-1,42
 533 1227 533 1227 504.5 1259.5 c 128,-1,43
 476 1292 476 1292 429 1292 c 0,44,45
 363 1292 363 1292 330 1221 c 128,-1,46
 297 1150 297 1150 297 982 c 0,47,48
 297 843 297 843 325.5 767.5 c 128,-1,49
 354 692 354 692 423 692 c 0,37,38
EndSplineSet
EndChar

StartChar: colon
Encoding: 58 58 29
Width: 340
GlyphClass: 2
Flags: W
LayerCount: 2
Fore
SplineSet
126 0 m 2,0,1
 99 0 99 0 99 64 c 2,2,-1
 99 268 l 2,3,4
 99 332 99 332 126 332 c 2,5,-1
 214 332 l 2,6,7
 241 332 241 332 241 268 c 2,8,-1
 241 64 l 2,9,10
 241 0 241 0 214 0 c 2,11,-1
 126 0 l 2,0,1
126 690 m 2,12,13
 99 690 99 690 99 754 c 2,14,-1
 99 958 l 2,15,16
 99 1022 99 1022 126 1022 c 2,17,-1
 214 1022 l 2,18,19
 241 1022 241 1022 241 958 c 2,20,-1
 241 754 l 2,21,22
 241 690 241 690 214 690 c 2,23,-1
 126 690 l 2,12,13
EndSplineSet
EndChar

StartChar: semicolon
Encoding: 59 59 30
Width: 356
GlyphClass: 2
Flags: W
LayerCount: 2
Fore
SplineSet
120 -328 m 0,0,1
 118 -329 118 -329 115 -329 c 0,2,3
 96 -329 96 -329 96 -283 c 2,4,-1
 96 -266 l 2,5,6
 96 -239 96 -239 98.5 -226.5 c 128,-1,7
 101 -214 101 -214 103.5 -210 c 128,-1,8
 106 -206 106 -206 119 -191 c 0,9,10
 141 -164 141 -164 153.5 -116 c 128,-1,11
 166 -68 166 -68 166 -27 c 0,12,13
 166 0 166 0 160 0 c 2,14,-1
 117 0 l 2,15,16
 96 0 96 0 96 57 c 2,17,-1
 96 248 l 2,18,19
 96 308 96 308 117 308 c 2,20,-1
 237 308 l 2,21,22
 263 308 263 308 263 244 c 2,23,-1
 263 50 l 2,24,25
 263 -108 263 -108 216 -206.5 c 128,-1,26
 169 -305 169 -305 120 -328 c 0,0,1
125 690 m 2,27,28
 98 690 98 690 98 754 c 2,29,-1
 98 958 l 2,30,31
 98 1022 98 1022 125 1022 c 2,32,-1
 230 1022 l 2,33,34
 256 1022 256 1022 256 958 c 2,35,-1
 256 754 l 2,36,37
 256 690 256 690 230 690 c 2,38,-1
 125 690 l 2,27,28
EndSplineSet
EndChar

StartChar: less
Encoding: 60 60 31
Width: 1073
GlyphClass: 2
Flags: W
LayerCount: 2
Fore
SplineSet
526 145 m 0,0,1
 519 145 519 145 500 158 c 1,2,-1
 209 499 l 2,3,4
 188 523 188 523 179 534.5 c 128,-1,5
 170 546 170 546 162 565 c 128,-1,6
 154 584 154 584 154 606 c 2,7,-1
 154 655 l 2,8,9
 154 677 154 677 162.5 696.5 c 128,-1,10
 171 716 171 716 178.5 725.5 c 128,-1,11
 186 735 186 735 210 762 c 1,12,-1
 500 1112 l 1,13,14
 511 1122 511 1122 525 1122 c 0,15,16
 540 1122 540 1122 549.5 1109.5 c 128,-1,17
 559 1097 559 1097 559 1079 c 2,18,-1
 559 1023 l 2,19,20
 559 1014 559 1014 558 1006.5 c 128,-1,21
 557 999 557 999 556 993.5 c 128,-1,22
 555 988 555 988 551 980.5 c 128,-1,23
 547 973 547 973 546 970 c 128,-1,24
 545 967 545 967 538.5 959 c 128,-1,25
 532 951 532 951 531 950 c 128,-1,26
 530 949 530 949 521 939 c 128,-1,27
 512 929 512 929 511 928 c 2,28,-1
 287 648 l 1,29,30
 278 639 278 639 278 630 c 128,-1,31
 278 621 278 621 287 612 c 1,32,-1
 511 342 l 2,33,34
 514 339 514 339 521 331.5 c 128,-1,35
 528 324 528 324 530.5 321 c 128,-1,36
 533 318 533 318 538.5 311.5 c 128,-1,37
 544 305 544 305 546 301.5 c 128,-1,38
 548 298 548 298 551.5 291.5 c 128,-1,39
 555 285 555 285 556 279.5 c 128,-1,40
 557 274 557 274 558 266.5 c 128,-1,41
 559 259 559 259 559 250 c 2,42,-1
 559 187 l 2,43,44
 559 170 559 170 549.5 157.5 c 128,-1,45
 540 145 540 145 526 145 c 0,0,1
EndSplineSet
EndChar

StartChar: equal
Encoding: 61 61 32
Width: 560
GlyphClass: 2
Flags: W
LayerCount: 2
Fore
SplineSet
72 338 m 2,0,1
 59 338 59 338 53.5 346 c 128,-1,2
 48 354 48 354 48 384 c 2,3,-1
 48 425 l 2,4,5
 48 455 48 455 53.5 462.5 c 128,-1,6
 59 470 59 470 72 470 c 2,7,-1
 488 470 l 2,8,9
 501 470 501 470 506.5 462.5 c 128,-1,10
 512 455 512 455 512 425 c 2,11,-1
 512 384 l 2,12,13
 512 354 512 354 506.5 346 c 128,-1,14
 501 338 501 338 488 338 c 2,15,-1
 72 338 l 2,0,1
72 617 m 2,16,17
 59 617 59 617 53.5 625 c 128,-1,18
 48 633 48 633 48 663 c 2,19,-1
 48 704 l 2,20,21
 48 734 48 734 53.5 742 c 128,-1,22
 59 750 59 750 72 750 c 2,23,-1
 488 750 l 2,24,25
 501 750 501 750 506.5 742 c 128,-1,26
 512 734 512 734 512 704 c 2,27,-1
 512 663 l 2,28,29
 512 633 512 633 506.5 625 c 128,-1,30
 501 617 501 617 488 617 c 2,31,-1
 72 617 l 2,16,17
EndSplineSet
EndChar

StartChar: greater
Encoding: 62 62 33
Width: 1073
GlyphClass: 2
Flags: W
LayerCount: 2
Fore
SplineSet
187 145 m 0,0,1
 172 145 172 145 163 157.5 c 128,-1,2
 154 170 154 170 154 189 c 2,3,-1
 154 244 l 2,4,5
 154 251 154 251 154.5 257.5 c 128,-1,6
 155 264 155 264 156 269 c 128,-1,7
 157 274 157 274 159 279.5 c 128,-1,8
 161 285 161 285 162.5 288.5 c 128,-1,9
 164 292 164 292 167.5 297.5 c 128,-1,10
 171 303 171 303 172.5 305.5 c 128,-1,11
 174 308 174 308 178.5 314 c 128,-1,12
 183 320 183 320 185 322 c 128,-1,13
 187 324 187 324 193 330.5 c 128,-1,14
 199 337 199 337 201 340 c 2,15,-1
 426 619 l 2,16,17
 434 628 434 628 434 638 c 128,-1,18
 434 648 434 648 425 655 c 1,19,-1
 202 925 l 2,20,21
 199 929 199 929 190.5 937.5 c 128,-1,22
 182 946 182 946 179.5 949.5 c 128,-1,23
 177 953 177 953 171 960 c 128,-1,24
 165 967 165 967 163.5 971.5 c 128,-1,25
 162 976 162 976 159 983.5 c 128,-1,26
 156 991 156 991 155 999 c 128,-1,27
 154 1007 154 1007 154 1017 c 2,28,-1
 154 1081 l 2,29,30
 154 1099 154 1099 163 1110.5 c 128,-1,31
 172 1122 172 1122 187 1122 c 0,32,33
 197 1122 197 1122 212 1110 c 1,34,-1
 503 768 l 2,35,36
 526 742 526 742 534 732 c 128,-1,37
 542 722 542 722 550.5 703 c 128,-1,38
 559 684 559 684 559 662 c 2,39,-1
 559 613 l 2,40,41
 559 605 559 605 558.5 598.5 c 128,-1,42
 558 592 558 592 555.5 585 c 128,-1,43
 553 578 553 578 552 573.5 c 128,-1,44
 551 569 551 569 546 562 c 128,-1,45
 541 555 541 555 540 552 c 128,-1,46
 539 549 539 549 532 540.5 c 128,-1,47
 525 532 525 532 523.5 530 c 128,-1,48
 522 528 522 528 513 518 c 128,-1,49
 504 508 504 508 502 506 c 2,50,-1
 213 156 l 1,51,52
 199 145 199 145 187 145 c 0,0,1
EndSplineSet
EndChar

StartChar: question
Encoding: 63 63 34
Width: 772
GlyphClass: 2
Flags: W
LayerCount: 2
Fore
SplineSet
271 520 m 0,0,1
 268 525 268 525 261 537.5 c 128,-1,2
 254 550 254 550 251 556 c 128,-1,3
 248 562 248 562 244.5 572.5 c 128,-1,4
 241 583 241 583 240 594 c 1,5,6
 231 620 231 620 250 641 c 1,7,8
 284 708 284 708 317.5 743 c 128,-1,9
 351 778 351 778 422 827 c 0,10,11
 548 912 548 912 548 1070 c 1,12,13
 545 1176 545 1176 491.5 1234.5 c 128,-1,14
 438 1293 438 1293 362 1293 c 0,15,16
 247 1293 247 1293 141 1218 c 0,17,18
 121 1205 121 1205 108 1247 c 1,19,20
 103 1247 103 1247 92.5 1283 c 128,-1,21
 82 1319 82 1319 82 1329 c 0,22,23
 82 1365 82 1365 106 1379 c 1,24,25
 157 1415 157 1415 228.5 1440 c 128,-1,26
 300 1465 300 1465 365 1465 c 0,27,28
 419 1465 419 1465 466.5 1452.5 c 128,-1,29
 514 1440 514 1440 558 1411 c 128,-1,30
 602 1382 602 1382 634 1338 c 128,-1,31
 666 1294 666 1294 686 1226 c 128,-1,32
 706 1158 706 1158 708 1073 c 1,33,34
 708 833 708 833 444 674 c 0,35,36
 368 628 368 628 316 525 c 1,37,38
 304 509 304 509 290 509 c 0,39,40
 279 509 279 509 271 520 c 0,0,1
257 0 m 2,41,42
 236 0 236 0 222.5 17.5 c 128,-1,43
 209 35 209 35 209 65 c 2,44,-1
 209 176 l 2,45,46
 209 206 209 206 222.5 223.5 c 128,-1,47
 236 241 236 241 257 241 c 2,48,-1
 362 241 l 2,49,50
 383 241 383 241 396.5 223.5 c 128,-1,51
 410 206 410 206 410 176 c 2,52,-1
 410 65 l 2,53,54
 410 35 410 35 396.5 17.5 c 128,-1,55
 383 0 383 0 362 0 c 2,56,-1
 257 0 l 2,41,42
EndSplineSet
EndChar

StartChar: at
Encoding: 64 64 35
Width: 1381
GlyphClass: 2
Flags: W
LayerCount: 2
Fore
SplineSet
721 -157 m 0,0,1
 566 -157 566 -157 443.5 -91.5 c 128,-1,2
 321 -26 321 -26 244.5 87.5 c 128,-1,3
 168 201 168 201 128 349 c 128,-1,4
 88 497 88 497 88 668 c 0,5,6
 88 807 88 807 111.5 931 c 128,-1,7
 135 1055 135 1055 185 1160 c 128,-1,8
 235 1265 235 1265 307 1341.5 c 128,-1,9
 379 1418 379 1418 481.5 1461 c 128,-1,10
 584 1504 584 1504 707 1504 c 0,11,12
 836 1504 836 1504 938.5 1463 c 128,-1,13
 1041 1422 1041 1422 1109.5 1351 c 128,-1,14
 1178 1280 1178 1280 1223.5 1178 c 128,-1,15
 1269 1076 1269 1076 1289.5 959 c 128,-1,16
 1310 842 1310 842 1310 705 c 0,17,18
 1310 467 1310 467 1247 348.5 c 128,-1,19
 1184 230 1184 230 1097 230 c 0,20,21
 1031 230 1031 230 991.5 279 c 128,-1,22
 952 328 952 328 946 413 c 1,23,24
 942 450 942 450 935 450 c 0,25,26
 930 450 930 450 924 423 c 1,27,28
 892 317 892 317 835 262 c 128,-1,29
 778 207 778 207 679 207 c 0,30,31
 550 207 550 207 468.5 324.5 c 128,-1,32
 387 442 387 442 387 661 c 0,33,34
 387 873 387 873 465 989 c 128,-1,35
 543 1105 543 1105 670 1105 c 0,36,37
 853 1105 853 1105 914 883 c 0,38,39
 918 868 918 868 922 868 c 128,-1,40
 926 868 926 868 926 880 c 1,41,-1
 938 1011 l 1,42,43
 945 1060 945 1060 981 1060 c 2,44,-1
 989 1060 l 2,45,46
 1005 1060 1005 1060 1014.5 1044 c 128,-1,47
 1024 1028 1024 1028 1024 1003 c 2,48,-1
 1024 487 l 2,49,50
 1024 399 1024 399 1042.5 365 c 128,-1,51
 1061 331 1061 331 1095 331 c 0,52,53
 1109 331 1109 331 1121.5 340.5 c 128,-1,54
 1134 350 1134 350 1146.5 376.5 c 128,-1,55
 1159 403 1159 403 1168.5 443.5 c 128,-1,56
 1178 484 1178 484 1183.5 551 c 128,-1,57
 1189 618 1189 618 1189 705 c 0,58,59
 1189 824 1189 824 1173.5 924 c 128,-1,60
 1158 1024 1158 1024 1122.5 1110.5 c 128,-1,61
 1087 1197 1087 1197 1032.5 1257.5 c 128,-1,62
 978 1318 978 1318 896 1352 c 128,-1,63
 814 1386 814 1386 710 1386 c 0,64,65
 609 1386 609 1386 525.5 1346 c 128,-1,66
 442 1306 442 1306 386 1238 c 128,-1,67
 330 1170 330 1170 291.5 1077 c 128,-1,68
 253 984 253 984 235.5 880.5 c 128,-1,69
 218 777 218 777 218 664 c 0,70,71
 218 553 218 553 234 454 c 128,-1,72
 250 355 250 355 287.5 262 c 128,-1,73
 325 169 325 169 382.5 102.5 c 128,-1,74
 440 36 440 36 529 -4.5 c 128,-1,75
 618 -45 618 -45 730 -45 c 0,76,77
 848 -45 848 -45 974 15 c 1,78,-1
 975 16 l 2,79,80
 976 16 976 16 977 16 c 0,81,82
 989 16 989 16 1004 -14 c 128,-1,83
 1019 -44 1019 -44 1019 -67 c 0,84,85
 1019 -81 1019 -81 1011 -86 c 0,86,87
 956 -117 956 -117 876 -137 c 128,-1,88
 796 -157 796 -157 721 -157 c 0,0,1
697 327 m 0,89,90
 783 327 783 327 835.5 410 c 128,-1,91
 888 493 888 493 888 652 c 0,92,93
 888 807 888 807 835.5 892 c 128,-1,94
 783 977 783 977 698 977 c 0,95,96
 605 977 605 977 560 889 c 128,-1,97
 515 801 515 801 515 652 c 128,-1,98
 515 503 515 503 561 415 c 128,-1,99
 607 327 607 327 697 327 c 0,89,90
EndSplineSet
EndChar

StartChar: A
Encoding: 65 65 36
Width: 822
GlyphClass: 2
Flags: W
LayerCount: 2
Fore
SplineSet
68 0 m 2,0,1
 53 0 53 0 53 29 c 2,2,-1
 53 46 l 2,3,4
 53 59 53 59 54 63 c 2,5,-1
 279 1388 l 2,6,7
 287 1436 287 1436 316 1438 c 1,8,-1
 519 1438 l 1,9,10
 547 1436 547 1436 555 1388 c 2,11,-1
 776 63 l 2,12,13
 776 60 776 60 777.5 52 c 128,-1,14
 779 44 779 44 779.5 38 c 128,-1,15
 780 32 780 32 780 28 c 0,16,17
 780 0 780 0 763 0 c 2,18,-1
 598 0 l 2,19,20
 574 0 574 0 567 41 c 1,21,-1
 530 296 l 2,22,23
 527 318 527 318 519 318 c 2,24,-1
 277 318 l 2,25,26
 270 318 270 318 266 295 c 2,27,-1
 224 42 l 2,28,29
 220 17 220 17 214 8.5 c 128,-1,30
 208 0 208 0 196 0 c 2,31,-1
 68 0 l 2,0,1
306 443 m 2,32,-1
 510 443 l 2,33,34
 517 443 517 443 517 461 c 0,35,36
 517 467 517 467 515 470 c 1,37,-1
 416 1241 l 2,38,39
 415 1248 415 1248 413 1248 c 0,40,41
 410 1248 410 1248 409 1242 c 2,42,-1
 292 471 l 2,43,44
 291 464 291 464 291 462 c 0,45,46
 291 443 291 443 306 443 c 2,32,-1
EndSplineSet
EndChar

StartChar: B
Encoding: 66 66 37
Width: 896
GlyphClass: 2
Flags: W
LayerCount: 2
Fore
SplineSet
143 0 m 2,0,1
 129 0 129 0 122.5 8 c 128,-1,2
 116 16 116 16 116 44 c 2,3,-1
 116 1393 l 2,4,5
 116 1422 116 1422 122.5 1430 c 128,-1,6
 129 1438 129 1438 143 1438 c 2,7,-1
 509 1438 l 2,8,9
 794 1438 794 1438 794 1041 c 0,10,11
 794 856 794 856 705 782 c 1,12,13
 696 773 696 773 696 770 c 128,-1,14
 696 767 696 767 706 757 c 1,15,16
 831 668 831 668 831 424 c 0,17,18
 831 304 831 304 806.5 220 c 128,-1,19
 782 136 782 136 735.5 88.5 c 128,-1,20
 689 41 689 41 629 20.5 c 128,-1,21
 569 0 569 0 490 0 c 2,22,-1
 143 0 l 2,0,1
327 150 m 2,23,-1
 454 150 l 2,24,25
 542 150 542 150 590.5 224 c 128,-1,26
 639 298 639 298 639 425 c 0,27,28
 639 538 639 538 596 611 c 128,-1,29
 553 684 553 684 486 684 c 2,30,-1
 327 684 l 2,31,32
 313 684 313 684 313 660 c 2,33,-1
 313 170 l 2,34,35
 313 150 313 150 327 150 c 2,23,-1
327 833 m 2,36,-1
 493 833 l 2,37,38
 548 833 548 833 581 887.5 c 128,-1,39
 614 942 614 942 614 1035 c 0,40,41
 614 1157 614 1157 571.5 1219.5 c 128,-1,42
 529 1282 529 1282 455 1282 c 2,43,-1
 327 1282 l 2,44,45
 313 1282 313 1282 313 1260 c 2,46,-1
 313 853 l 2,47,48
 313 833 313 833 327 833 c 2,36,-1
EndSplineSet
EndChar

StartChar: C
Encoding: 67 67 38
Width: 717
GlyphClass: 2
Flags: W
LayerCount: 2
Fore
SplineSet
494 -15 m 0,0,1
 442 -15 442 -15 403.5 -10 c 128,-1,2
 365 -5 365 -5 320 12.5 c 128,-1,3
 275 30 275 30 243.5 61 c 128,-1,4
 212 92 212 92 180.5 147 c 128,-1,5
 149 202 149 202 130 278.5 c 128,-1,6
 111 355 111 355 99 466.5 c 128,-1,7
 87 578 87 578 87 720 c 0,8,9
 87 912 87 912 110.5 1050 c 128,-1,10
 134 1188 134 1188 170 1265 c 128,-1,11
 206 1342 206 1342 263.5 1386 c 128,-1,12
 321 1430 321 1430 373.5 1442 c 128,-1,13
 426 1454 426 1454 499 1454 c 0,14,15
 592 1454 592 1454 652 1426 c 0,16,17
 653 1425 653 1425 655 1423.5 c 128,-1,18
 657 1422 657 1422 658.5 1420.5 c 128,-1,19
 660 1419 660 1419 661 1415.5 c 128,-1,20
 662 1412 662 1412 662 1407 c 2,21,-1
 662 1286 l 2,22,23
 662 1272 662 1272 655 1272 c 0,24,25
 654 1272 654 1272 647.5 1274 c 128,-1,26
 641 1276 641 1276 629 1279 c 128,-1,27
 617 1282 617 1282 603 1285 c 128,-1,28
 589 1288 589 1288 570.5 1290 c 128,-1,29
 552 1292 552 1292 534 1292 c 0,30,31
 487 1292 487 1292 454 1281.5 c 128,-1,32
 421 1271 421 1271 387 1236.5 c 128,-1,33
 353 1202 353 1202 332 1141 c 128,-1,34
 311 1080 311 1080 298 974 c 128,-1,35
 285 868 285 868 285 720 c 0,36,37
 285 569 285 569 296.5 463 c 128,-1,38
 308 357 308 357 326 295.5 c 128,-1,39
 344 234 344 234 376 200 c 128,-1,40
 408 166 408 166 440 156 c 128,-1,41
 472 146 472 146 520 146 c 0,42,43
 591 146 591 146 646 165 c 0,44,45
 647 165 647 165 650.5 155 c 128,-1,46
 654 145 654 145 654 144 c 2,47,-1
 654 29 l 2,48,49
 654 28 654 28 650.5 18.5 c 128,-1,50
 647 9 647 9 646 8 c 0,51,52
 585 -15 585 -15 494 -15 c 0,0,1
EndSplineSet
EndChar

StartChar: D
Encoding: 68 68 39
Width: 935
GlyphClass: 2
Flags: W
LayerCount: 2
Fore
SplineSet
326 159 m 2,0,-1
 449 159 l 2,1,2
 526 159 526 159 568 205 c 128,-1,3
 610 251 610 251 630.5 373.5 c 128,-1,4
 651 496 651 496 651 726 c 0,5,6
 651 939 651 939 627.5 1063 c 128,-1,7
 604 1187 604 1187 563 1233 c 128,-1,8
 522 1279 522 1279 456 1279 c 2,9,-1
 325 1279 l 2,10,11
 313 1279 313 1279 313 1257 c 2,12,-1
 313 181 l 2,13,14
 313 159 313 159 326 159 c 2,0,-1
141 0 m 2,15,16
 128 0 128 0 122 8 c 128,-1,17
 116 16 116 16 116 44 c 2,18,-1
 116 1398 l 2,19,20
 116 1423 116 1423 122 1430.5 c 128,-1,21
 128 1438 128 1438 141 1438 c 2,22,-1
 485 1438 l 2,23,24
 573 1438 573 1438 637.5 1403 c 128,-1,25
 702 1368 702 1368 751 1288 c 128,-1,26
 800 1208 800 1208 824.5 1068.5 c 128,-1,27
 849 929 849 929 849 729 c 0,28,29
 849 587 849 587 840 478.5 c 128,-1,30
 831 370 831 370 816.5 292.5 c 128,-1,31
 802 215 802 215 775 161.5 c 128,-1,32
 748 108 748 108 719 76.5 c 128,-1,33
 690 45 690 45 646 28 c 128,-1,34
 602 11 602 11 560.5 5.5 c 128,-1,35
 519 0 519 0 458 0 c 2,36,-1
 141 0 l 2,15,16
EndSplineSet
EndChar

StartChar: E
Encoding: 69 69 40
Width: 752
GlyphClass: 2
Flags: W
LayerCount: 2
Fore
SplineSet
141 0 m 2,0,1
 128 0 128 0 122 7.5 c 128,-1,2
 116 15 116 15 116 42 c 2,3,-1
 116 1396 l 2,4,5
 116 1422 116 1422 122 1430 c 128,-1,6
 128 1438 128 1438 141 1438 c 2,7,-1
 667 1438 l 2,8,9
 675 1438 675 1438 680 1436 c 128,-1,10
 685 1434 685 1434 688.5 1425 c 128,-1,11
 692 1416 692 1416 692 1398 c 2,12,-1
 692 1319 l 2,13,14
 692 1294 692 1294 686 1286.5 c 128,-1,15
 680 1279 680 1279 667 1279 c 2,16,-1
 325 1279 l 2,17,18
 313 1279 313 1279 313 1246 c 2,19,-1
 313 842 l 2,20,21
 313 833 313 833 316.5 824 c 128,-1,22
 320 815 320 815 323 815 c 2,23,-1
 598 815 l 2,24,25
 623 815 623 815 623 769 c 2,26,-1
 623 692 l 2,27,28
 623 646 623 646 598 646 c 2,29,-1
 324 646 l 2,30,31
 320 646 320 646 316.5 636 c 128,-1,32
 313 626 313 626 313 616 c 2,33,-1
 313 159 l 1,34,-1
 670 159 l 2,35,36
 679 159 679 159 684 157 c 128,-1,37
 689 155 689 155 692.5 146 c 128,-1,38
 696 137 696 137 696 119 c 2,39,-1
 696 40 l 2,40,41
 696 15 696 15 689.5 7.5 c 128,-1,42
 683 0 683 0 670 0 c 2,43,-1
 141 0 l 2,0,1
EndSplineSet
EndChar

StartChar: F
Encoding: 70 70 41
Width: 684
GlyphClass: 2
Flags: W
LayerCount: 2
Fore
SplineSet
141 0 m 2,0,1
 128 0 128 0 122 7.5 c 128,-1,2
 116 15 116 15 116 42 c 2,3,-1
 116 1396 l 2,4,5
 116 1422 116 1422 122 1430 c 128,-1,6
 128 1438 128 1438 141 1438 c 2,7,-1
 632 1438 l 2,8,9
 641 1438 641 1438 645.5 1436 c 128,-1,10
 650 1434 650 1434 653.5 1425 c 128,-1,11
 657 1416 657 1416 657 1398 c 2,12,-1
 657 1319 l 2,13,14
 657 1294 657 1294 651 1286.5 c 128,-1,15
 645 1279 645 1279 632 1279 c 2,16,-1
 325 1279 l 2,17,18
 313 1279 313 1279 313 1253 c 2,19,-1
 313 812 l 2,20,21
 313 792 313 792 323 792 c 2,22,-1
 573 792 l 2,23,24
 586 792 586 792 592 785 c 128,-1,25
 598 778 598 778 598 753 c 2,26,-1
 598 663 l 2,27,28
 598 638 598 638 592 630.5 c 128,-1,29
 586 623 586 623 573 623 c 2,30,-1
 324 623 l 2,31,32
 320 623 320 623 316.5 615 c 128,-1,33
 313 607 313 607 313 598 c 2,34,-1
 313 42 l 2,35,36
 313 15 313 15 307 7.5 c 128,-1,37
 301 0 301 0 288 0 c 2,38,-1
 141 0 l 2,0,1
EndSplineSet
EndChar

StartChar: G
Encoding: 71 71 42
Width: 902
GlyphClass: 2
Flags: W
LayerCount: 2
Fore
SplineSet
792 -16 m 0,0,1
 754 -16 754 -16 742 47 c 0,2,3
 742 48 742 48 728 125.5 c 128,-1,4
 714 203 714 203 714 214 c 0,5,6
 714 224 714 224 711 224 c 128,-1,7
 708 224 708 224 705 215 c 1,8,9
 688 103 688 103 631.5 44 c 128,-1,10
 575 -15 575 -15 482 -15 c 0,11,12
 437 -15 437 -15 400 -9 c 128,-1,13
 363 -3 363 -3 321.5 16.5 c 128,-1,14
 280 36 280 36 248 68 c 128,-1,15
 216 100 216 100 185.5 156 c 128,-1,16
 155 212 155 212 135.5 287.5 c 128,-1,17
 116 363 116 363 104 473 c 128,-1,18
 92 583 92 583 92 720 c 0,19,20
 92 862 92 862 106.5 974 c 128,-1,21
 121 1086 121 1086 144.5 1162 c 128,-1,22
 168 1238 168 1238 205 1293 c 128,-1,23
 242 1348 242 1348 279.5 1378.5 c 128,-1,24
 317 1409 317 1409 369 1426.5 c 128,-1,25
 421 1444 421 1444 464 1449 c 128,-1,26
 507 1454 507 1454 564 1454 c 0,27,28
 606 1454 606 1454 655.5 1443 c 128,-1,29
 705 1432 705 1432 734 1419 c 0,30,31
 735 1418 735 1418 738.5 1416 c 128,-1,32
 742 1414 742 1414 744 1410.5 c 128,-1,33
 746 1407 746 1407 746 1400 c 2,34,-1
 746 1277 l 2,35,36
 746 1263 746 1263 738 1263 c 0,37,38
 737 1263 737 1263 726.5 1266 c 128,-1,39
 716 1269 716 1269 698.5 1273.5 c 128,-1,40
 681 1278 681 1278 660.5 1282 c 128,-1,41
 640 1286 640 1286 617 1289 c 128,-1,42
 594 1292 594 1292 575 1292 c 0,43,44
 522 1292 522 1292 484 1281.5 c 128,-1,45
 446 1271 446 1271 407 1236.5 c 128,-1,46
 368 1202 368 1202 344 1141 c 128,-1,47
 320 1080 320 1080 305 974 c 128,-1,48
 290 868 290 868 290 720 c 0,49,50
 290 580 290 580 301 476.5 c 128,-1,51
 312 373 312 373 330 310 c 128,-1,52
 348 247 348 247 376.5 209 c 128,-1,53
 405 171 405 171 434.5 157.5 c 128,-1,54
 464 144 464 144 503 144 c 0,55,56
 549 144 549 144 579.5 171 c 128,-1,57
 610 198 610 198 625.5 254 c 128,-1,58
 641 310 641 310 646.5 377 c 128,-1,59
 652 444 652 444 652 544 c 0,60,61
 652 589 652 589 643 589 c 2,62,-1
 530 589 l 2,63,64
 521 589 521 589 515.5 591.5 c 128,-1,65
 510 594 510 594 505.5 604 c 128,-1,66
 501 614 501 614 501 632 c 2,67,-1
 501 714 l 2,68,69
 501 741 501 741 508.5 749.5 c 128,-1,70
 516 758 516 758 529 758 c 2,71,-1
 798 758 l 2,72,73
 824 758 824 758 824 696 c 2,74,-1
 824 51 l 2,75,76
 824 21 824 21 814 2.5 c 128,-1,77
 804 -16 804 -16 792 -16 c 0,0,1
EndSplineSet
EndChar

StartChar: H
Encoding: 72 72 43
Width: 947
GlyphClass: 2
Flags: W
LayerCount: 2
Fore
SplineSet
142 0 m 2,0,1
 128 0 128 0 122 8.5 c 128,-1,2
 116 17 116 17 116 47 c 2,3,-1
 116 1391 l 2,4,5
 116 1421 116 1421 122 1429.5 c 128,-1,6
 128 1438 128 1438 142 1438 c 2,7,-1
 287 1438 l 2,8,9
 301 1438 301 1438 307 1429.5 c 128,-1,10
 313 1421 313 1421 313 1391 c 2,11,-1
 313 859 l 2,12,13
 313 850 313 850 316.5 843 c 128,-1,14
 320 836 320 836 323 836 c 2,15,-1
 623 836 l 2,16,17
 626 836 626 836 630 843.5 c 128,-1,18
 634 851 634 851 634 860 c 2,19,-1
 634 1391 l 2,20,21
 634 1420 634 1420 640.5 1429 c 128,-1,22
 647 1438 647 1438 660 1438 c 2,23,-1
 807 1438 l 2,24,25
 820 1438 820 1438 826 1429.5 c 128,-1,26
 832 1421 832 1421 832 1391 c 2,27,-1
 832 47 l 2,28,29
 832 17 832 17 826 8.5 c 128,-1,30
 820 0 820 0 807 0 c 2,31,-1
 660 0 l 2,32,33
 651 0 651 0 646 2.5 c 128,-1,34
 641 5 641 5 637 16 c 128,-1,35
 633 27 633 27 633 47 c 2,36,-1
 633 658 l 2,37,38
 633 679 633 679 622 679 c 2,39,-1
 325 679 l 2,40,41
 315 679 315 679 315 658 c 2,42,-1
 315 47 l 2,43,44
 315 18 315 18 308.5 9 c 128,-1,45
 302 0 302 0 289 0 c 2,46,-1
 142 0 l 2,0,1
EndSplineSet
EndChar

StartChar: I
Encoding: 73 73 44
Width: 430
GlyphClass: 2
Flags: W
LayerCount: 2
Fore
SplineSet
143 0 m 2,0,1
 134 0 134 0 129 2.5 c 128,-1,2
 124 5 124 5 120.5 16 c 128,-1,3
 117 27 117 27 117 47 c 2,4,-1
 117 1391 l 2,5,6
 117 1420 117 1420 123.5 1429 c 128,-1,7
 130 1438 130 1438 143 1438 c 2,8,-1
 290 1438 l 2,9,10
 298 1438 298 1438 303 1435.5 c 128,-1,11
 308 1433 308 1433 311.5 1422 c 128,-1,12
 315 1411 315 1411 315 1391 c 2,13,-1
 315 47 l 2,14,15
 315 18 315 18 309 9 c 128,-1,16
 303 0 303 0 290 0 c 2,17,-1
 143 0 l 2,0,1
EndSplineSet
EndChar

StartChar: J
Encoding: 74 74 45
Width: 534
GlyphClass: 2
Flags: W
LayerCount: 2
Fore
SplineSet
63 -155 m 0,0,1
 50 -155 50 -155 50 -124 c 2,2,-1
 50 5 l 2,3,4
 50 37 50 37 63 39 c 1,5,6
 88 40 88 40 101 42 c 128,-1,7
 114 44 114 44 132.5 50 c 128,-1,8
 151 56 151 56 160 67.5 c 128,-1,9
 169 79 169 79 181 99 c 128,-1,10
 193 119 193 119 198 149.5 c 128,-1,11
 203 180 203 180 208.5 224 c 128,-1,12
 214 268 214 268 216 327.5 c 128,-1,13
 218 387 218 387 218 464 c 2,14,-1
 218 1395 l 2,15,16
 218 1438 218 1438 234 1438 c 2,17,-1
 399 1438 l 2,18,19
 416 1438 416 1438 416 1395 c 2,20,-1
 416 412 l 2,21,22
 416 252 416 252 395.5 142 c 128,-1,23
 375 32 375 32 347.5 -25.5 c 128,-1,24
 320 -83 320 -83 267 -113.5 c 128,-1,25
 214 -144 214 -144 173.5 -149.5 c 128,-1,26
 133 -155 133 -155 63 -155 c 0,0,1
EndSplineSet
EndChar

StartChar: K
Encoding: 75 75 46
Width: 814
GlyphClass: 2
Flags: W
LayerCount: 2
Fore
SplineSet
141 0 m 2,0,1
 116 0 116 0 116 54 c 2,2,-1
 116 1384 l 2,3,4
 116 1438 116 1438 141 1438 c 2,5,-1
 287 1438 l 2,6,7
 313 1438 313 1438 313 1384 c 2,8,-1
 313 725 l 1,9,-1
 558 1387 l 2,10,11
 576 1438 576 1438 601 1438 c 2,12,-1
 749 1438 l 2,13,14
 770 1438 770 1438 770 1415 c 0,15,16
 770 1401 770 1401 764 1386 c 2,17,-1
 522 770 l 1,18,19
 515 746 515 746 515 733 c 128,-1,20
 515 720 515 720 519 705 c 1,21,-1
 777 55 l 2,22,23
 784 37 784 37 784 23 c 0,24,25
 784 0 784 0 771 0 c 2,26,-1
 625 0 l 2,27,28
 598 0 598 0 578 52 c 1,29,-1
 314 678 l 1,30,-1
 314 52 l 2,31,32
 314 0 314 0 287 0 c 2,33,-1
 141 0 l 2,0,1
EndSplineSet
EndChar

StartChar: L
Encoding: 76 76 47
Width: 652
GlyphClass: 2
Flags: W
LayerCount: 2
Fore
SplineSet
141 0 m 2,0,1
 128 0 128 0 122 8.5 c 128,-1,2
 116 17 116 17 116 47 c 2,3,-1
 116 1391 l 2,4,5
 116 1421 116 1421 122 1429.5 c 128,-1,6
 128 1438 128 1438 141 1438 c 2,7,-1
 288 1438 l 2,8,9
 301 1438 301 1438 307 1429.5 c 128,-1,10
 313 1421 313 1421 313 1391 c 2,11,-1
 313 181 l 2,12,13
 313 159 313 159 327 159 c 2,14,-1
 587 159 l 2,15,16
 600 159 600 159 606 152 c 128,-1,17
 612 145 612 145 612 120 c 2,18,-1
 612 40 l 2,19,20
 612 15 612 15 606 7.5 c 128,-1,21
 600 0 600 0 587 0 c 2,22,-1
 141 0 l 2,0,1
EndSplineSet
EndChar

StartChar: M
Encoding: 77 77 48
Width: 1082
GlyphClass: 2
Flags: W
LayerCount: 2
Fore
SplineSet
121 0 m 2,0,1
 97 0 97 0 97 49 c 2,2,-1
 97 54 l 1,3,-1
 142 1381 l 2,4,5
 143 1436 143 1436 167 1438 c 1,6,-1
 325 1438 l 1,7,8
 340 1437 340 1437 350 1428 c 128,-1,9
 360 1419 360 1419 365 1391 c 2,10,-1
 534 445 l 2,11,12
 535 441 535 441 537.5 439 c 128,-1,13
 540 437 540 437 542.5 439 c 128,-1,14
 545 441 545 441 545 445 c 2,15,-1
 715 1388 l 2,16,17
 724 1436 724 1436 754 1438 c 1,18,-1
 914 1438 l 1,19,20
 938 1436 938 1436 938 1381 c 1,21,-1
 985 54 l 1,22,-1
 985 48 l 2,23,24
 985 0 985 0 960 0 c 2,25,-1
 850 0 l 2,26,27
 826 0 826 0 824 54 c 2,28,-1
 793 1081 l 2,29,30
 793 1087 793 1087 790 1088 c 256,31,32
 787 1089 787 1089 786 1085 c 2,33,-1
 604 48 l 2,34,35
 596 0 596 0 570 0 c 2,36,-1
 505 0 l 2,37,38
 481 0 481 0 471 48 c 1,39,-1
 294 1080 l 2,40,41
 293 1086 293 1086 290 1082 c 0,42,43
 289 1080 289 1080 289 1076 c 2,44,-1
 257 54 l 1,45,46
 257 0 257 0 234 0 c 2,47,-1
 121 0 l 2,0,1
EndSplineSet
EndChar

StartChar: N
Encoding: 78 78 49
Width: 962
GlyphClass: 2
Flags: W
LayerCount: 2
Fore
SplineSet
142 0 m 2,0,1
 129 0 129 0 122.5 10 c 128,-1,2
 116 20 116 20 116 50 c 2,3,-1
 116 1385 l 2,4,5
 116 1438 116 1438 142 1438 c 2,6,-1
 294 1438 l 2,7,8
 315 1438 315 1438 330 1399 c 2,9,-1
 669 488 l 2,10,11
 671 481 671 481 675 492 c 1,12,-1
 676 501 l 1,13,-1
 676 1385 l 2,14,15
 676 1438 676 1438 703 1438 c 2,16,-1
 822 1438 l 2,17,18
 847 1438 847 1438 847 1385 c 2,19,-1
 847 46 l 2,20,21
 847 16 847 16 841 7.5 c 128,-1,22
 835 -1 835 -1 822 -1 c 2,23,-1
 714 -1 l 2,24,25
 704 -1 704 -1 692.5 11 c 128,-1,26
 681 23 681 23 674 41 c 2,27,-1
 297 1025 l 2,28,29
 293 1033 293 1033 291 1020 c 0,30,31
 290 1017 290 1017 290 1013 c 2,32,-1
 290 50 l 2,33,34
 290 20 290 20 283.5 10 c 128,-1,35
 277 0 277 0 263 0 c 2,36,-1
 142 0 l 2,0,1
EndSplineSet
EndChar

StartChar: O
Encoding: 79 79 50
Width: 924
GlyphClass: 2
Flags: W
LayerCount: 2
Fore
SplineSet
461 143 m 0,0,1
 531 143 531 143 568 190.5 c 128,-1,2
 605 238 605 238 622 362.5 c 128,-1,3
 639 487 639 487 639 726 c 0,4,5
 639 957 639 957 623 1076 c 128,-1,6
 607 1195 607 1195 570.5 1243.5 c 128,-1,7
 534 1292 534 1292 462 1292 c 0,8,9
 392 1292 392 1292 354.5 1242.5 c 128,-1,10
 317 1193 317 1193 301 1073 c 128,-1,11
 285 953 285 953 285 726 c 0,12,13
 285 489 285 489 302 364.5 c 128,-1,14
 319 240 319 240 355.5 191.5 c 128,-1,15
 392 143 392 143 461 143 c 0,0,1
462 -15 m 0,16,17
 379 -15 379 -15 321.5 3 c 128,-1,18
 264 21 264 21 217 68.5 c 128,-1,19
 170 116 170 116 143 200 c 128,-1,20
 116 284 116 284 101.5 412.5 c 128,-1,21
 87 541 87 541 87 726 c 0,22,23
 87 874 87 874 96.5 986 c 128,-1,24
 106 1098 106 1098 127.5 1179 c 128,-1,25
 149 1260 149 1260 178 1313 c 128,-1,26
 207 1366 207 1366 251 1397.5 c 128,-1,27
 295 1429 295 1429 345 1441.5 c 128,-1,28
 395 1454 395 1454 462 1454 c 0,29,30
 543 1454 543 1454 600.5 1435.5 c 128,-1,31
 658 1417 658 1417 705 1370 c 128,-1,32
 752 1323 752 1323 780 1240.5 c 128,-1,33
 808 1158 808 1158 822.5 1031.5 c 128,-1,34
 837 905 837 905 837 726 c 0,35,36
 837 540 837 540 823 411 c 128,-1,37
 809 282 809 282 782 198 c 128,-1,38
 755 114 755 114 708 67.5 c 128,-1,39
 661 21 661 21 603.5 3 c 128,-1,40
 546 -15 546 -15 462 -15 c 0,16,17
EndSplineSet
EndChar

StartChar: P
Encoding: 80 80 51
Width: 866
GlyphClass: 2
Flags: W
LayerCount: 2
Fore
SplineSet
141 0 m 2,0,1
 116 0 116 0 116 52 c 2,2,-1
 116 1391 l 2,3,4
 116 1420 116 1420 122 1429 c 128,-1,5
 128 1438 128 1438 141 1438 c 2,6,-1
 435 1438 l 2,7,8
 481 1438 481 1438 514.5 1435 c 128,-1,9
 548 1432 548 1432 589.5 1421 c 128,-1,10
 631 1410 631 1410 660 1390.5 c 128,-1,11
 689 1371 689 1371 718.5 1335.5 c 128,-1,12
 748 1300 748 1300 766 1251 c 128,-1,13
 784 1202 784 1202 795.5 1129.5 c 128,-1,14
 807 1057 807 1057 807 965 c 0,15,16
 807 845 807 845 787.5 758 c 128,-1,17
 768 671 768 671 738 622 c 128,-1,18
 708 573 708 573 660.5 544.5 c 128,-1,19
 613 516 613 516 569 508 c 128,-1,20
 525 500 525 500 466 500 c 2,21,-1
 324 500 l 2,22,23
 313 500 313 500 313 482 c 2,24,-1
 313 52 l 2,25,26
 313 0 313 0 288 0 c 2,27,-1
 141 0 l 2,0,1
323 660 m 2,28,-1
 443 660 l 2,29,30
 484 660 484 660 510 666.5 c 128,-1,31
 536 673 536 673 557 691 c 128,-1,32
 578 709 578 709 588.5 744 c 128,-1,33
 599 779 599 779 604.5 831.5 c 128,-1,34
 610 884 610 884 610 964 c 0,35,36
 610 1050 610 1050 600.5 1109.5 c 128,-1,37
 591 1169 591 1169 577 1202 c 128,-1,38
 563 1235 563 1235 536.5 1252.5 c 128,-1,39
 510 1270 510 1270 486 1274.5 c 128,-1,40
 462 1279 462 1279 424 1279 c 2,41,-1
 323 1279 l 2,42,43
 313 1279 313 1279 313 1259 c 2,44,-1
 313 678 l 2,45,46
 313 660 313 660 323 660 c 2,28,-1
EndSplineSet
EndChar

StartChar: Q
Encoding: 81 81 52
Width: 952
GlyphClass: 2
Flags: W
LayerCount: 2
Fore
SplineSet
542 -346 m 2,0,-1
 468 -15 l 1,1,2
 447 -17 447 -17 430 -16 c 0,3,4
 356 -11 356 -11 304.5 10 c 128,-1,5
 253 31 253 31 209.5 80 c 128,-1,6
 166 129 166 129 140.5 211.5 c 128,-1,7
 115 294 115 294 101 420 c 128,-1,8
 87 546 87 546 87 722 c 0,9,10
 87 903 87 903 103.5 1031.5 c 128,-1,11
 120 1160 120 1160 149.5 1242 c 128,-1,12
 179 1324 179 1324 228.5 1371.5 c 128,-1,13
 278 1419 278 1419 336 1436.5 c 128,-1,14
 394 1454 394 1454 476 1454 c 128,-1,15
 558 1454 558 1454 616 1436.5 c 128,-1,16
 674 1419 674 1419 724 1372.5 c 128,-1,17
 774 1326 774 1326 803 1244 c 128,-1,18
 832 1162 832 1162 848.5 1033 c 128,-1,19
 865 904 865 904 865 722 c 0,20,21
 865 472 865 472 837.5 320 c 128,-1,22
 810 168 810 168 757.5 96.5 c 128,-1,23
 705 25 705 25 617 -1 c 1,24,25
 622 -28 622 -28 640 -108.5 c 128,-1,26
 658 -189 658 -189 672 -255.5 c 128,-1,27
 686 -322 686 -322 686 -333 c 1,28,29
 689 -352 689 -352 686 -363 c 128,-1,30
 683 -374 683 -374 669 -379 c 0,31,32
 662 -381 662 -381 625 -390 c 128,-1,33
 588 -399 588 -399 581 -399 c 0,34,35
 554 -399 554 -399 542 -346 c 2,0,-1
475 143 m 0,36,37
 547 143 547 143 586 185.5 c 128,-1,38
 625 228 625 228 646 354.5 c 128,-1,39
 667 481 667 481 667 722 c 0,40,41
 667 955 667 955 647.5 1078.5 c 128,-1,42
 628 1202 628 1202 588.5 1247 c 128,-1,43
 549 1292 549 1292 476 1292 c 0,44,45
 404 1292 404 1292 364.5 1245.5 c 128,-1,46
 325 1199 325 1199 305 1075 c 128,-1,47
 285 951 285 951 285 722 c 0,48,49
 285 542 285 542 295.5 428 c 128,-1,50
 306 314 306 314 330.5 251 c 128,-1,51
 355 188 355 188 388.5 165.5 c 128,-1,52
 422 143 422 143 475 143 c 0,36,37
EndSplineSet
EndChar

StartChar: R
Encoding: 82 82 53
Width: 924
GlyphClass: 2
Flags: W
LayerCount: 2
Fore
SplineSet
141 0 m 2,0,1
 128 0 128 0 122 8.5 c 128,-1,2
 116 17 116 17 116 45 c 2,3,-1
 116 1392 l 2,4,5
 116 1422 116 1422 122 1430 c 128,-1,6
 128 1438 128 1438 141 1438 c 2,7,-1
 477 1438 l 2,8,9
 540 1438 540 1438 584.5 1431 c 128,-1,10
 629 1424 629 1424 676 1401 c 128,-1,11
 723 1378 723 1378 751.5 1337 c 128,-1,12
 780 1296 780 1296 798.5 1225 c 128,-1,13
 817 1154 817 1154 817 1054 c 0,14,15
 817 979 817 979 806 923.5 c 128,-1,16
 795 868 795 868 773 833.5 c 128,-1,17
 751 799 751 799 725.5 779 c 128,-1,18
 700 759 700 759 664 745 c 1,19,20
 661 742 661 742 661 739 c 128,-1,21
 661 736 661 736 664 734 c 0,22,23
 700 717 700 717 722.5 699 c 128,-1,24
 745 681 745 681 768 646.5 c 128,-1,25
 791 612 791 612 803 553 c 128,-1,26
 815 494 815 494 818 408 c 1,27,28
 822 330 822 330 822 50 c 0,29,30
 822 0 822 0 804 0 c 0,31,32
 649 -1 649 -1 645 -1 c 0,33,34
 629 -1 629 -1 628 44 c 0,35,36
 628 51 628 51 622 268 c 128,-1,37
 616 485 616 485 609 518 c 1,38,39
 606 559 606 559 592.5 586.5 c 128,-1,40
 579 614 579 614 557.5 626.5 c 128,-1,41
 536 639 536 639 515 643.5 c 128,-1,42
 494 648 494 648 467 648 c 2,43,-1
 324 648 l 2,44,45
 313 648 313 648 313 626 c 2,46,-1
 313 45 l 2,47,48
 313 17 313 17 307 8.5 c 128,-1,49
 301 0 301 0 288 0 c 2,50,-1
 141 0 l 2,0,1
323 804 m 2,51,-1
 452 804 l 2,52,53
 619 804 619 804 619 1047 c 0,54,55
 619 1176 619 1176 573.5 1227.5 c 128,-1,56
 528 1279 528 1279 421 1279 c 2,57,-1
 324 1279 l 2,58,59
 313 1279 313 1279 313 1259 c 2,60,-1
 313 831 l 2,61,62
 313 804 313 804 323 804 c 2,51,-1
EndSplineSet
EndChar

StartChar: S
Encoding: 83 83 54
Width: 776
GlyphClass: 2
Flags: W
LayerCount: 2
Fore
SplineSet
407 1454 m 0,0,1
 595 1454 595 1454 700 1317 c 0,2,3
 710 1304 710 1304 710 1286 c 0,4,5
 710 1251 710 1251 680.5 1212 c 128,-1,6
 651 1173 651 1173 631 1173 c 0,7,8
 625 1173 625 1173 622 1177 c 0,9,10
 533 1285 533 1285 410 1285 c 0,11,12
 341 1285 341 1285 299 1226.5 c 128,-1,13
 257 1168 257 1168 257 1084 c 0,14,15
 257 1005 257 1005 293 955 c 128,-1,16
 329 905 329 905 396 862 c 2,17,-1
 523 780 l 2,18,19
 724 650 724 650 724 400 c 0,20,21
 724 217 724 217 631 101 c 128,-1,22
 538 -15 538 -15 381 -15 c 0,23,24
 169 -15 169 -15 47 168 c 0,25,26
 41 177 41 177 41 191 c 0,27,28
 41 226 41 226 69.5 267.5 c 128,-1,29
 98 309 98 309 124 309 c 0,30,31
 134 309 134 309 142 300 c 0,32,33
 254 157 254 157 381 157 c 0,34,35
 459 157 459 157 503 217.5 c 128,-1,36
 547 278 547 278 547 371 c 0,37,38
 547 455 547 455 512 507.5 c 128,-1,39
 477 560 477 560 405 607 c 1,40,-1
 277 693 l 2,41,42
 235 721 235 721 204 751 c 128,-1,43
 173 781 173 781 144.5 823.5 c 128,-1,44
 116 866 116 866 100.5 923.5 c 128,-1,45
 85 981 85 981 85 1050 c 0,46,47
 85 1230 85 1230 172.5 1342 c 128,-1,48
 260 1454 260 1454 407 1454 c 0,0,1
EndSplineSet
EndChar

StartChar: T
Encoding: 84 84 55
Width: 663
GlyphClass: 2
Flags: W
LayerCount: 2
Fore
SplineSet
260 0 m 2,0,1
 248 0 248 0 241.5 9.5 c 128,-1,2
 235 19 235 19 235 48 c 2,3,-1
 235 1252 l 2,4,5
 235 1277 235 1277 224 1277 c 2,6,-1
 50 1277 l 2,7,8
 40 1277 40 1277 35.5 1278.5 c 128,-1,9
 31 1280 31 1280 27.5 1288.5 c 128,-1,10
 24 1297 24 1297 24 1315 c 2,11,-1
 24 1394 l 2,12,13
 24 1421 24 1421 30 1429.5 c 128,-1,14
 36 1438 36 1438 50 1438 c 2,15,-1
 615 1438 l 2,16,17
 628 1438 628 1438 634 1429.5 c 128,-1,18
 640 1421 640 1421 640 1394 c 2,19,-1
 640 1315 l 2,20,21
 640 1290 640 1290 634.5 1283.5 c 128,-1,22
 629 1277 629 1277 615 1277 c 2,23,-1
 444 1277 l 2,24,25
 433 1277 433 1277 433 1252 c 2,26,-1
 433 48 l 2,27,28
 433 18 433 18 426.5 9 c 128,-1,29
 420 0 420 0 407 0 c 2,30,-1
 260 0 l 2,0,1
EndSplineSet
EndChar

StartChar: U
Encoding: 85 85 56
Width: 953
GlyphClass: 2
Flags: W
LayerCount: 2
Fore
SplineSet
480 -15 m 0,0,1
 426 -15 426 -15 387 -10.5 c 128,-1,2
 348 -6 348 -6 306 8.5 c 128,-1,3
 264 23 264 23 235 49 c 128,-1,4
 206 75 206 75 178.5 119.5 c 128,-1,5
 151 164 151 164 135 227 c 128,-1,6
 119 290 119 290 109.5 379 c 128,-1,7
 100 468 100 468 100 583 c 2,8,-1
 100 1391 l 2,9,10
 100 1420 100 1420 106.5 1429 c 128,-1,11
 113 1438 113 1438 126 1438 c 2,12,-1
 273 1438 l 2,13,14
 281 1438 281 1438 286 1435.5 c 128,-1,15
 291 1433 291 1433 294.5 1422 c 128,-1,16
 298 1411 298 1411 298 1391 c 2,17,-1
 298 589 l 2,18,19
 298 471 298 471 305 391 c 128,-1,20
 312 311 312 311 325 262 c 128,-1,21
 338 213 338 213 361.5 187.5 c 128,-1,22
 385 162 385 162 411 153.5 c 128,-1,23
 437 145 437 145 479 145 c 0,24,25
 532 145 532 145 561 157 c 128,-1,26
 590 169 590 169 614 214 c 128,-1,27
 638 259 638 259 646.5 348 c 128,-1,28
 655 437 655 437 655 589 c 2,29,-1
 655 1391 l 2,30,31
 655 1421 655 1421 661 1429.5 c 128,-1,32
 667 1438 667 1438 680 1438 c 2,33,-1
 828 1438 l 2,34,35
 836 1438 836 1438 840.5 1435.5 c 128,-1,36
 845 1433 845 1433 848.5 1422 c 128,-1,37
 852 1411 852 1411 852 1391 c 2,38,-1
 852 583 l 2,39,40
 852 467 852 467 842.5 376.5 c 128,-1,41
 833 286 833 286 817 223.5 c 128,-1,42
 801 161 801 161 773.5 117 c 128,-1,43
 746 73 746 73 717.5 47.5 c 128,-1,44
 689 22 689 22 647.5 7.5 c 128,-1,45
 606 -7 606 -7 569 -11 c 128,-1,46
 532 -15 532 -15 480 -15 c 0,0,1
EndSplineSet
EndChar

StartChar: V
Encoding: 86 86 57
Width: 800
GlyphClass: 2
Flags: W
LayerCount: 2
Fore
SplineSet
332 0 m 1,0,1
 307 2 307 2 295 64 c 2,2,-1
 45 1371 l 1,3,4
 43 1389 43 1389 43 1396 c 0,5,6
 43 1438 43 1438 59 1438 c 2,7,-1
 206 1438 l 2,8,9
 232 1438 232 1438 243 1373 c 2,10,-1
 416 326 l 1,11,-1
 584 1373 l 2,12,13
 594 1438 594 1438 621 1438 c 2,14,-1
 742 1438 l 2,15,16
 757 1438 757 1438 757 1399 c 0,17,18
 757 1381 757 1381 755 1371 c 2,19,-1
 516 64 l 2,20,21
 505 2 505 2 479 0 c 1,22,-1
 332 0 l 1,0,1
EndSplineSet
EndChar

StartChar: W
Encoding: 87 87 58
Width: 1130
GlyphClass: 2
Flags: W
LayerCount: 2
Fore
SplineSet
272 0 m 1,0,1
 246 2 246 2 236 69 c 2,2,-1
 55 1369 l 2,3,4
 53 1379 53 1379 53 1397 c 0,5,6
 53 1438 53 1438 69 1438 c 2,7,-1
 200 1438 l 2,8,9
 212 1438 212 1438 222 1419 c 128,-1,10
 232 1400 232 1400 236 1368 c 2,11,-1
 347 419 l 1,12,-1
 482 1365 l 2,13,14
 486 1396 486 1396 496.5 1412.5 c 128,-1,15
 507 1429 507 1429 519 1429 c 2,16,-1
 627 1429 l 1,17,18
 653 1426 653 1426 662 1365 c 2,19,-1
 805 399 l 1,20,-1
 917 1369 l 2,21,22
 921 1400 921 1400 930.5 1419 c 128,-1,23
 940 1438 940 1438 952 1438 c 2,24,-1
 1065 1438 l 2,25,26
 1081 1438 1081 1438 1081 1397 c 0,27,28
 1081 1384 1081 1384 1078 1369 c 2,29,-1
 901 69 l 2,30,31
 891 2 891 2 867 0 c 1,32,-1
 745 0 l 1,33,34
 719 2 719 2 709 70 c 2,35,-1
 559 1003 l 1,36,-1
 414 69 l 1,37,38
 406 5 406 5 382 0 c 1,39,-1
 272 0 l 1,0,1
EndSplineSet
EndChar

StartChar: X
Encoding: 88 88 59
Width: 809
GlyphClass: 2
Flags: W
LayerCount: 2
Fore
SplineSet
61 0 m 2,0,1
 50 0 50 0 50 27 c 0,2,3
 50 40 50 40 56 57 c 2,4,-1
 305 698 l 1,5,-1
 66 1379 l 1,6,7
 60 1403 60 1403 60 1411 c 0,8,9
 60 1438 60 1438 71 1438 c 2,10,-1
 264 1438 l 2,11,12
 291 1438 291 1438 310 1385 c 2,13,-1
 438 1019 l 1,14,-1
 578 1388 l 2,15,16
 597 1438 597 1438 625 1438 c 2,17,-1
 744 1438 l 2,18,19
 757 1438 757 1438 757 1411 c 0,20,21
 757 1396 757 1396 752 1386 c 1,22,-1
 520 793 l 1,23,-1
 769 59 l 2,24,25
 774 47 774 47 774 30 c 0,26,27
 774 0 774 0 761 0 c 2,28,-1
 582 0 l 2,29,30
 555 0 555 0 537 52 c 2,31,-1
 389 476 l 1,32,-1
 223 50 l 2,33,34
 203 0 203 0 178 0 c 2,35,-1
 61 0 l 2,0,1
EndSplineSet
EndChar

StartChar: Y
Encoding: 89 89 60
Width: 732
GlyphClass: 2
Flags: W
LayerCount: 2
Fore
SplineSet
295 0 m 2,0,1
 282 0 282 0 276 10.5 c 128,-1,2
 270 21 270 21 270 51 c 2,3,-1
 270 478 l 1,4,-1
 39 1378 l 1,5,6
 34 1393 34 1393 34 1407 c 0,7,8
 34 1438 34 1438 50 1438 c 2,9,-1
 198 1438 l 2,10,11
 226 1438 226 1438 240 1385 c 2,12,-1
 381 820 l 1,13,-1
 519 1384 l 2,14,15
 525 1408 525 1408 536 1423 c 128,-1,16
 547 1438 547 1438 559 1438 c 2,17,-1
 684 1438 l 2,18,19
 700 1438 700 1438 700 1406 c 0,20,21
 700 1393 700 1393 696 1378 c 2,22,-1
 468 481 l 1,23,-1
 468 51 l 2,24,25
 468 0 468 0 443 0 c 2,26,-1
 295 0 l 2,0,1
EndSplineSet
EndChar

StartChar: Z
Encoding: 90 90 61
Width: 715
GlyphClass: 2
Flags: W
LayerCount: 2
Fore
SplineSet
108 0 m 2,0,1
 100 0 100 0 95 2 c 128,-1,2
 90 4 90 4 86.5 13 c 128,-1,3
 83 22 83 22 83 40 c 2,4,-1
 83 100 l 2,5,6
 83 135 83 135 99 185 c 1,7,-1
 411 1245 l 1,8,9
 415 1253 415 1253 415 1263 c 0,10,11
 415 1279 415 1279 408 1279 c 2,12,-1
 117 1279 l 2,13,14
 108 1279 108 1279 103.5 1281 c 128,-1,15
 99 1283 99 1283 95.5 1292 c 128,-1,16
 92 1301 92 1301 92 1319 c 2,17,-1
 92 1398 l 2,18,19
 92 1423 92 1423 98 1430.5 c 128,-1,20
 104 1438 104 1438 117 1438 c 2,21,-1
 624 1438 l 2,22,23
 632 1438 632 1438 637 1436 c 128,-1,24
 642 1434 642 1434 645.5 1425 c 128,-1,25
 649 1416 649 1416 649 1398 c 2,26,-1
 649 1353 l 2,27,28
 649 1312 649 1312 632 1251 c 1,29,-1
 316 189 l 2,30,31
 314 179 314 179 314 173 c 0,32,33
 314 159 314 159 320 159 c 2,34,-1
 636 159 l 2,35,36
 637 159 637 159 640 159 c 0,37,38
 648 159 648 159 651.5 158 c 128,-1,39
 655 157 655 157 658.5 149 c 128,-1,40
 662 141 662 141 662 125 c 2,41,-1
 662 40 l 2,42,43
 662 15 662 15 655.5 7.5 c 128,-1,44
 649 0 649 0 636 0 c 2,45,-1
 108 0 l 2,0,1
EndSplineSet
EndChar

StartChar: bracketleft
Encoding: 91 91 62
Width: 583
GlyphClass: 2
Flags: W
LayerCount: 2
Fore
SplineSet
144 -125 m 2,0,1
 116 -125 116 -125 117 -64 c 1,2,-1
 117 1408 l 1,3,4
 116 1466 116 1466 144 1466 c 2,5,-1
 455 1466 l 2,6,7
 481 1466 481 1466 481 1415 c 2,8,-1
 481 1307 l 2,9,10
 481 1256 481 1256 456 1256 c 2,11,-1
 326 1256 l 2,12,13
 314 1256 314 1256 314 1223 c 2,14,-1
 314 112 l 2,15,16
 314 80 314 80 326 80 c 2,17,-1
 455 80 l 2,18,19
 481 80 481 80 481 22 c 2,20,-1
 481 -71 l 2,21,22
 481 -125 481 -125 455 -125 c 2,23,-1
 144 -125 l 2,0,1
EndSplineSet
EndChar

StartChar: backslash
Encoding: 92 92 63
Width: 581
GlyphClass: 2
Flags: W
LayerCount: 2
Fore
SplineSet
345 -206 m 2,0,1
 334 -206 334 -206 329 -171 c 2,2,-1
 94 1612 l 2,3,4
 94 1613 94 1613 93.5 1616 c 128,-1,5
 93 1619 93 1619 93 1621 c 0,6,7
 93 1647 93 1647 102 1647 c 2,8,-1
 241 1647 l 2,9,10
 254 1647 254 1647 257 1612 c 1,11,-1
 491 -170 l 2,12,13
 492 -174 492 -174 492 -181 c 0,14,15
 492 -205 492 -205 484 -205 c 2,16,-1
 345 -206 l 2,0,1
EndSplineSet
EndChar

StartChar: bracketright
Encoding: 93 93 64
Width: 584
GlyphClass: 2
Flags: W
LayerCount: 2
Fore
SplineSet
129 -128 m 2,0,1
 116 -128 116 -128 109.5 -118 c 128,-1,2
 103 -108 103 -108 103 -78 c 2,3,-1
 103 48 l 2,4,5
 103 99 103 99 129 99 c 2,6,-1
 258 99 l 2,7,8
 269 99 269 99 269 132 c 2,9,-1
 269 1210 l 2,10,11
 269 1242 269 1242 258 1242 c 2,12,-1
 129 1242 l 2,13,14
 103 1242 103 1242 103 1301 c 2,15,-1
 103 1409 l 2,16,17
 103 1466 103 1466 129 1466 c 2,18,-1
 441 1466 l 2,19,20
 452 1466 452 1466 460 1449.5 c 128,-1,21
 468 1433 468 1433 467 1402 c 1,22,-1
 467 -71 l 1,23,24
 468 -128 468 -128 441 -128 c 2,25,-1
 129 -128 l 2,0,1
EndSplineSet
EndChar

StartChar: asciicircum
Encoding: 94 94 65
Width: 1030
GlyphClass: 2
Flags: W
LayerCount: 2
Fore
SplineSet
118 351 m 2,0,1
 90 351 90 351 90 380 c 0,2,3
 90 397 90 397 98 418 c 2,4,-1
 409 1290 l 1,5,6
 423 1326 423 1326 439 1341.5 c 128,-1,7
 455 1357 455 1357 488 1357 c 2,8,-1
 539 1357 l 2,9,10
 571 1357 571 1357 585.5 1342 c 128,-1,11
 600 1327 600 1327 616 1289 c 1,12,-1
 933 419 l 2,13,14
 941 395 941 395 941 382 c 0,15,16
 941 351 941 351 912 351 c 2,17,-1
 834 351 l 2,18,19
 813 351 813 351 798.5 366 c 128,-1,20
 784 381 784 381 772 420 c 1,21,-1
 534 1100 l 2,22,23
 528 1119 528 1119 524 1125 c 128,-1,24
 520 1131 520 1131 513 1131 c 128,-1,25
 506 1131 506 1131 502 1125 c 128,-1,26
 498 1119 498 1119 492 1100 c 2,27,-1
 263 420 l 2,28,29
 250 379 250 379 236 365 c 128,-1,30
 222 351 222 351 195 351 c 2,31,-1
 118 351 l 2,0,1
EndSplineSet
EndChar

StartChar: underscore
Encoding: 95 95 66
Width: 949
GlyphClass: 2
Flags: W
LayerCount: 2
Fore
SplineSet
122 -126 m 2,0,1
 96 -126 96 -126 84 -114.5 c 128,-1,2
 72 -103 72 -103 72 -76 c 2,3,-1
 72 -29 l 2,4,5
 72 -1 72 -1 84 10 c 128,-1,6
 96 21 96 21 122 21 c 2,7,-1
 827 21 l 2,8,9
 852 21 852 21 864 10 c 128,-1,10
 876 -1 876 -1 876 -28 c 2,11,-1
 876 -76 l 2,12,13
 876 -126 876 -126 827 -126 c 2,14,-1
 122 -126 l 2,0,1
EndSplineSet
EndChar

StartChar: grave
Encoding: 96 96 67
Width: 597
GlyphClass: 2
Flags: W
LayerCount: 2
Fore
SplineSet
434 1169 m 2,0,1
 422 1169 422 1169 415 1208 c 2,2,-1
 352 1549 l 2,3,4
 348 1573 348 1573 348 1586 c 0,5,6
 348 1614 348 1614 358 1614 c 2,7,-1
 440 1614 l 2,8,9
 451 1614 451 1614 456.5 1602.5 c 128,-1,10
 462 1591 462 1591 464 1559 c 2,11,-1
 486 1236 l 2,12,13
 487 1222 487 1222 487 1201 c 0,14,15
 487 1169 487 1169 472 1169 c 2,16,-1
 434 1169 l 2,0,1
EndSplineSet
EndChar

StartChar: a
Encoding: 97 97 68
Width: 724
GlyphClass: 2
Flags: W
LayerCount: 2
Fore
SplineSet
286 -12 m 0,0,1
 187 -12 187 -12 132.5 52 c 128,-1,2
 78 116 78 116 78 238 c 0,3,4
 78 329 78 329 105.5 397 c 128,-1,5
 133 465 133 465 174.5 500 c 128,-1,6
 216 535 216 535 266 558 c 128,-1,7
 316 581 316 581 359 588 c 128,-1,8
 402 595 402 595 434.5 601.5 c 128,-1,9
 467 608 467 608 472 615 c 1,10,-1
 472 668 l 2,11,12
 472 775 472 775 448.5 828.5 c 128,-1,13
 425 882 425 882 363 882 c 0,14,15
 311 882 311 882 283.5 849.5 c 128,-1,16
 256 817 256 817 237 750 c 1,17,18
 228 722 228 722 213 724 c 1,19,20
 108 750 108 750 107 758 c 1,21,22
 101 761 101 761 100.5 781 c 128,-1,23
 100 801 100 801 105 818 c 0,24,25
 131 916 131 916 194 966.5 c 128,-1,26
 257 1017 257 1017 374 1017 c 0,27,28
 437 1017 437 1017 483.5 996.5 c 128,-1,29
 530 976 530 976 565 929 c 128,-1,30
 600 882 600 882 617.5 801.5 c 128,-1,31
 635 721 635 721 635 605 c 2,32,-1
 635 50 l 2,33,34
 635 -1 635 -1 614 -1 c 2,35,-1
 582 -1 l 2,36,37
 564 -1 564 -1 550 43 c 1,38,39
 548 53 548 53 530.5 108 c 128,-1,40
 513 163 513 163 511 174 c 0,41,42
 510 177 510 177 508.5 178 c 128,-1,43
 507 179 507 179 505 178 c 128,-1,44
 503 177 503 177 503 174 c 0,45,46
 476 82 476 82 425.5 35 c 128,-1,47
 375 -12 375 -12 286 -12 c 0,0,1
321 116 m 0,48,49
 391 116 391 116 433.5 208 c 128,-1,50
 476 300 476 300 476 428 c 0,51,52
 476 504 476 504 467 504 c 0,53,54
 449 504 449 504 437 498 c 1,55,56
 329 471 329 471 278.5 410 c 128,-1,57
 228 349 228 349 228 251 c 0,58,59
 228 116 228 116 321 116 c 0,48,49
EndSplineSet
EndChar

StartChar: b
Encoding: 98 98 69
Width: 765
GlyphClass: 2
Flags: W
LayerCount: 2
Fore
SplineSet
433 -11 m 0,0,1
 273 -11 273 -11 215 193 c 0,2,3
 213 198 213 198 211 198 c 0,4,5
 207 198 207 198 199 148.5 c 128,-1,6
 191 99 191 99 178.5 49.5 c 128,-1,7
 166 0 166 0 152 0 c 2,8,-1
 124 0 l 2,9,10
 104 0 104 0 104 62 c 2,11,-1
 104 1355 l 2,12,13
 104 1387 104 1387 111 1407.5 c 128,-1,14
 118 1428 118 1428 129 1428 c 2,15,-1
 240 1428 l 2,16,17
 251 1428 251 1428 258 1407.5 c 128,-1,18
 265 1387 265 1387 265 1355 c 2,19,-1
 265 884 l 2,20,21
 265 869 265 869 270 869 c 128,-1,22
 275 869 275 869 277 876 c 0,23,24
 305 947 305 947 349.5 982.5 c 128,-1,25
 394 1018 394 1018 446 1018 c 0,26,27
 493 1018 493 1018 534 991.5 c 128,-1,28
 575 965 575 965 610 908 c 128,-1,29
 645 851 645 851 665 746.5 c 128,-1,30
 685 642 685 642 685 500 c 0,31,32
 685 365 685 365 663.5 262.5 c 128,-1,33
 642 160 642 160 605 102.5 c 128,-1,34
 568 45 568 45 524.5 17 c 128,-1,35
 481 -11 481 -11 433 -11 c 0,0,1
399 125 m 0,36,37
 518 125 518 125 518 511 c 0,38,39
 518 689 518 689 486 785.5 c 128,-1,40
 454 882 454 882 398 882 c 0,41,42
 340 882 340 882 302.5 779.5 c 128,-1,43
 265 677 265 677 265 511 c 128,-1,44
 265 345 265 345 302.5 235 c 128,-1,45
 340 125 340 125 399 125 c 0,36,37
EndSplineSet
EndChar

StartChar: c
Encoding: 99 99 70
Width: 582
GlyphClass: 2
Flags: W
LayerCount: 2
Fore
SplineSet
395 -11 m 0,0,1
 359 -11 359 -11 329.5 -7 c 128,-1,2
 300 -3 300 -3 266.5 10.5 c 128,-1,3
 233 24 233 24 207.5 46.5 c 128,-1,4
 182 69 182 69 157 108.5 c 128,-1,5
 132 148 132 148 116 202 c 128,-1,6
 100 256 100 256 90.5 334 c 128,-1,7
 81 412 81 412 81 509 c 0,8,9
 81 634 81 634 98 727.5 c 128,-1,10
 115 821 115 821 142.5 875.5 c 128,-1,11
 170 930 170 930 210.5 963 c 128,-1,12
 251 996 251 996 290 1007 c 128,-1,13
 329 1018 329 1018 377 1018 c 0,14,15
 438 1018 438 1018 511 995 c 0,16,17
 515 994 515 994 519 989 c 128,-1,18
 523 984 523 984 523 980 c 2,19,-1
 523 874 l 1,20,21
 524 867 524 867 520 861.5 c 128,-1,22
 516 856 516 856 511 858 c 0,23,24
 450 876 450 876 419 876 c 0,25,26
 390 876 390 876 370 871 c 128,-1,27
 350 866 350 866 326.5 845.5 c 128,-1,28
 303 825 303 825 288.5 787 c 128,-1,29
 274 749 274 749 264.5 678.5 c 128,-1,30
 255 608 255 608 255 509 c 0,31,32
 255 405 255 405 264 332.5 c 128,-1,33
 273 260 273 260 286 221 c 128,-1,34
 299 182 299 182 322.5 161.5 c 128,-1,35
 346 141 346 141 366 136.5 c 128,-1,36
 386 132 386 132 419 132 c 0,37,38
 459 132 459 132 511 148 c 1,39,40
 515 147 515 147 519.5 140 c 128,-1,41
 524 133 524 133 524 127 c 2,42,-1
 524 28 l 2,43,44
 524 11 524 11 511 7 c 0,45,46
 456 -10 456 -10 395 -11 c 0,0,1
EndSplineSet
EndChar

StartChar: d
Encoding: 100 100 71
Width: 789
GlyphClass: 2
Flags: W
LayerCount: 2
Fore
SplineSet
342 -11 m 0,0,1
 79 -11 79 -11 79 500 c 0,2,3
 79 1018 79 1018 335 1018 c 0,4,5
 446 1018 446 1018 499 878 c 1,6,7
 506 868 506 868 507 868 c 0,8,9
 511 868 511 868 511 881 c 2,10,-1
 511 1368 l 2,11,12
 511 1428 511 1428 536 1428 c 2,13,-1
 660 1428 l 2,14,15
 685 1428 685 1428 685 1368 c 2,16,-1
 685 67 l 2,17,18
 685 0 685 0 661 0 c 2,19,-1
 632 0 l 2,20,21
 610 0 610 0 598 60 c 1,22,23
 571 214 571 214 566 216 c 1,24,25
 563 213 563 213 559 204 c 1,26,27
 532 80 532 80 477 34.5 c 128,-1,28
 422 -11 422 -11 342 -11 c 0,0,1
510 511 m 0,29,30
 510 700 510 700 476 791 c 128,-1,31
 442 882 442 882 381 882 c 0,32,33
 351 882 351 882 329.5 866.5 c 128,-1,34
 308 851 308 851 290 812 c 128,-1,35
 272 773 272 773 263 697.5 c 128,-1,36
 254 622 254 622 254 511 c 0,37,38
 254 356 254 356 270 269 c 128,-1,39
 286 182 286 182 312 153.5 c 128,-1,40
 338 125 338 125 380 125 c 0,41,42
 510 125 510 125 510 511 c 0,29,30
EndSplineSet
EndChar

StartChar: e
Encoding: 101 101 72
Width: 695
GlyphClass: 2
Flags: W
LayerCount: 2
Fore
SplineSet
623 242 m 2,0,1
 623 131 623 131 563 60 c 128,-1,2
 503 -11 503 -11 385 -11 c 0,3,4
 338 -11 338 -11 299 -0.5 c 128,-1,5
 260 10 260 10 218 43 c 128,-1,6
 176 76 176 76 147 130.5 c 128,-1,7
 118 185 118 185 99.5 280.5 c 128,-1,8
 81 376 81 376 81 504 c 0,9,10
 81 633 81 633 99 728.5 c 128,-1,11
 117 824 117 824 145 878.5 c 128,-1,12
 173 933 173 933 213.5 965.5 c 128,-1,13
 254 998 254 998 291 1008 c 128,-1,14
 328 1018 328 1018 373 1018 c 0,15,16
 631 1018 631 1018 631 536 c 0,17,18
 631 466 631 466 606 466 c 2,19,-1
 258 466 l 2,20,21
 250 466 250 466 250 441 c 0,22,23
 251 289 251 289 286.5 207 c 128,-1,24
 322 125 322 125 390 125 c 0,25,26
 423 125 423 125 445.5 140 c 128,-1,27
 468 155 468 155 479 184 c 128,-1,28
 490 213 490 213 494.5 234.5 c 128,-1,29
 499 256 499 256 502 288 c 0,30,31
 505 310 505 310 519 310 c 2,32,-1
 600 310 l 2,33,34
 623 310 623 310 623 258 c 2,35,-1
 623 242 l 2,0,1
255 572 m 2,36,-1
 484 572 l 2,37,38
 486 572 486 572 486 597 c 0,39,40
 478 883 478 883 372 883 c 0,41,42
 323 883 323 883 290 820 c 128,-1,43
 257 757 257 757 251 622 c 1,44,45
 251 572 251 572 255 572 c 2,36,-1
EndSplineSet
EndChar

StartChar: f
Encoding: 102 102 73
Width: 485
GlyphClass: 2
Flags: W
LayerCount: 2
Fore
SplineSet
152 0 m 2,0,1
 126 0 126 0 126 61 c 2,2,-1
 126 825 l 2,3,4
 126 857 126 857 119 857 c 2,5,-1
 67 857 l 2,6,7
 55 857 55 857 49.5 865 c 128,-1,8
 44 873 44 873 44 898 c 2,9,-1
 44 959 l 2,10,11
 44 1006 44 1006 67 1006 c 2,12,-1
 119 1006 l 2,13,14
 126 1006 126 1006 126 1041 c 0,15,16
 126 1170 126 1170 140.5 1254.5 c 128,-1,17
 155 1339 155 1339 186 1383 c 128,-1,18
 217 1427 217 1427 254.5 1443 c 128,-1,19
 292 1459 292 1459 347 1459 c 0,20,21
 416 1459 416 1459 444 1453 c 0,22,23
 467 1449 467 1449 467 1417 c 2,24,-1
 467 1352 l 2,25,26
 467 1324 467 1324 465 1315.5 c 128,-1,27
 463 1307 463 1307 454 1307 c 2,28,-1
 391 1307 l 2,29,30
 338 1307 338 1307 316 1262.5 c 128,-1,31
 294 1218 294 1218 294 1100 c 2,32,-1
 294 1012 l 2,33,34
 294 1006 294 1006 297 1006 c 2,35,-1
 438 1006 l 2,36,37
 460 1006 460 1006 460 964 c 2,38,-1
 460 898 l 2,39,40
 460 874 460 874 454.5 865.5 c 128,-1,41
 449 857 449 857 438 857 c 2,42,-1
 302 857 l 2,43,44
 294 857 294 857 294 825 c 2,45,-1
 294 61 l 2,46,47
 294 0 294 0 268 0 c 2,48,-1
 152 0 l 2,0,1
EndSplineSet
EndChar

StartChar: g
Encoding: 103 103 74
Width: 799
GlyphClass: 2
Flags: W
LayerCount: 2
Fore
SplineSet
436 456 m 128,-1,1
 498 456 498 456 530.5 513 c 128,-1,2
 563 570 563 570 563 670 c 0,3,4
 563 775 563 775 525.5 841.5 c 128,-1,5
 488 908 488 908 427 908 c 0,6,7
 368 908 368 908 333.5 846.5 c 128,-1,8
 299 785 299 785 299 682 c 0,9,10
 299 573 299 573 336.5 514.5 c 128,-1,0
 374 456 374 456 436 456 c 128,-1,1
425 -202 m 0,11,12
 524 -202 524 -202 574 -159.5 c 128,-1,13
 624 -117 624 -117 624 -38 c 0,14,15
 624 27 624 27 588.5 48 c 128,-1,16
 553 69 553 69 488 69 c 2,17,-1
 374 69 l 2,18,19
 365 69 365 69 349 44.5 c 128,-1,20
 333 20 333 20 319 -21.5 c 128,-1,21
 305 -63 305 -63 305 -101 c 0,22,23
 305 -202 305 -202 425 -202 c 0,11,12
411 -307 m 0,24,25
 287 -307 287 -307 219 -263 c 128,-1,26
 151 -219 151 -219 151 -139 c 0,27,28
 151 -47 151 -47 236 80 c 0,29,30
 240 85 240 85 240 94 c 0,31,32
 240 105 240 105 234 109 c 0,33,34
 231 110 231 110 217.5 115.5 c 128,-1,35
 204 121 204 121 201 122 c 128,-1,36
 198 123 198 123 187 128 c 128,-1,37
 176 133 176 133 173.5 135.5 c 128,-1,38
 171 138 171 138 162.5 143.5 c 128,-1,39
 154 149 154 149 152 153.5 c 128,-1,40
 150 158 150 158 145 165.5 c 128,-1,41
 140 173 140 173 138.5 180.5 c 128,-1,42
 137 188 137 188 135.5 198 c 128,-1,43
 134 208 134 208 134 219 c 0,44,45
 134 266 134 266 147 304.5 c 128,-1,46
 160 343 160 343 170.5 358.5 c 128,-1,47
 181 374 181 374 208 407 c 0,48,49
 215 417 215 417 215 426 c 0,50,51
 215 437 215 437 209 444 c 0,52,53
 177 479 177 479 152 541 c 128,-1,54
 127 603 127 603 127 674 c 0,55,56
 127 829 127 829 200.5 923.5 c 128,-1,57
 274 1018 274 1018 418 1018 c 0,58,59
 444 1018 444 1018 488 1007 c 0,60,61
 498 1005 498 1005 502 1008 c 128,-1,62
 506 1011 506 1011 507 1022 c 2,63,-1
 517 1280 l 2,64,65
 518 1300 518 1300 523 1310 c 128,-1,66
 528 1320 528 1320 533 1322 c 128,-1,67
 538 1324 538 1324 548 1324 c 2,68,-1
 629 1324 l 2,69,70
 636 1324 636 1324 640 1308 c 128,-1,71
 644 1292 644 1292 641 1281 c 2,72,-1
 575 997 l 2,73,74
 571 980 571 980 574.5 973 c 128,-1,75
 578 966 578 966 591 958 c 1,76,77
 721 862 721 862 721 675 c 0,78,79
 721 518 721 518 651 432 c 128,-1,80
 581 346 581 346 442 346 c 0,81,82
 373 346 373 346 314 380 c 1,83,84
 300 370 300 370 286 338.5 c 128,-1,85
 272 307 272 307 272 272 c 0,86,87
 272 188 272 188 376 188 c 2,88,-1
 483 188 l 2,89,90
 633 188 633 188 699 137 c 128,-1,91
 765 86 765 86 765 -25 c 0,92,93
 765 -91 765 -91 742 -142.5 c 128,-1,94
 719 -194 719 -194 683.5 -224 c 128,-1,95
 648 -254 648 -254 599.5 -273.5 c 128,-1,96
 551 -293 551 -293 505.5 -300 c 128,-1,97
 460 -307 460 -307 411 -307 c 0,24,25
EndSplineSet
EndChar

StartChar: h
Encoding: 104 104 75
Width: 785
GlyphClass: 2
Flags: W
LayerCount: 2
Fore
SplineSet
130 0 m 2,0,1
 117 0 117 0 110.5 9.5 c 128,-1,2
 104 19 104 19 104 49 c 2,3,-1
 104 1384 l 2,4,5
 104 1437 104 1437 130 1437 c 2,6,-1
 257 1437 l 2,7,8
 282 1437 282 1437 282 1384 c 2,9,-1
 282 878 l 2,10,11
 282 863 282 863 287 863 c 0,12,13
 290 863 290 863 294 869 c 1,14,15
 325 946 325 946 378 982 c 128,-1,16
 431 1018 431 1018 485 1018 c 0,17,18
 534 1018 534 1018 570 997 c 128,-1,19
 606 976 606 976 635 927 c 128,-1,20
 664 878 664 878 679 789.5 c 128,-1,21
 694 701 694 701 694 574 c 2,22,-1
 694 49 l 2,23,24
 694 19 694 19 687.5 9.5 c 128,-1,25
 681 0 681 0 669 0 c 2,26,-1
 541 0 l 2,27,28
 528 0 528 0 522 9.5 c 128,-1,29
 516 19 516 19 516 49 c 2,30,-1
 516 595 l 2,31,32
 516 749 516 749 495 815.5 c 128,-1,33
 474 882 474 882 422 882 c 0,34,35
 363 882 363 882 322.5 799.5 c 128,-1,36
 282 717 282 717 282 588 c 2,37,-1
 282 49 l 2,38,39
 282 19 282 19 276 9.5 c 128,-1,40
 270 0 270 0 258 0 c 2,41,-1
 130 0 l 2,0,1
EndSplineSet
EndChar

StartChar: i
Encoding: 105 105 76
Width: 363
GlyphClass: 2
Flags: W
LayerCount: 2
Fore
SplineSet
133 0 m 2,0,1
 108 0 108 0 108 67 c 2,2,-1
 108 940 l 2,3,4
 108 1006 108 1006 133 1006 c 2,5,-1
 245 1006 l 2,6,7
 269 1006 269 1006 269 940 c 2,8,-1
 269 67 l 2,9,10
 269 0 269 0 245 0 c 2,11,-1
 133 0 l 2,0,1
129 1161 m 2,12,13
 104 1161 104 1161 104 1215 c 2,14,-1
 104 1344 l 2,15,16
 104 1397 104 1397 129 1397 c 2,17,-1
 248 1397 l 2,18,19
 273 1397 273 1397 273 1344 c 2,20,-1
 273 1215 l 2,21,22
 273 1161 273 1161 248 1161 c 2,23,-1
 129 1161 l 2,12,13
EndSplineSet
EndChar

StartChar: j
Encoding: 106 106 77
Width: 404
GlyphClass: 2
Flags: W
LayerCount: 2
Fore
SplineSet
34 -335 m 2,0,1
 23 -335 23 -335 16 -319 c 128,-1,2
 9 -303 9 -303 9 -277 c 2,3,-1
 9 -216 l 2,4,5
 9 -165 9 -165 33 -165 c 2,6,-1
 72 -165 l 2,7,8
 110 -165 110 -165 128 -133.5 c 128,-1,9
 146 -102 146 -102 146 -6 c 2,10,-1
 146 940 l 2,11,12
 146 1006 146 1006 171 1006 c 2,13,-1
 282 1006 l 2,14,15
 307 1006 307 1006 307 940 c 2,16,-1
 307 -3 l 2,17,18
 307 -91 307 -91 297 -154 c 128,-1,19
 287 -217 287 -217 271 -251.5 c 128,-1,20
 255 -286 255 -286 228.5 -305.5 c 128,-1,21
 202 -325 202 -325 178 -330 c 128,-1,22
 154 -335 154 -335 118 -335 c 2,23,-1
 34 -335 l 2,0,1
167 1161 m 2,24,25
 142 1161 142 1161 142 1215 c 2,26,-1
 142 1344 l 2,27,28
 142 1397 142 1397 167 1397 c 2,29,-1
 286 1397 l 2,30,31
 311 1397 311 1397 311 1344 c 2,32,-1
 311 1215 l 2,33,34
 311 1161 311 1161 286 1161 c 2,35,-1
 167 1161 l 2,24,25
EndSplineSet
EndChar

StartChar: k
Encoding: 107 107 78
Width: 706
GlyphClass: 2
Flags: W
LayerCount: 2
Fore
SplineSet
130 0 m 2,0,1
 105 0 105 0 105 61 c 2,2,-1
 105 1402 l 2,3,4
 105 1462 105 1462 130 1462 c 2,5,-1
 243 1462 l 2,6,7
 268 1462 268 1462 268 1402 c 2,8,-1
 268 550 l 2,9,10
 268 535 268 535 274 535 c 1,11,12
 277 538 l 1,13,-1
 337 680 l 1,14,-1
 473 953 l 2,15,16
 499 1006 499 1006 521 1006 c 2,17,-1
 651 1006 l 2,18,19
 660 1006 660 1006 660 984 c 0,20,21
 660 968 660 968 651 953 c 1,22,-1
 459 575 l 2,23,24
 455 568 455 568 455 556 c 0,25,26
 455 546 455 546 458 538 c 2,27,-1
 668 59 l 2,28,29
 674 45 674 45 674 29 c 0,30,31
 674 0 674 0 663 0 c 2,32,-1
 536 0 l 2,33,34
 514 0 514 0 498 48 c 1,35,-1
 345 472 l 2,36,37
 341 482 341 482 337 482 c 0,38,39
 331 482 331 482 330 475 c 1,40,41
 326 469 326 469 312.5 441.5 c 128,-1,42
 299 414 299 414 287 390 c 2,43,-1
 275 365 l 1,44,45
 268 346 268 346 268 318 c 2,46,-1
 268 61 l 2,47,48
 268 0 268 0 243 0 c 2,49,-1
 130 0 l 2,0,1
EndSplineSet
EndChar

StartChar: l
Encoding: 108 108 79
Width: 363
GlyphClass: 2
Flags: W
LayerCount: 2
Fore
SplineSet
135 0 m 2,0,1
 110 0 110 0 110 54 c 2,2,-1
 110 1402 l 2,3,4
 110 1462 110 1462 135 1462 c 2,5,-1
 247 1462 l 2,6,7
 272 1462 272 1462 272 1402 c 2,8,-1
 272 54 l 2,9,10
 272 0 272 0 247 0 c 2,11,-1
 135 0 l 2,0,1
EndSplineSet
EndChar

StartChar: m
Encoding: 109 109 80
Width: 1104
GlyphClass: 2
Flags: W
LayerCount: 2
Fore
SplineSet
129 0 m 2,0,1
 118 0 118 0 111 18.5 c 128,-1,2
 104 37 104 37 104 68 c 2,3,-1
 104 933 l 2,4,5
 104 965 104 965 110.5 985.5 c 128,-1,6
 117 1006 117 1006 128 1006 c 2,7,-1
 163 1006 l 2,8,9
 188 1006 188 1006 199 946 c 1,10,-1
 217 811 l 1,11,12
 220 799 220 799 225 799 c 0,13,14
 228 799 228 799 231 812 c 0,15,16
 282 1018 282 1018 422 1018 c 0,17,18
 550 1018 550 1018 600 828 c 0,19,20
 603 820 603 820 606 820 c 0,21,22
 612 820 612 820 613 828 c 1,23,24
 638 922 638 922 691.5 970 c 128,-1,25
 745 1018 745 1018 801 1018 c 0,26,27
 840 1018 840 1018 869 1009 c 128,-1,28
 898 1000 898 1000 926.5 973.5 c 128,-1,29
 955 947 955 947 973 902 c 128,-1,30
 991 857 991 857 1002 781 c 128,-1,31
 1013 705 1013 705 1013 602 c 2,32,-1
 1013 68 l 2,33,34
 1013 0 1013 0 988 0 c 2,35,-1
 872 0 l 2,36,37
 847 0 847 0 847 68 c 2,38,-1
 847 620 l 2,39,40
 847 772 847 772 827 827 c 128,-1,41
 807 882 807 882 760 882 c 0,42,43
 709 882 709 882 675.5 811.5 c 128,-1,44
 642 741 642 741 642 588 c 2,45,-1
 642 68 l 2,46,47
 642 37 642 37 635 18.5 c 128,-1,48
 628 0 628 0 617 0 c 2,49,-1
 502 0 l 2,50,51
 476 0 476 0 476 68 c 2,52,-1
 476 607 l 2,53,54
 476 764 476 764 455 823 c 128,-1,55
 434 882 434 882 389 882 c 0,56,57
 349 882 349 882 321.5 839.5 c 128,-1,58
 294 797 294 797 282.5 730.5 c 128,-1,59
 271 664 271 664 271 577 c 2,60,-1
 271 68 l 2,61,62
 271 37 271 37 264 18.5 c 128,-1,63
 257 0 257 0 246 0 c 2,64,-1
 129 0 l 2,0,1
EndSplineSet
EndChar

StartChar: n
Encoding: 110 110 81
Width: 789
GlyphClass: 2
Flags: W
LayerCount: 2
Fore
SplineSet
129 0 m 2,0,1
 117 0 117 0 110.5 9.5 c 128,-1,2
 104 19 104 19 104 49 c 2,3,-1
 104 946 l 2,4,5
 104 1006 104 1006 128 1006 c 2,6,-1
 171 1006 l 2,7,8
 185 1006 185 1006 194 997 c 128,-1,9
 203 988 203 988 208 959 c 2,10,-1
 228 833 l 2,11,12
 230 822 230 822 235 822 c 0,13,14
 239 822 239 822 241 832 c 0,15,16
 258 890 258 890 284.5 929 c 128,-1,17
 311 968 311 968 343 986.5 c 128,-1,18
 375 1005 375 1005 403.5 1011.5 c 128,-1,19
 432 1018 432 1018 467 1018 c 0,20,21
 522 1018 522 1018 562 998 c 128,-1,22
 602 978 602 978 633.5 930.5 c 128,-1,23
 665 883 665 883 681 796.5 c 128,-1,24
 697 710 697 710 697 585 c 2,25,-1
 697 49 l 2,26,27
 697 19 697 19 691 9.5 c 128,-1,28
 685 0 685 0 672 0 c 2,29,-1
 544 0 l 2,30,31
 531 0 531 0 525 9.5 c 128,-1,32
 519 19 519 19 519 49 c 2,33,-1
 519 607 l 2,34,35
 519 748 519 748 497.5 815 c 128,-1,36
 476 882 476 882 427 882 c 0,37,38
 365 882 365 882 324 801.5 c 128,-1,39
 283 721 283 721 283 600 c 2,40,-1
 283 49 l 2,41,42
 283 19 283 19 276.5 9.5 c 128,-1,43
 270 0 270 0 258 0 c 2,44,-1
 129 0 l 2,0,1
EndSplineSet
EndChar

StartChar: o
Encoding: 111 111 82
Width: 768
GlyphClass: 2
Flags: W
LayerCount: 2
Fore
SplineSet
385 125 m 128,-1,1
 417 125 417 125 438 138.5 c 128,-1,2
 459 152 459 152 477 190.5 c 128,-1,3
 495 229 495 229 504 307.5 c 128,-1,4
 513 386 513 386 513 506 c 0,5,6
 513 623 513 623 504 700 c 128,-1,7
 495 777 495 777 476.5 815.5 c 128,-1,8
 458 854 458 854 437 868 c 128,-1,9
 416 882 416 882 385 882 c 128,-1,10
 354 882 354 882 332.5 868 c 128,-1,11
 311 854 311 854 292.5 815.5 c 128,-1,12
 274 777 274 777 265 700.5 c 128,-1,13
 256 624 256 624 256 506 c 0,14,15
 256 386 256 386 264.5 308 c 128,-1,16
 273 230 273 230 291.5 191 c 128,-1,17
 310 152 310 152 331.5 138.5 c 128,-1,0
 353 125 353 125 385 125 c 128,-1,1
385 -11 m 128,-1,19
 352 -11 352 -11 326.5 -8 c 128,-1,20
 301 -5 301 -5 268 7 c 128,-1,21
 235 19 235 19 210.5 40 c 128,-1,22
 186 61 186 61 160 100 c 128,-1,23
 134 139 134 139 118 192 c 128,-1,24
 102 245 102 245 91.5 325.5 c 128,-1,25
 81 406 81 406 81 506 c 128,-1,26
 81 606 81 606 91.5 685.5 c 128,-1,27
 102 765 102 765 119 818 c 128,-1,28
 136 871 136 871 162 909.5 c 128,-1,29
 188 948 188 948 212.5 968.5 c 128,-1,30
 237 989 237 989 270.5 1000.5 c 128,-1,31
 304 1012 304 1012 328.5 1015 c 128,-1,32
 353 1018 353 1018 385 1018 c 128,-1,33
 417 1018 417 1018 441.5 1015 c 128,-1,34
 466 1012 466 1012 499 1000.5 c 128,-1,35
 532 989 532 989 556.5 968.5 c 128,-1,36
 581 948 581 948 607 909.5 c 128,-1,37
 633 871 633 871 649.5 818 c 128,-1,38
 666 765 666 765 676.5 685.5 c 128,-1,39
 687 606 687 606 687 506 c 128,-1,40
 687 406 687 406 676.5 325.5 c 128,-1,41
 666 245 666 245 650 192 c 128,-1,42
 634 139 634 139 608.5 100 c 128,-1,43
 583 61 583 61 558.5 40 c 128,-1,44
 534 19 534 19 501 7 c 128,-1,45
 468 -5 468 -5 443 -8 c 128,-1,18
 418 -11 418 -11 385 -11 c 128,-1,19
EndSplineSet
EndChar

StartChar: p
Encoding: 112 112 83
Width: 780
GlyphClass: 2
Flags: W
LayerCount: 2
Fore
SplineSet
127 -344 m 2,0,1
 104 -344 104 -344 104 -275 c 2,2,-1
 104 937 l 2,3,4
 104 1007 104 1007 127 1007 c 2,5,-1
 153 1007 l 2,6,7
 178 1007 178 1007 189 937 c 0,8,9
 190 932 190 932 196 899.5 c 128,-1,10
 202 867 202 867 207 836 c 128,-1,11
 212 805 212 805 212 800 c 0,12,13
 214 789 214 789 218 789 c 0,14,15
 221 789 221 789 224 798 c 0,16,17
 252 911 252 911 311.5 964 c 128,-1,18
 371 1017 371 1017 439 1017 c 0,19,20
 479 1017 479 1017 515.5 999.5 c 128,-1,21
 552 982 552 982 586 943 c 128,-1,22
 620 904 620 904 645 846.5 c 128,-1,23
 670 789 670 789 684.5 702.5 c 128,-1,24
 699 616 699 616 699 510 c 0,25,26
 699 238 699 238 629.5 113.5 c 128,-1,27
 560 -11 560 -11 444 -11 c 0,28,29
 393 -11 393 -11 348 27.5 c 128,-1,30
 303 66 303 66 278 138 c 0,31,32
 276 144 276 144 272 144 c 0,33,34
 266 144 266 144 266 131 c 2,35,-1
 266 -275 l 2,36,37
 266 -344 266 -344 242 -344 c 2,38,-1
 127 -344 l 2,0,1
399 125 m 0,39,40
 524 125 524 125 524 500 c 0,41,42
 524 679 524 679 489.5 780.5 c 128,-1,43
 455 882 455 882 398 882 c 0,44,45
 338 882 338 882 302 779 c 128,-1,46
 266 676 266 676 266 500 c 0,47,48
 266 320 266 320 302.5 222.5 c 128,-1,49
 339 125 339 125 399 125 c 0,39,40
EndSplineSet
EndChar

StartChar: q
Encoding: 113 113 84
Width: 769
GlyphClass: 2
Flags: W
LayerCount: 2
Fore
SplineSet
529 -344 m 2,0,1
 506 -344 506 -344 506 -292 c 2,2,-1
 505 131 l 2,3,4
 505 144 505 144 499 144 c 0,5,6
 494 144 494 144 493 138 c 1,7,8
 467 66 467 66 424 27.5 c 128,-1,9
 381 -11 381 -11 330 -11 c 0,10,11
 81 -11 81 -11 81 510 c 0,12,13
 81 646 81 646 103 748 c 128,-1,14
 125 850 125 850 163 907 c 128,-1,15
 201 964 201 964 245.5 991 c 128,-1,16
 290 1018 290 1018 341 1018 c 0,17,18
 409 1018 409 1018 464 962 c 128,-1,19
 519 906 519 906 547 790 c 0,20,21
 550 781 550 781 553 781 c 0,22,23
 557 781 557 781 559 792 c 1,24,25
 559 798 559 798 582 947 c 1,26,27
 593 1008 593 1008 618 1008 c 2,28,-1
 644 1008 l 2,29,30
 667 1008 667 1008 667 947 c 2,31,-1
 667 -292 l 2,32,33
 667 -323 667 -323 661.5 -333.5 c 128,-1,34
 656 -344 656 -344 644 -344 c 2,35,-1
 529 -344 l 2,0,1
376 125 m 0,36,37
 435 125 435 125 470.5 222.5 c 128,-1,38
 506 320 506 320 506 500 c 0,39,40
 506 677 506 677 471 779.5 c 128,-1,41
 436 882 436 882 377 882 c 0,42,43
 320 882 320 882 287.5 781.5 c 128,-1,44
 255 681 255 681 255 500 c 0,45,46
 255 125 255 125 376 125 c 0,36,37
EndSplineSet
EndChar

StartChar: r
Encoding: 114 114 85
Width: 496
GlyphClass: 2
Flags: W
LayerCount: 2
Fore
SplineSet
129 0 m 2,0,1
 118 0 118 0 111 19 c 128,-1,2
 104 38 104 38 104 69 c 2,3,-1
 104 929 l 2,4,5
 104 1006 104 1006 123 1006 c 2,6,-1
 161 1006 l 2,7,8
 172 1006 172 1006 178 991.5 c 128,-1,9
 184 977 184 977 191 942 c 1,10,-1
 214 806 l 2,11,12
 216 791 216 791 221 791 c 0,13,14
 225 791 225 791 227 806 c 1,15,16
 257 912 257 912 299 963 c 128,-1,17
 341 1014 341 1014 386 1016 c 1,18,-1
 402 1016 l 2,19,20
 428 1016 428 1016 437 1003 c 128,-1,21
 446 990 446 990 446 962 c 2,22,-1
 446 862 l 2,23,24
 446 838 446 838 442 831 c 128,-1,25
 438 824 438 824 428 824 c 0,26,27
 390 824 390 824 375 818 c 1,28,29
 320 802 320 802 293 711 c 128,-1,30
 266 620 266 620 266 519 c 2,31,-1
 266 69 l 2,32,33
 266 38 266 38 259 19 c 128,-1,34
 252 0 252 0 241 0 c 2,35,-1
 129 0 l 2,0,1
EndSplineSet
EndChar

StartChar: s
Encoding: 115 115 86
Width: 596
GlyphClass: 2
Flags: W
LayerCount: 2
Fore
SplineSet
289 -11 m 0,0,1
 220 -11 220 -11 154.5 22 c 128,-1,2
 89 55 89 55 40 114 c 1,3,-1
 99 229 l 1,4,5
 190 125 190 125 283 125 c 0,6,7
 340 125 340 125 369.5 164.5 c 128,-1,8
 399 204 399 204 399 261 c 0,9,10
 399 316 399 316 368.5 351.5 c 128,-1,11
 338 387 338 387 259 442 c 0,12,13
 212 475 212 475 183.5 499.5 c 128,-1,14
 155 524 155 524 128 560 c 128,-1,15
 101 596 101 596 88.5 641.5 c 128,-1,16
 76 687 76 687 76 747 c 0,17,18
 76 864 76 864 141 941 c 128,-1,19
 206 1018 206 1018 311 1018 c 0,20,21
 438 1018 438 1018 529 917 c 1,22,-1
 467 798 l 1,23,24
 396 876 396 876 324 876 c 0,25,26
 277 876 277 876 251 842.5 c 128,-1,27
 225 809 225 809 225 759 c 0,28,29
 225 703 225 703 256 664.5 c 128,-1,30
 287 626 287 626 350 586 c 0,31,32
 395 557 395 557 426.5 530 c 128,-1,33
 458 503 458 503 487.5 464.5 c 128,-1,34
 517 426 517 426 532 375 c 128,-1,35
 547 324 547 324 547 260 c 0,36,37
 547 134 547 134 479.5 61.5 c 128,-1,38
 412 -11 412 -11 289 -11 c 0,0,1
EndSplineSet
EndChar

StartChar: t
Encoding: 116 116 87
Width: 522
GlyphClass: 2
Flags: W
LayerCount: 2
Fore
SplineSet
361 -2 m 2,0,1
 321 -2 321 -2 291.5 3.5 c 128,-1,2
 262 9 262 9 230 28.5 c 128,-1,3
 198 48 198 48 177.5 82 c 128,-1,4
 157 116 157 116 144 177 c 128,-1,5
 131 238 131 238 131 322 c 2,6,-1
 131 835 l 2,7,8
 131 855 131 855 120 855 c 2,9,-1
 58 855 l 2,10,11
 33 855 33 855 33 903 c 2,12,-1
 33 957 l 2,13,14
 33 1006 33 1006 58 1006 c 2,15,-1
 120 1006 l 2,16,17
 131 1006 131 1006 131 1033 c 1,18,-1
 149 1422 l 2,19,20
 152 1475 152 1475 175 1475 c 2,21,-1
 275 1475 l 2,22,23
 300 1475 300 1475 300 1422 c 2,24,-1
 300 1033 l 2,25,26
 300 1006 300 1006 312 1006 c 2,27,-1
 440 1006 l 2,28,29
 465 1006 465 1006 465 957 c 2,30,-1
 465 903 l 2,31,32
 465 855 465 855 440 855 c 2,33,-1
 312 855 l 2,34,35
 305 855 305 855 302.5 851.5 c 128,-1,36
 300 848 300 848 300 835 c 2,37,-1
 300 319 l 2,38,39
 300 261 300 261 307.5 222.5 c 128,-1,40
 315 184 315 184 329.5 166 c 128,-1,41
 344 148 344 148 358.5 142 c 128,-1,42
 373 136 373 136 394 136 c 2,43,-1
 465 136 l 2,44,45
 492 136 492 136 492 99 c 2,46,-1
 492 39 l 2,47,48
 492 -2 492 -2 463 -2 c 2,49,-1
 361 -2 l 2,0,1
EndSplineSet
EndChar

StartChar: u
Encoding: 117 117 88
Width: 755
GlyphClass: 2
Flags: W
LayerCount: 2
Fore
SplineSet
326 -11 m 0,0,1
 285 -11 285 -11 252.5 -1.5 c 128,-1,2
 220 8 220 8 189 33.5 c 128,-1,3
 158 59 158 59 137 101 c 128,-1,4
 116 143 116 143 103.5 211.5 c 128,-1,5
 91 280 91 280 91 372 c 2,6,-1
 91 957 l 2,7,8
 91 987 91 987 97.5 996.5 c 128,-1,9
 104 1006 104 1006 117 1006 c 2,10,-1
 235 1006 l 2,11,12
 247 1006 247 1006 253.5 996.5 c 128,-1,13
 260 987 260 987 260 957 c 2,14,-1
 260 345 l 2,15,16
 260 226 260 226 285 175.5 c 128,-1,17
 310 125 310 125 362 125 c 0,18,19
 420 125 420 125 456 204.5 c 128,-1,20
 492 284 492 284 492 390 c 2,21,-1
 492 957 l 2,22,23
 492 987 492 987 498.5 996.5 c 128,-1,24
 505 1006 505 1006 518 1006 c 2,25,-1
 630 1006 l 2,26,27
 643 1006 643 1006 649.5 996.5 c 128,-1,28
 656 987 656 987 656 957 c 2,29,-1
 656 61 l 2,30,31
 656 0 656 0 631 0 c 2,32,-1
 605 0 l 2,33,34
 591 0 591 0 582.5 9 c 128,-1,35
 574 18 574 18 569 48 c 2,36,-1
 546 190 l 2,37,38
 543 203 543 203 539 203 c 128,-1,39
 535 203 535 203 532 191 c 0,40,41
 507 89 507 89 450 39 c 128,-1,42
 393 -11 393 -11 326 -11 c 0,0,1
EndSplineSet
EndChar

StartChar: v
Encoding: 118 118 89
Width: 663
GlyphClass: 2
Flags: W
LayerCount: 2
Fore
SplineSet
275 0 m 2,0,1
 251 0 251 0 238 68 c 1,2,-1
 57 942 l 2,3,4
 55 952 55 952 55 970 c 0,5,6
 55 1006 55 1006 70 1006 c 2,7,-1
 192 1006 l 2,8,9
 217 1006 217 1006 226 946 c 2,10,-1
 340 248 l 2,11,12
 342 238 342 238 345 238 c 128,-1,13
 348 238 348 238 349 248 c 2,14,-1
 446 946 l 2,15,16
 454 1006 454 1006 482 1006 c 2,17,-1
 594 1006 l 2,18,19
 609 1006 609 1006 609 972 c 0,20,21
 609 964 609 964 605 943 c 2,22,-1
 435 67 l 2,23,24
 422 0 422 0 397 0 c 2,25,-1
 275 0 l 2,0,1
EndSplineSet
EndChar

StartChar: w
Encoding: 119 119 90
Width: 922
GlyphClass: 2
Flags: W
LayerCount: 2
Fore
SplineSet
232 0 m 2,0,1
 205 0 205 0 197 57 c 2,2,-1
 59 941 l 2,3,4
 57 959 57 959 57 967 c 0,5,6
 57 1006 57 1006 74 1006 c 2,7,-1
 173 1006 l 2,8,9
 197 1006 197 1006 205 944 c 2,10,-1
 297 222 l 1,11,12
 300 213 l 1,13,14
 304 213 304 213 304 221 c 1,15,-1
 398 945 l 2,16,17
 405 1006 405 1006 431 1006 c 2,18,-1
 521 1006 l 2,19,20
 544 1006 544 1006 552 945 c 2,21,-1
 645 220 l 1,22,23
 645 212 645 212 649 212 c 0,24,25
 651 212 651 212 652 220 c 2,26,-1
 739 944 l 2,27,28
 746 1006 746 1006 772 1006 c 2,29,-1
 849 1006 l 2,30,31
 865 1006 865 1006 865 970 c 0,32,33
 865 957 865 957 862 942 c 2,34,-1
 738 57 l 1,35,36
 729 0 729 0 702 0 c 2,37,-1
 597 0 l 2,38,39
 570 0 570 0 562 59 c 2,40,-1
 474 677 l 2,41,42
 474 684 474 684 471 684 c 128,-1,43
 468 684 468 684 466 677 c 2,44,-1
 376 59 l 2,45,46
 367 0 367 0 340 0 c 2,47,-1
 232 0 l 2,0,1
EndSplineSet
EndChar

StartChar: x
Encoding: 120 120 91
Width: 677
GlyphClass: 2
Flags: W
LayerCount: 2
Fore
SplineSet
59 0 m 2,0,1
 51 0 51 0 51 26 c 0,2,3
 51 37 51 37 54 46 c 2,4,-1
 237 464 l 2,5,6
 240 472 240 472 240 481 c 128,-1,7
 240 490 240 490 238 500 c 1,8,-1
 50 958 l 2,9,10
 46 968 46 968 46 979 c 0,11,12
 46 1006 46 1006 56 1006 c 2,13,-1
 191 1006 l 2,14,15
 214 1006 214 1006 234 956 c 2,16,-1
 334 699 l 2,17,18
 337 691 337 691 341 691 c 0,19,20
 346 691 346 691 349 698 c 2,21,-1
 445 958 l 2,22,23
 463 1006 463 1006 489 1006 c 2,24,-1
 602 1006 l 2,25,26
 611 1006 611 1006 611 981 c 0,27,28
 611 968 611 968 607 960 c 2,29,-1
 434 567 l 1,30,31
 429 559 429 559 429 549 c 0,32,33
 429 540 429 540 433 530 c 2,34,-1
 635 48 l 2,35,36
 638 41 638 41 638 27 c 0,37,38
 638 0 638 0 629 0 c 2,39,-1
 493 0 l 2,40,41
 467 0 467 0 447 50 c 1,42,-1
 348 318 l 2,43,44
 345 328 345 328 339 328 c 0,45,46
 332 328 332 328 329 319 c 2,47,-1
 226 47 l 2,48,49
 218 25 218 25 205.5 12.5 c 128,-1,50
 193 0 193 0 181 0 c 2,51,-1
 59 0 l 2,0,1
EndSplineSet
EndChar

StartChar: y
Encoding: 121 121 92
Width: 662
GlyphClass: 2
Flags: W
LayerCount: 2
Fore
SplineSet
223 -122 m 0,0,1
 246 -122 246 -122 263 -84.5 c 128,-1,2
 280 -47 280 -47 280 22 c 0,3,4
 280 38 280 38 260 133 c 1,5,-1
 64 948 l 1,6,7
 62 962 62 962 62 970 c 0,8,9
 62 1006 62 1006 77 1006 c 2,10,-1
 198 1006 l 2,11,12
 212 1006 212 1006 221 996.5 c 128,-1,13
 230 987 230 987 235 958 c 2,14,-1
 365 270 l 1,15,16
 369 258 369 258 370 258 c 0,17,18
 374 258 374 258 374 269 c 1,19,-1
 476 955 l 2,20,21
 480 985 480 985 488.5 995.5 c 128,-1,22
 497 1006 497 1006 510 1006 c 2,23,-1
 594 1006 l 2,24,25
 611 1006 611 1006 611 967 c 0,26,27
 611 958 611 958 609 944 c 2,28,-1
 431 17 l 1,29,30
 410 -98 410 -98 385 -159 c 128,-1,31
 360 -220 360 -220 329 -242 c 128,-1,32
 298 -264 298 -264 247 -265 c 1,33,-1
 237 -265 l 2,34,35
 156 -265 156 -265 127 -222 c 1,36,37
 119 -213 119 -213 119 -176 c 0,38,39
 119 -102 119 -102 143 -102 c 0,40,41
 145 -102 145 -102 179 -112 c 128,-1,42
 213 -122 213 -122 223 -122 c 0,0,1
EndSplineSet
EndChar

StartChar: z
Encoding: 122 122 93
Width: 580
GlyphClass: 2
Flags: W
LayerCount: 2
Fore
SplineSet
100 0 m 2,0,1
 94 0 94 0 89 6.5 c 128,-1,2
 84 13 84 13 84 25 c 2,3,-1
 84 139 l 2,4,5
 84 165 84 165 97 199 c 2,6,-1
 329 852 l 1,7,-1
 97 852 l 1,8,9
 94 851 94 851 91.5 853.5 c 128,-1,10
 89 856 89 856 87.5 862 c 128,-1,11
 86 868 86 868 86 878 c 2,12,-1
 86 979 l 2,13,14
 86 1006 86 1006 97 1006 c 2,15,-1
 493 1006 l 2,16,17
 508 1006 508 1006 508 979 c 2,18,-1
 508 851 l 2,19,20
 508 819 508 819 498 796 c 1,21,-1
 273 153 l 1,22,-1
 506 153 l 1,23,24
 511 155 511 155 515 147.5 c 128,-1,25
 519 140 519 140 519 127 c 2,26,-1
 519 25 l 2,27,28
 519 0 519 0 506 0 c 2,29,-1
 100 0 l 2,0,1
EndSplineSet
EndChar

StartChar: braceleft
Encoding: 123 123 94
Width: 526
GlyphClass: 2
Flags: W
LayerCount: 2
Fore
SplineSet
427 1543 m 2,0,1
 438 1543 438 1543 445.5 1525.5 c 128,-1,2
 453 1508 453 1508 453 1482 c 2,3,-1
 453 1456 l 2,4,5
 453 1424 453 1424 445 1408.5 c 128,-1,6
 437 1393 437 1393 416 1393 c 0,7,8
 381 1393 381 1393 372.5 1352.5 c 128,-1,9
 364 1312 364 1312 363 1161 c 1,10,-1
 363 1005 l 1,11,12
 362 881 362 881 348.5 814 c 128,-1,13
 335 747 335 747 293 731 c 0,14,15
 289 729 289 729 289 721 c 128,-1,16
 289 713 289 713 293 711 c 0,17,18
 334 695 334 695 347 633.5 c 128,-1,19
 360 572 360 572 360 456 c 2,20,-1
 360 302 l 1,21,22
 361 140 361 140 370 93.5 c 128,-1,23
 379 47 379 47 416 47 c 0,24,25
 437 47 437 47 445 32 c 128,-1,26
 453 17 453 17 453 -16 c 2,27,-1
 453 -42 l 2,28,29
 453 -68 453 -68 445.5 -85.5 c 128,-1,30
 438 -103 438 -103 427 -103 c 2,31,-1
 345 -103 l 2,32,33
 268 -103 268 -103 234 -16 c 128,-1,34
 200 71 200 71 198 290 c 1,35,-1
 198 423 l 1,36,37
 197 534 197 534 182 576.5 c 128,-1,38
 167 619 167 619 130 620 c 0,39,40
 107 621 107 621 98.5 637.5 c 128,-1,41
 90 654 90 654 90 696 c 2,42,-1
 90 751 l 2,43,44
 90 789 90 789 98.5 803 c 128,-1,45
 107 817 107 817 130 818 c 0,46,47
 166 819 166 819 181 868 c 128,-1,48
 196 917 196 917 198 1029 c 0,49,50
 198 1035 198 1035 198.5 1100 c 128,-1,51
 199 1165 199 1165 199 1168 c 0,52,53
 200 1315 200 1315 217 1398 c 128,-1,54
 234 1481 234 1481 264 1512 c 128,-1,55
 294 1543 294 1543 345 1543 c 2,56,-1
 427 1543 l 2,0,1
EndSplineSet
EndChar

StartChar: bar
Encoding: 124 124 95
Width: 329
GlyphClass: 2
Flags: W
LayerCount: 2
Fore
SplineSet
143 -150 m 2,0,1
 131 -150 131 -150 123.5 -131 c 128,-1,2
 116 -112 116 -112 116 -80 c 2,3,-1
 116 1485 l 2,4,5
 116 1517 116 1517 123.5 1536 c 128,-1,6
 131 1555 131 1555 143 1555 c 2,7,-1
 185 1555 l 2,8,9
 197 1555 197 1555 204.5 1536 c 128,-1,10
 212 1517 212 1517 212 1485 c 2,11,-1
 212 -80 l 2,12,13
 212 -112 212 -112 204.5 -131 c 128,-1,14
 197 -150 197 -150 185 -150 c 2,15,-1
 143 -150 l 2,0,1
EndSplineSet
EndChar

StartChar: braceright
Encoding: 125 125 96
Width: 526
GlyphClass: 2
Flags: W
LayerCount: 2
Fore
SplineSet
116 -103 m 2,0,1
 105 -103 105 -103 97.5 -85.5 c 128,-1,2
 90 -68 90 -68 90 -42 c 2,3,-1
 90 -16 l 2,4,5
 90 17 90 17 98 32 c 128,-1,6
 106 47 106 47 127 47 c 0,7,8
 162 47 162 47 170.5 87.5 c 128,-1,9
 179 128 179 128 180 279 c 1,10,-1
 180 435 l 1,11,12
 181 560 181 560 194.5 626.5 c 128,-1,13
 208 693 208 693 250 709 c 0,14,15
 254 711 254 711 254 719.5 c 128,-1,16
 254 728 254 728 250 730 c 0,17,18
 209 745 209 745 196.5 806 c 128,-1,19
 184 867 184 867 183 984 c 1,20,-1
 183 1138 l 1,21,22
 182 1300 182 1300 173 1346.5 c 128,-1,23
 164 1393 164 1393 127 1393 c 0,24,25
 106 1393 106 1393 98 1408.5 c 128,-1,26
 90 1424 90 1424 90 1456 c 2,27,-1
 90 1482 l 2,28,29
 90 1508 90 1508 97.5 1525.5 c 128,-1,30
 105 1543 105 1543 116 1543 c 2,31,-1
 198 1543 l 2,32,33
 275 1543 275 1543 309 1456.5 c 128,-1,34
 343 1370 343 1370 345 1151 c 1,35,-1
 345 1018 l 1,36,37
 347 907 347 907 362 864 c 128,-1,38
 377 821 377 821 413 820 c 0,39,40
 436 819 436 819 444.5 803 c 128,-1,41
 453 787 453 787 453 745 c 2,42,-1
 453 690 l 2,43,44
 453 651 453 651 444.5 637 c 128,-1,45
 436 623 436 623 413 623 c 0,46,47
 377 622 377 622 362.5 572.5 c 128,-1,48
 348 523 348 523 346 412 c 1,49,50
 344 390 344 390 344 273 c 0,51,52
 343 125 343 125 326 42.5 c 128,-1,53
 309 -40 309 -40 279 -71.5 c 128,-1,54
 249 -103 249 -103 198 -103 c 2,55,-1
 116 -103 l 2,0,1
EndSplineSet
EndChar

StartChar: asciitilde
Encoding: 126 126 97
Width: 949
GlyphClass: 2
Flags: W
LayerCount: 2
Fore
SplineSet
293 532 m 0,0,1
 221 532 221 532 174.5 561.5 c 128,-1,2
 128 591 128 591 92 653 c 0,3,4
 79 675 79 675 79 691 c 0,5,6
 79 711 79 711 101.5 747.5 c 128,-1,7
 124 784 124 784 141 784 c 0,8,9
 156 784 156 784 165 767 c 0,10,11
 195 711 195 711 222 693 c 128,-1,12
 249 675 249 675 293 675 c 0,13,14
 338 675 338 675 403.5 707.5 c 128,-1,15
 469 740 469 740 537.5 772 c 128,-1,16
 606 804 606 804 660 804 c 0,17,18
 787 804 787 804 863 683 c 0,19,20
 870 672 870 672 870 656 c 0,21,22
 870 628 870 628 851 595.5 c 128,-1,23
 832 563 832 563 811 563 c 0,24,25
 796 563 796 563 784 581 c 0,26,27
 751 626 751 626 729 643.5 c 128,-1,28
 707 661 707 661 674 661 c 0,29,30
 637 661 637 661 586 641 c 128,-1,31
 535 621 535 621 492 596.5 c 128,-1,32
 449 572 449 572 393.5 552 c 128,-1,33
 338 532 338 532 293 532 c 0,0,1
EndSplineSet
EndChar

StartChar: cent
Encoding: 162 162 100
Width: 582
GlyphClass: 2
Flags: W
LayerCount: 2
Fore
SplineSet
523 980 m 2,0,-1
 523 874 l 1,1,2
 524 868 524 868 520 863 c 128,-1,3
 516 858 516 858 512 858 c 0,4,5
 502 859 502 859 479.5 865.5 c 128,-1,6
 457 872 457 872 446 873 c 1,7,-1
 446 133 l 1,8,9
 476 137 476 137 511 148 c 1,10,11
 515 147 515 147 519.5 140 c 128,-1,12
 524 133 524 133 524 127 c 2,13,-1
 524 28 l 2,14,15
 524 22 524 22 521.5 16.5 c 128,-1,16
 519 11 519 11 513 8 c 128,-1,17
 507 5 507 5 501.5 2.5 c 128,-1,18
 496 0 496 0 487 -1.5 c 128,-1,19
 478 -3 478 -3 473 -4 c 128,-1,20
 468 -5 468 -5 458 -6 c 128,-1,21
 448 -7 448 -7 446 -7 c 1,22,-1
 446 -127 l 2,23,24
 446 -181 446 -181 422 -181 c 2,25,-1
 396 -181 l 2,26,27
 372 -181 372 -181 372 -127 c 2,28,-1
 372 -11 l 1,29,30
 323 -9 323 -9 285.5 2.5 c 128,-1,31
 248 14 248 14 207.5 47.5 c 128,-1,32
 167 81 167 81 141 136 c 128,-1,33
 115 191 115 191 98 286 c 128,-1,34
 81 381 81 381 81 509 c 0,35,36
 81 632 81 632 98 724 c 128,-1,37
 115 816 115 816 141.5 870.5 c 128,-1,38
 168 925 168 925 207.5 959 c 128,-1,39
 247 993 247 993 286 1005 c 128,-1,40
 325 1017 325 1017 372 1017 c 1,41,-1
 372 1177 l 2,42,43
 372 1230 372 1230 396 1230 c 2,44,-1
 422 1230 l 2,45,46
 446 1230 446 1230 446 1177 c 2,47,-1
 446 1010 l 1,48,49
 447 1010 447 1010 460 1008 c 128,-1,50
 473 1006 473 1006 481 1004.5 c 128,-1,51
 489 1003 489 1003 500 999.5 c 128,-1,52
 511 996 511 996 517 991 c 128,-1,53
 523 986 523 986 523 980 c 2,0,-1
372 136 m 1,54,-1
 372 871 l 1,55,56
 337 861 337 861 313.5 832 c 128,-1,57
 290 803 290 803 272.5 722 c 128,-1,58
 255 641 255 641 255 509 c 0,59,60
 255 402 255 402 263.5 329 c 128,-1,61
 272 256 272 256 289 216.5 c 128,-1,62
 306 177 306 177 325.5 159 c 128,-1,63
 345 141 345 141 372 136 c 1,54,-1
EndSplineSet
EndChar

StartChar: sterling
Encoding: 163 163 101
Width: 963
GlyphClass: 2
Flags: W
LayerCount: 2
Fore
SplineSet
636 1467 m 0,0,1
 771 1467 771 1467 876 1413 c 0,2,3
 892 1404 892 1404 896 1402 c 128,-1,4
 900 1400 900 1400 909.5 1393 c 128,-1,5
 919 1386 919 1386 921.5 1379.5 c 128,-1,6
 924 1373 924 1373 924 1364 c 0,7,8
 924 1361 924 1361 922 1351 c 2,9,-1
 907 1282 l 2,10,11
 902 1261 902 1261 891.5 1254.5 c 128,-1,12
 881 1248 881 1248 861 1253 c 1,13,14
 843 1255 843 1255 813 1268 c 128,-1,15
 783 1281 783 1281 741.5 1292 c 128,-1,16
 700 1303 700 1303 646 1303 c 0,17,18
 585 1303 585 1303 546 1291 c 128,-1,19
 507 1279 507 1279 480.5 1255 c 128,-1,20
 454 1231 454 1231 440.5 1183 c 128,-1,21
 427 1135 427 1135 422 1075 c 128,-1,22
 417 1015 417 1015 417 918 c 2,23,-1
 417 808 l 1,24,-1
 701 808 l 2,25,26
 750 808 750 808 750 756 c 2,27,-1
 750 719 l 2,28,29
 750 667 750 667 701 667 c 2,30,-1
 415 667 l 1,31,-1
 415 194 l 2,32,33
 415 164 415 164 420.5 156 c 128,-1,34
 426 148 426 148 449 148 c 2,35,-1
 882 148 l 2,36,37
 904 148 904 148 914 138 c 128,-1,38
 924 128 924 128 924 103 c 2,39,-1
 924 37 l 2,40,41
 924 15 924 15 914.5 7.5 c 128,-1,42
 905 0 905 0 882 0 c 2,43,-1
 98 0 l 2,44,45
 69 0 69 0 59 11.5 c 128,-1,46
 49 23 49 23 49 51 c 2,47,-1
 49 94 l 2,48,49
 49 123 49 123 59 135.5 c 128,-1,50
 69 148 69 148 98 148 c 2,51,-1
 189 148 l 2,52,53
 209 148 209 148 214 152 c 128,-1,54
 219 156 219 156 219 171 c 2,55,-1
 219 624 l 2,56,57
 219 667 219 667 189 667 c 2,58,-1
 98 667 l 2,59,60
 49 667 49 667 49 719 c 2,61,-1
 49 756 l 2,62,63
 49 808 49 808 98 808 c 2,64,-1
 215 808 l 1,65,66
 215 822 215 822 214.5 881 c 128,-1,67
 214 940 214 940 214 958 c 0,68,69
 214 1023 214 1023 217 1071.5 c 128,-1,70
 220 1120 220 1120 230.5 1176 c 128,-1,71
 241 1232 241 1232 259 1272 c 128,-1,72
 277 1312 277 1312 308.5 1351 c 128,-1,73
 340 1390 340 1390 384 1414 c 128,-1,74
 428 1438 428 1438 491.5 1452.5 c 128,-1,75
 555 1467 555 1467 636 1467 c 0,0,1
EndSplineSet
EndChar

StartChar: currency
Encoding: 164 164 102
Width: 1193
GlyphClass: 2
Flags: W
LayerCount: 2
Fore
SplineSet
596 515 m 0,0,1
 508 515 508 515 443.5 535 c 128,-1,2
 379 555 379 555 316 596 c 1,3,-1
 288 568 l 1,4,5
 254 532 254 532 236 532 c 0,6,7
 223 532 223 532 213 543 c 2,8,-1
 183 572 l 1,9,10
 170 586 170 586 170 599 c 0,11,12
 170 616 170 616 204 650 c 2,13,-1
 227 673 l 1,14,15
 119 798 119 798 119 977 c 0,16,17
 119 1159 119 1159 229 1286 c 1,18,-1
 204 1311 l 2,19,20
 168 1347 168 1347 168 1363 c 0,21,22
 168 1376 168 1376 180 1386 c 1,23,-1
 210 1415 l 1,24,25
 222 1428 222 1428 237 1428 c 0,26,27
 254 1428 254 1428 288 1394 c 2,28,-1
 319 1363 l 1,29,30
 382 1404 382 1404 446 1424 c 128,-1,31
 510 1444 510 1444 596 1444 c 0,32,33
 750 1444 750 1444 874 1363 c 1,34,-1
 904 1393 l 2,35,36
 939 1428 939 1428 957 1428 c 0,37,38
 970 1428 970 1428 982 1415 c 1,39,-1
 1013 1386 l 1,40,41
 1024 1373 1024 1373 1024 1363 c 0,42,43
 1024 1347 1024 1347 988 1311 c 2,44,-1
 963 1286 l 1,45,46
 1073 1161 1073 1161 1073 977 c 0,47,48
 1073 798 1073 798 966 673 c 1,49,-1
 988 651 l 2,50,51
 1023 616 1023 616 1023 599 c 0,52,53
 1023 586 1023 586 1010 573 c 2,54,-1
 980 543 l 1,55,56
 967 532 967 532 958 532 c 0,57,58
 939 532 939 532 905 568 c 1,59,-1
 877 596 l 1,60,61
 752 515 752 515 596 515 c 0,0,1
596 616 m 128,-1,63
 672 616 672 616 734 637.5 c 128,-1,64
 796 659 796 659 836.5 694.5 c 128,-1,65
 877 730 877 730 904.5 777.5 c 128,-1,66
 932 825 932 825 944 874.5 c 128,-1,67
 956 924 956 924 956 976 c 0,68,69
 956 1045 956 1045 936 1107.5 c 128,-1,70
 916 1170 916 1170 875 1223 c 128,-1,71
 834 1276 834 1276 762 1307.5 c 128,-1,72
 690 1339 690 1339 596 1339 c 128,-1,73
 502 1339 502 1339 430 1307.5 c 128,-1,74
 358 1276 358 1276 317 1223 c 128,-1,75
 276 1170 276 1170 256 1107.5 c 128,-1,76
 236 1045 236 1045 236 976 c 0,77,78
 236 924 236 924 248 874.5 c 128,-1,79
 260 825 260 825 287.5 777.5 c 128,-1,80
 315 730 315 730 355.5 694.5 c 128,-1,81
 396 659 396 659 458 637.5 c 128,-1,62
 520 616 520 616 596 616 c 128,-1,63
EndSplineSet
EndChar

StartChar: yen
Encoding: 165 165 103
Width: 732
GlyphClass: 2
Flags: W
LayerCount: 2
Fore
SplineSet
295 0 m 2,0,1
 282 0 282 0 276 10.5 c 128,-1,2
 270 21 270 21 270 51 c 2,3,-1
 270 329 l 1,4,-1
 118 329 l 2,5,6
 105 329 105 329 99 336.5 c 128,-1,7
 93 344 93 344 93 369 c 2,8,-1
 93 439 l 2,9,10
 93 464 93 464 99 472 c 128,-1,11
 105 480 105 480 118 480 c 2,12,-1
 260 480 l 1,13,-1
 247 570 l 1,14,-1
 118 570 l 2,15,16
 105 570 105 570 99 578 c 128,-1,17
 93 586 93 586 93 611 c 2,18,-1
 93 681 l 2,19,20
 93 706 93 706 99 713.5 c 128,-1,21
 105 721 105 721 118 721 c 2,22,-1
 212 721 l 1,23,-1
 39 1378 l 1,24,25
 34 1393 34 1393 34 1407 c 0,26,27
 34 1438 34 1438 50 1438 c 2,28,-1
 185 1438 l 2,29,30
 198 1438 198 1438 210 1424 c 128,-1,31
 222 1410 222 1410 227 1385 c 2,32,-1
 374 751 l 1,33,-1
 388 751 l 1,34,-1
 532 1384 l 2,35,36
 537 1408 537 1408 548.5 1423 c 128,-1,37
 560 1438 560 1438 572 1438 c 2,38,-1
 684 1438 l 2,39,40
 700 1438 700 1438 700 1406 c 0,41,42
 700 1393 700 1393 696 1378 c 2,43,-1
 525 721 l 1,44,-1
 618 721 l 2,45,46
 630 721 630 721 636 713.5 c 128,-1,47
 642 706 642 706 642 681 c 2,48,-1
 642 611 l 2,49,50
 642 586 642 586 636 578 c 128,-1,51
 630 570 630 570 618 570 c 2,52,-1
 491 570 l 1,53,-1
 478 480 l 1,54,-1
 613 480 l 2,55,56
 625 480 625 480 631 472 c 128,-1,57
 637 464 637 464 637 439 c 2,58,-1
 637 369 l 2,59,60
 637 344 637 344 631 336.5 c 128,-1,61
 625 329 625 329 613 329 c 2,62,-1
 468 329 l 1,63,-1
 468 51 l 2,64,65
 468 0 468 0 443 0 c 2,66,-1
 295 0 l 2,0,1
EndSplineSet
EndChar

StartChar: brokenbar
Encoding: 166 166 104
Width: 388
GlyphClass: 2
Flags: W
LayerCount: 2
Fore
SplineSet
170 -123 m 2,0,1
 145 -123 145 -123 145 -63 c 2,2,-1
 145 506 l 2,3,4
 145 566 145 566 170 566 c 2,5,-1
 218 566 l 2,6,7
 243 566 243 566 243 506 c 2,8,-1
 243 -63 l 2,9,10
 243 -123 243 -123 218 -123 c 2,11,-1
 170 -123 l 2,0,1
170 852 m 2,12,13
 144 852 144 852 144 912 c 2,14,-1
 144 1482 l 2,15,16
 144 1542 144 1542 170 1542 c 2,17,-1
 217 1542 l 2,18,19
 243 1542 243 1542 243 1482 c 2,20,-1
 243 912 l 2,21,22
 243 852 243 852 217 852 c 2,23,-1
 170 852 l 2,12,13
EndSplineSet
EndChar

StartChar: section
Encoding: 167 167 105
Width: 836
GlyphClass: 2
Flags: W
LayerCount: 2
Fore
SplineSet
424 -15 m 0,0,1
 247 -15 247 -15 121 86 c 1,2,3
 105 97 105 97 105 124 c 1,4,5
 120 178 l 0,6,7
 126 197 126 197 139.5 206.5 c 128,-1,8
 153 216 153 216 164 209 c 0,9,10
 232 159 232 159 294 137 c 128,-1,11
 356 115 356 115 440 115 c 0,12,13
 522 115 522 115 562.5 161 c 128,-1,14
 603 207 603 207 603 282 c 0,15,16
 603 352 603 352 559 389 c 128,-1,17
 515 426 515 426 416 451 c 0,18,19
 377 461 377 461 356 467 c 128,-1,20
 335 473 335 473 301 484 c 128,-1,21
 267 495 267 495 248.5 505.5 c 128,-1,22
 230 516 230 516 205.5 532.5 c 128,-1,23
 181 549 181 549 167.5 568 c 128,-1,24
 154 587 154 587 140.5 612.5 c 128,-1,25
 127 638 127 638 121.5 670.5 c 128,-1,26
 116 703 116 703 116 742 c 0,27,28
 116 873 116 873 200 949 c 1,29,30
 116 1026 116 1026 116 1159 c 0,31,32
 116 1229 116 1229 135.5 1282.5 c 128,-1,33
 155 1336 155 1336 185 1367 c 128,-1,34
 215 1398 215 1398 256.5 1418 c 128,-1,35
 298 1438 298 1438 336.5 1445 c 128,-1,36
 375 1452 375 1452 418 1452 c 0,37,38
 500 1452 500 1452 558 1433.5 c 128,-1,39
 616 1415 616 1415 676 1371 c 1,40,41
 693 1360 693 1360 693 1335 c 1,42,-1
 675 1277 l 2,43,44
 670 1260 670 1260 655.5 1254 c 128,-1,45
 641 1248 641 1248 631 1256 c 0,46,47
 596 1280 596 1280 577 1290.5 c 128,-1,48
 558 1301 558 1301 521.5 1310 c 128,-1,49
 485 1319 485 1319 437 1319 c 0,50,51
 338 1319 338 1319 299 1283 c 128,-1,52
 260 1247 260 1247 260 1178 c 0,53,54
 260 1114 260 1114 300 1084.5 c 128,-1,55
 340 1055 340 1055 443 1028 c 0,56,57
 510 1011 510 1011 542.5 1001 c 128,-1,58
 575 991 575 991 621.5 967.5 c 128,-1,59
 668 944 668 944 688.5 914.5 c 128,-1,60
 709 885 709 885 725.5 834 c 128,-1,61
 742 783 742 783 742 713 c 0,62,63
 742 600 742 600 665 510 c 1,64,65
 742 424 742 424 742 295 c 0,66,67
 742 141 742 141 666.5 63 c 128,-1,68
 591 -15 591 -15 424 -15 c 0,0,1
574 573 m 1,69,70
 589 582 589 582 607 627 c 128,-1,71
 625 672 625 672 625 705 c 0,72,73
 625 775 625 775 576.5 809 c 128,-1,74
 528 843 528 843 416 868 c 1,75,76
 332 882 332 882 291 898 c 1,77,78
 240 852 240 852 240 764 c 0,79,80
 240 708 240 708 289 675.5 c 128,-1,81
 338 643 338 643 443 610 c 1,82,83
 536 587 536 587 574 573 c 1,69,70
EndSplineSet
EndChar

StartChar: dieresis
Encoding: 168 168 106
Width: 317
GlyphClass: 2
Flags: W
LayerCount: 2
Fore
SplineSet
52 0 m 2,0,1
 25 0 25 0 25 57 c 2,2,-1
 25 139 l 2,3,4
 25 196 25 196 52 196 c 2,5,-1
 112 196 l 2,6,7
 139 196 139 196 139 139 c 2,8,-1
 139 57 l 2,9,10
 139 0 139 0 112 0 c 2,11,-1
 52 0 l 2,0,1
278 0 m 2,12,13
 252 0 252 0 252 57 c 2,14,-1
 252 139 l 2,15,16
 252 196 252 196 278 196 c 2,17,-1
 339 196 l 2,18,19
 365 196 365 196 365 139 c 2,20,-1
 365 57 l 2,21,22
 365 0 365 0 339 0 c 2,23,-1
 278 0 l 2,12,13
EndSplineSet
EndChar

StartChar: copyright
Encoding: 169 169 107
Width: 1443
GlyphClass: 2
Flags: W
LayerCount: 2
Fore
SplineSet
736 337 m 0,0,1
 676 337 676 337 623 360 c 128,-1,2
 570 383 570 383 527 429 c 128,-1,3
 484 475 484 475 458.5 552.5 c 128,-1,4
 433 630 433 630 433 729 c 0,5,6
 433 830 433 830 459 907 c 128,-1,7
 485 984 485 984 528 1028 c 128,-1,8
 571 1072 571 1072 621 1093.5 c 128,-1,9
 671 1115 671 1115 725 1115 c 0,10,11
 836 1115 836 1115 911 1056 c 1,12,13
 922 1046 922 1046 922 1021 c 0,14,15
 922 999 922 999 913 979 c 128,-1,16
 904 959 904 959 892 959 c 0,17,18
 890 959 890 959 885 962 c 0,19,20
 810 1012 810 1012 747 1012 c 0,21,22
 654 1012 654 1012 600.5 939 c 128,-1,23
 547 866 547 866 547 728 c 0,24,25
 547 579 547 579 604 510.5 c 128,-1,26
 661 442 661 442 748 442 c 0,27,28
 774 442 774 442 797 446.5 c 128,-1,29
 820 451 820 451 828 453.5 c 128,-1,30
 836 456 836 456 858.5 468 c 128,-1,31
 881 480 881 480 883 481 c 0,32,33
 884 481 884 481 886 482 c 1,34,-1
 888 482 l 2,35,36
 901 482 901 482 912 460.5 c 128,-1,37
 923 439 923 439 923 416 c 0,38,39
 923 391 923 391 908 384 c 1,40,41
 861 358 861 358 824 347.5 c 128,-1,42
 787 337 787 337 736 337 c 0,0,1
724 93 m 0,43,44
 832 93 832 93 920 130 c 128,-1,45
 1008 167 1008 167 1065.5 227.5 c 128,-1,46
 1123 288 1123 288 1162 370 c 128,-1,47
 1201 452 1201 452 1218 538.5 c 128,-1,48
 1235 625 1235 625 1235 717 c 0,49,50
 1235 812 1235 812 1218 900 c 128,-1,51
 1201 988 1201 988 1162 1070 c 128,-1,52
 1123 1152 1123 1152 1065.5 1212.5 c 128,-1,53
 1008 1273 1008 1273 920 1309.5 c 128,-1,54
 832 1346 832 1346 724 1346 c 0,55,56
 615 1346 615 1346 527 1309.5 c 128,-1,57
 439 1273 439 1273 381.5 1212.5 c 128,-1,58
 324 1152 324 1152 285 1070 c 128,-1,59
 246 988 246 988 229.5 900 c 128,-1,60
 213 812 213 812 213 717 c 0,61,62
 213 625 213 625 229.5 538.5 c 128,-1,63
 246 452 246 452 285 370 c 128,-1,64
 324 288 324 288 381.5 227.5 c 128,-1,65
 439 167 439 167 527 130 c 128,-1,66
 615 93 615 93 724 93 c 0,43,44
721 -16 m 0,67,68
 597 -16 597 -16 493 23.5 c 128,-1,69
 389 63 389 63 316 131.5 c 128,-1,70
 243 200 243 200 192.5 293.5 c 128,-1,71
 142 387 142 387 118 495 c 128,-1,72
 94 603 94 603 94 721 c 128,-1,73
 94 839 94 839 118 946.5 c 128,-1,74
 142 1054 142 1054 192.5 1148 c 128,-1,75
 243 1242 243 1242 316 1310.5 c 128,-1,76
 389 1379 389 1379 493 1418.5 c 128,-1,77
 597 1458 597 1458 721 1458 c 0,78,79
 876 1458 876 1458 998.5 1398 c 128,-1,80
 1121 1338 1121 1338 1196 1234.5 c 128,-1,81
 1271 1131 1271 1131 1310 1000.5 c 128,-1,82
 1349 870 1349 870 1349 721 c 128,-1,83
 1349 572 1349 572 1310 441 c 128,-1,84
 1271 310 1271 310 1196 207 c 128,-1,85
 1121 104 1121 104 998.5 44 c 128,-1,86
 876 -16 876 -16 721 -16 c 0,67,68
EndSplineSet
EndChar

StartChar: ordfeminine
Encoding: 170 170 108
Width: 650
GlyphClass: 2
Flags: W
LayerCount: 2
Fore
SplineSet
300 615 m 0,0,1
 220 615 220 615 177 666 c 128,-1,2
 134 717 134 717 134 815 c 0,3,4
 134 888 134 888 156 942.5 c 128,-1,5
 178 997 178 997 211 1024.5 c 128,-1,6
 244 1052 244 1052 284 1070.5 c 128,-1,7
 324 1089 324 1089 358.5 1094.5 c 128,-1,8
 393 1100 393 1100 419 1105.5 c 128,-1,9
 445 1111 445 1111 449 1116 c 1,10,-1
 449 1159 l 2,11,12
 449 1245 449 1245 430.5 1287.5 c 128,-1,13
 412 1330 412 1330 362 1330 c 0,14,15
 320 1330 320 1330 298 1304 c 128,-1,16
 276 1278 276 1278 261 1224 c 0,17,18
 257 1211 257 1211 252.5 1207 c 128,-1,19
 248 1203 248 1203 242 1204 c 2,20,-1
 219 1210 l 2,21,22
 196 1217 196 1217 176.5 1223 c 128,-1,23
 157 1229 157 1229 157 1231 c 1,24,25
 153 1233 153 1233 152 1249.5 c 128,-1,26
 151 1266 151 1266 155 1279 c 0,27,28
 176 1357 176 1357 226.5 1397.5 c 128,-1,29
 277 1438 277 1438 370 1438 c 0,30,31
 473 1438 473 1438 526 1363 c 128,-1,32
 579 1288 579 1288 579 1108 c 2,33,-1
 579 664 l 2,34,35
 579 624 579 624 562 624 c 2,36,-1
 537 624 l 2,37,38
 522 624 522 624 511 659 c 1,39,40
 510 667 510 667 495.5 711 c 128,-1,41
 481 755 481 755 480 764 c 1,42,43
 476 774 476 774 474 764 c 0,44,45
 452 690 452 690 411.5 652.5 c 128,-1,46
 371 615 371 615 300 615 c 0,0,1
328 717 m 0,47,48
 384 717 384 717 418 791 c 128,-1,49
 452 865 452 865 452 967 c 0,50,51
 452 1028 452 1028 445 1028 c 0,52,53
 431 1028 431 1028 421 1023 c 1,54,55
 254 981 254 981 254 825 c 0,56,57
 254 717 254 717 328 717 c 0,47,48
EndSplineSet
EndChar

StartChar: guillemotleft
Encoding: 171 171 109
Width: 829
GlyphClass: 2
Flags: W
LayerCount: 2
Fore
SplineSet
396 218 m 0,0,1
 395 218 395 218 376 237.5 c 128,-1,2
 357 257 357 257 330 284.5 c 128,-1,3
 303 312 303 312 276 340 c 128,-1,4
 249 368 249 368 230 388 c 2,5,-1
 210 408 l 2,6,7
 193 425 193 425 145.5 490.5 c 128,-1,8
 98 556 98 556 98 575 c 1,9,10
 90 584 90 584 90 702 c 0,11,12
 90 781 90 781 105 795 c 1,13,14
 105 804 105 804 294 993 c 2,15,-1
 305 1004 l 2,16,17
 316 1016 316 1016 330 1031 c 128,-1,18
 344 1046 344 1046 359 1061.5 c 128,-1,19
 374 1077 374 1077 384 1087.5 c 128,-1,20
 394 1098 394 1098 395 1098 c 2,21,-1
 397 1098 l 2,22,23
 407 1098 407 1098 410 1071 c 1,24,25
 413 1071 413 1071 413 964 c 0,26,27
 413 910 413 910 398 888 c 1,28,29
 398 881 398 881 370 852.5 c 128,-1,30
 342 824 342 824 310 794.5 c 128,-1,31
 278 765 278 765 277 764 c 0,32,33
 275 763 275 763 233 715 c 128,-1,34
 191 667 191 667 191 664 c 0,35,36
 189 656 189 656 193 650 c 0,37,38
 193 649 193 649 210.5 632.5 c 128,-1,39
 228 616 228 616 249 596.5 c 128,-1,40
 270 577 270 577 288 560 c 2,41,-1
 306 543 l 1,42,43
 405 414 405 414 405 390 c 1,44,45
 413 382 413 382 413 265 c 0,46,47
 413 252 413 252 410 239 c 128,-1,48
 407 226 407 226 404 226 c 1,49,50
 403 217 403 217 398 217 c 0,51,52
 397 217 397 217 396 218 c 0,0,1
736 218 m 2,53,-1
 717 238 l 2,54,55
 698 257 698 257 670.5 284.5 c 128,-1,56
 643 312 643 312 616 340 c 128,-1,57
 589 368 589 368 570 388 c 2,58,-1
 550 408 l 2,59,60
 533 425 533 425 486 490.5 c 128,-1,61
 439 556 439 556 439 575 c 1,62,63
 430 584 430 584 430 702 c 0,64,65
 430 780 430 780 445 795 c 1,66,67
 445 799 445 799 490 845.5 c 128,-1,68
 535 892 535 892 583.5 941.5 c 128,-1,69
 632 991 632 991 634 993 c 0,70,71
 635 994 635 994 660 1020 c 128,-1,72
 685 1046 685 1046 710 1072 c 2,73,-1
 735 1098 l 1,74,-1
 737 1098 l 2,75,76
 748 1098 748 1098 750 1071 c 1,77,78
 754 1071 754 1071 754 964 c 0,79,80
 754 911 754 911 738 888 c 1,81,82
 738 881 738 881 710 852.5 c 128,-1,83
 682 824 682 824 650.5 794.5 c 128,-1,84
 619 765 619 765 618 764 c 0,85,86
 616 763 616 763 574 715 c 128,-1,87
 532 667 532 667 532 664 c 0,88,89
 530 655 530 655 533 650 c 0,90,91
 533 649 533 649 550.5 632.5 c 128,-1,92
 568 616 568 616 589.5 596.5 c 128,-1,93
 611 577 611 577 629 560 c 2,94,-1
 647 543 l 2,95,96
 648 542 648 542 666 518.5 c 128,-1,97
 684 495 684 495 700.5 472.5 c 128,-1,98
 717 450 717 450 731.5 425 c 128,-1,99
 746 400 746 400 746 390 c 1,100,101
 754 382 754 382 754 265 c 0,102,103
 754 252 754 252 751 239 c 128,-1,104
 748 226 748 226 744 226 c 1,105,106
 743 217 743 217 739 217 c 0,107,108
 737 217 737 217 736 218 c 2,53,-1
EndSplineSet
EndChar

StartChar: logicalnot
Encoding: 172 172 110
Width: 1106
GlyphClass: 2
Flags: W
LayerCount: 2
Fore
SplineSet
837 239 m 2,0,1
 785 239 785 239 785 304 c 2,2,-1
 785 543 l 2,3,4
 785 558 785 558 776.5 566.5 c 128,-1,5
 768 575 768 575 756 575 c 2,6,-1
 181 575 l 2,7,8
 129 575 129 575 129 628 c 2,9,-1
 129 688 l 2,10,11
 129 717 129 717 142 729.5 c 128,-1,12
 155 742 155 742 181 742 c 2,13,-1
 915 742 l 2,14,15
 942 742 942 742 959 727 c 128,-1,16
 976 712 976 712 976 684 c 2,17,-1
 976 304 l 2,18,19
 976 239 976 239 925 239 c 2,20,-1
 837 239 l 2,0,1
EndSplineSet
EndChar

StartChar: uni00AD
Encoding: 173 173 111
Width: 540
GlyphClass: 2
Flags: W
LayerCount: 2
Fore
SplineSet
98 590 m 2,0,1
 90 590 90 590 86 591 c 128,-1,2
 82 592 82 592 78.5 597.5 c 128,-1,3
 75 603 75 603 75 615 c 2,4,-1
 75 623 l 2,5,6
 75 636 75 636 78.5 642 c 128,-1,7
 82 648 82 648 86 649 c 128,-1,8
 90 650 90 650 98 650 c 2,9,-1
 462 650 l 2,10,11
 470 650 470 650 474 649 c 128,-1,12
 478 648 478 648 481.5 642.5 c 128,-1,13
 485 637 485 637 485 625 c 2,14,-1
 485 617 l 2,15,16
 485 604 485 604 481.5 598 c 128,-1,17
 478 592 478 592 474 591 c 128,-1,18
 470 590 470 590 462 590 c 2,19,-1
 98 590 l 2,0,1
EndSplineSet
EndChar

StartChar: registered
Encoding: 174 174 112
Width: 1443
GlyphClass: 2
Flags: W
LayerCount: 2
Fore
SplineSet
520 356 m 2,0,1
 503 356 503 356 503 388 c 2,2,-1
 503 1072 l 2,3,4
 503 1105 503 1105 520 1105 c 2,5,-1
 724 1105 l 2,6,7
 769 1105 769 1105 796.5 1102.5 c 128,-1,8
 824 1100 824 1100 858 1088.5 c 128,-1,9
 892 1077 892 1077 910.5 1055.5 c 128,-1,10
 929 1034 929 1034 942 993.5 c 128,-1,11
 955 953 955 953 955 894 c 0,12,13
 955 745 955 745 863 722 c 1,14,-1
 862 718 l 1,15,-1
 863 717 l 1,16,17
 956 680 956 680 961 512 c 1,18,19
 964 452 964 452 964 382 c 0,20,21
 964 356 964 356 953 356 c 2,22,-1
 880 356 l 2,23,24
 864 356 864 356 863 391 c 1,25,26
 863 434 863 434 855.5 516.5 c 128,-1,27
 848 599 848 599 843 608 c 1,28,29
 835 652 835 652 812 667 c 128,-1,30
 789 682 789 682 745 682 c 2,31,-1
 612 682 l 2,32,33
 605 682 605 682 605 667 c 2,34,-1
 605 388 l 2,35,36
 605 356 605 356 589 356 c 2,37,-1
 520 356 l 2,0,1
612 771 m 2,38,-1
 769 771 l 2,39,40
 816 771 816 771 836 800 c 128,-1,41
 856 829 856 829 856 892 c 0,42,43
 856 968 856 968 827.5 992.5 c 128,-1,44
 799 1017 799 1017 738 1017 c 2,45,-1
 612 1017 l 2,46,47
 605 1017 605 1017 605 1004 c 2,48,-1
 605 785 l 2,49,50
 605 771 605 771 612 771 c 2,38,-1
724 93 m 0,51,52
 832 93 832 93 920 130 c 128,-1,53
 1008 167 1008 167 1065.5 227.5 c 128,-1,54
 1123 288 1123 288 1162 370 c 128,-1,55
 1201 452 1201 452 1218 538.5 c 128,-1,56
 1235 625 1235 625 1235 717 c 0,57,58
 1235 812 1235 812 1218 900 c 128,-1,59
 1201 988 1201 988 1162 1070 c 128,-1,60
 1123 1152 1123 1152 1065.5 1212.5 c 128,-1,61
 1008 1273 1008 1273 920 1309.5 c 128,-1,62
 832 1346 832 1346 724 1346 c 0,63,64
 615 1346 615 1346 527 1309.5 c 128,-1,65
 439 1273 439 1273 381.5 1212.5 c 128,-1,66
 324 1152 324 1152 285 1070 c 128,-1,67
 246 988 246 988 229.5 900 c 128,-1,68
 213 812 213 812 213 717 c 0,69,70
 213 625 213 625 229.5 538.5 c 128,-1,71
 246 452 246 452 285 370 c 128,-1,72
 324 288 324 288 381.5 227.5 c 128,-1,73
 439 167 439 167 527 130 c 128,-1,74
 615 93 615 93 724 93 c 0,51,52
721 -16 m 0,75,76
 597 -16 597 -16 493 23.5 c 128,-1,77
 389 63 389 63 316 131.5 c 128,-1,78
 243 200 243 200 192.5 293.5 c 128,-1,79
 142 387 142 387 118 495 c 128,-1,80
 94 603 94 603 94 721 c 128,-1,81
 94 839 94 839 118 946.5 c 128,-1,82
 142 1054 142 1054 192.5 1148 c 128,-1,83
 243 1242 243 1242 316 1310.5 c 128,-1,84
 389 1379 389 1379 493 1418.5 c 128,-1,85
 597 1458 597 1458 721 1458 c 0,86,87
 876 1458 876 1458 998.5 1398 c 128,-1,88
 1121 1338 1121 1338 1196 1234.5 c 128,-1,89
 1271 1131 1271 1131 1310 1000.5 c 128,-1,90
 1349 870 1349 870 1349 721 c 128,-1,91
 1349 572 1349 572 1310 441 c 128,-1,92
 1271 310 1271 310 1196 207 c 128,-1,93
 1121 104 1121 104 998.5 44 c 128,-1,94
 876 -16 876 -16 721 -16 c 0,75,76
EndSplineSet
EndChar

StartChar: macron
Encoding: 175 175 113
Width: 890
GlyphClass: 2
Flags: W
LayerCount: 2
Fore
SplineSet
274 707 m 2,0,1
 238 707 238 707 238 747 c 2,2,-1
 238 778 l 2,3,4
 238 819 238 819 274 819 c 2,5,-1
 632 819 l 2,6,7
 668 819 668 819 668 779 c 2,8,-1
 668 748 l 2,9,10
 668 707 668 707 632 707 c 2,11,-1
 274 707 l 2,0,1
EndSplineSet
EndChar

StartChar: degree
Encoding: 176 176 114
Width: 1268
GlyphClass: 2
Flags: W
LayerCount: 2
Fore
SplineSet
651 1318 m 0,0,1
 699 1318 699 1318 733 1348.5 c 128,-1,2
 767 1379 767 1379 767 1441 c 0,3,4
 767 1506 767 1506 732.5 1534.5 c 128,-1,5
 698 1563 698 1563 651 1563 c 0,6,7
 601 1563 601 1563 566 1534.5 c 128,-1,8
 531 1506 531 1506 532 1441 c 1,9,10
 531 1379 531 1379 566 1348.5 c 128,-1,11
 601 1318 601 1318 651 1318 c 0,0,1
651 1245 m 0,12,13
 617 1245 617 1245 583 1255 c 128,-1,14
 549 1265 549 1265 516.5 1286.5 c 128,-1,15
 484 1308 484 1308 464 1348 c 128,-1,16
 444 1388 444 1388 444 1441 c 0,17,18
 444 1496 444 1496 463 1536 c 128,-1,19
 482 1576 482 1576 513.5 1597 c 128,-1,20
 545 1618 545 1618 579 1627.5 c 128,-1,21
 613 1637 613 1637 651 1637 c 0,22,23
 680 1637 680 1637 707 1631.5 c 128,-1,24
 734 1626 734 1626 761.5 1612 c 128,-1,25
 789 1598 789 1598 809.5 1576.5 c 128,-1,26
 830 1555 830 1555 842.5 1520 c 128,-1,27
 855 1485 855 1485 855 1441 c 0,28,29
 855 1388 855 1388 835 1348 c 128,-1,30
 815 1308 815 1308 783 1286.5 c 128,-1,31
 751 1265 751 1265 717.5 1255 c 128,-1,32
 684 1245 684 1245 651 1245 c 0,12,13
EndSplineSet
EndChar

StartChar: plusminus
Encoding: 177 177 115
Width: 802
GlyphClass: 2
Flags: W
LayerCount: 2
Fore
SplineSet
369 395 m 2,0,1
 352 395 352 395 344 403.5 c 128,-1,2
 336 412 336 412 336 440 c 2,3,-1
 336 647 l 2,4,5
 336 661 336 661 332.5 665 c 128,-1,6
 329 669 329 669 321 669 c 2,7,-1
 142 669 l 2,8,9
 127 669 127 669 119 677 c 128,-1,10
 111 685 111 685 111 710 c 2,11,-1
 111 743 l 2,12,13
 111 770 111 770 118.5 777.5 c 128,-1,14
 126 785 126 785 142 785 c 2,15,-1
 321 785 l 2,16,17
 329 785 329 785 332.5 789 c 128,-1,18
 336 793 336 793 336 807 c 2,19,-1
 336 1004 l 2,20,21
 336 1032 336 1032 344 1040.5 c 128,-1,22
 352 1049 352 1049 369 1049 c 2,23,-1
 441 1049 l 2,24,25
 457 1049 457 1049 464.5 1040.5 c 128,-1,26
 472 1032 472 1032 472 1004 c 2,27,-1
 472 807 l 2,28,29
 472 793 472 793 476 789 c 128,-1,30
 480 785 480 785 489 785 c 2,31,-1
 665 785 l 2,32,33
 675 785 675 785 680.5 783 c 128,-1,34
 686 781 686 781 691 771 c 128,-1,35
 696 761 696 761 696 743 c 2,36,-1
 696 710 l 2,37,38
 696 685 696 685 688 677 c 128,-1,39
 680 669 680 669 665 669 c 2,40,-1
 489 669 l 2,41,42
 480 669 480 669 476 665 c 128,-1,43
 472 661 472 661 472 647 c 2,44,-1
 472 440 l 2,45,46
 472 412 472 412 464.5 403.5 c 128,-1,47
 457 395 457 395 441 395 c 2,48,-1
 369 395 l 2,0,1
141 150 m 2,49,50
 126 150 126 150 118 158 c 128,-1,51
 110 166 110 166 110 192 c 2,52,-1
 110 225 l 2,53,54
 110 251 110 251 118 258.5 c 128,-1,55
 126 266 126 266 141 266 c 2,56,-1
 664 266 l 2,57,58
 679 266 679 266 687 258.5 c 128,-1,59
 695 251 695 251 695 225 c 2,60,-1
 695 192 l 2,61,62
 695 166 695 166 687 158 c 128,-1,63
 679 150 679 150 664 150 c 2,64,-1
 141 150 l 2,49,50
EndSplineSet
EndChar

StartChar: acute
Encoding: 180 180 116
Width: 597
GlyphClass: 2
Flags: W
LayerCount: 2
Fore
SplineSet
363 1169 m 2,0,1
 348 1169 348 1169 348 1201 c 0,2,3
 348 1208 348 1208 350 1236 c 2,4,-1
 370 1559 l 2,5,6
 374 1614 374 1614 396 1614 c 2,7,-1
 477 1614 l 2,8,9
 487 1614 487 1614 487 1586 c 0,10,11
 487 1573 487 1573 483 1549 c 2,12,-1
 420 1208 l 2,13,14
 413 1169 413 1169 401 1169 c 2,15,-1
 363 1169 l 2,0,1
EndSplineSet
EndChar

StartChar: paragraph
Encoding: 182 182 117
Width: 1239
GlyphClass: 2
Flags: W
LayerCount: 2
Fore
SplineSet
643 -1 m 2,0,1
 589 -1 589 -1 589 73 c 2,2,-1
 589 788 l 1,3,-1
 565 788 l 2,4,5
 513 788 513 788 462 799 c 128,-1,6
 411 810 411 810 361 835 c 128,-1,7
 311 860 311 860 273.5 896.5 c 128,-1,8
 236 933 236 933 212.5 990 c 128,-1,9
 189 1047 189 1047 189 1116 c 0,10,11
 189 1288 189 1288 302 1363 c 128,-1,12
 415 1438 415 1438 674 1438 c 0,13,14
 856 1438 856 1438 971 1413 c 0,15,16
 1001 1407 1001 1407 1010.5 1389 c 128,-1,17
 1020 1371 1020 1371 1020 1335 c 2,18,-1
 1020 73 l 2,19,20
 1020 -1 1020 -1 967 -1 c 2,21,-1
 931 -1 l 2,22,23
 878 -1 878 -1 878 73 c 2,24,-1
 878 767 l 2,25,26
 878 776 878 776 872.5 782 c 128,-1,27
 867 788 867 788 859 788 c 2,28,-1
 738 788 l 1,29,-1
 738 73 l 2,30,31
 738 -1 738 -1 684 -1 c 2,32,-1
 643 -1 l 2,0,1
EndSplineSet
EndChar

StartChar: cedilla
Encoding: 184 184 118
Width: 551
GlyphClass: 2
Flags: W
LayerCount: 2
Fore
SplineSet
310 -591 m 0,0,1
 239 -591 239 -591 194 -547 c 128,-1,2
 149 -503 149 -503 149 -424 c 0,3,4
 149 -333 149 -333 179 -333 c 2,5,-1
 230 -333 l 2,6,7
 253 -333 253 -333 253 -367 c 0,8,9
 253 -376 253 -376 251 -393.5 c 128,-1,10
 249 -411 249 -411 249 -418 c 0,11,12
 249 -459 249 -459 266 -485 c 128,-1,13
 283 -511 283 -511 316 -511 c 128,-1,14
 349 -511 349 -511 365.5 -477.5 c 128,-1,15
 382 -444 382 -444 382 -367 c 0,16,17
 382 -308 382 -308 359.5 -255.5 c 128,-1,18
 337 -203 337 -203 309 -203 c 2,19,-1
 279 -203 l 1,20,21
 267 -204 267 -204 267 -193 c 2,22,-1
 267 -133 l 2,23,24
 267 -116 267 -116 279 -116 c 2,25,-1
 343 -116 l 2,26,27
 403 -116 403 -116 442.5 -186.5 c 128,-1,28
 482 -257 482 -257 482 -345 c 0,29,30
 482 -471 482 -471 441 -531 c 128,-1,31
 400 -591 400 -591 310 -591 c 0,0,1
EndSplineSet
EndChar

StartChar: ordmasculine
Encoding: 186 186 119
Width: 691
GlyphClass: 2
Flags: W
LayerCount: 2
Fore
SplineSet
385 724 m 0,0,1
 410 724 410 724 427 735 c 128,-1,2
 444 746 444 746 458.5 777 c 128,-1,3
 473 808 473 808 480 870 c 128,-1,4
 487 932 487 932 487 1029 c 0,5,6
 487 1152 487 1152 473 1220.5 c 128,-1,7
 459 1289 459 1289 439 1309 c 128,-1,8
 419 1329 419 1329 385 1329 c 128,-1,9
 351 1329 351 1329 330.5 1309 c 128,-1,10
 310 1289 310 1289 296 1221 c 128,-1,11
 282 1153 282 1153 282 1029 c 0,12,13
 282 933 282 933 289 870.5 c 128,-1,14
 296 808 296 808 310.5 777 c 128,-1,15
 325 746 325 746 342 735 c 128,-1,16
 359 724 359 724 385 724 c 0,0,1
385 615 m 0,17,18
 359 615 359 615 338.5 617.5 c 128,-1,19
 318 620 318 620 291.5 629.5 c 128,-1,20
 265 639 265 639 245.5 656 c 128,-1,21
 226 673 226 673 205.5 704 c 128,-1,22
 185 735 185 735 172 778 c 128,-1,23
 159 821 159 821 150.5 885 c 128,-1,24
 142 949 142 949 142 1029 c 0,25,26
 142 1139 142 1139 158.5 1218.5 c 128,-1,27
 175 1298 175 1298 198 1339.5 c 128,-1,28
 221 1381 221 1381 257 1404.5 c 128,-1,29
 293 1428 293 1428 320.5 1433 c 128,-1,30
 348 1438 348 1438 385 1438 c 0,31,32
 411 1438 411 1438 430.5 1435.5 c 128,-1,33
 450 1433 450 1433 476.5 1424 c 128,-1,34
 503 1415 503 1415 522.5 1398.5 c 128,-1,35
 542 1382 542 1382 562.5 1351.5 c 128,-1,36
 583 1321 583 1321 596 1278.5 c 128,-1,37
 609 1236 609 1236 617.5 1172.5 c 128,-1,38
 626 1109 626 1109 626 1029 c 0,39,40
 626 918 626 918 610 838 c 128,-1,41
 594 758 594 758 571.5 716 c 128,-1,42
 549 674 549 674 513.5 650 c 128,-1,43
 478 626 478 626 450.5 620.5 c 128,-1,44
 423 615 423 615 385 615 c 0,17,18
EndSplineSet
EndChar

StartChar: guillemotright
Encoding: 187 187 120
Width: 829
GlyphClass: 2
Flags: W
LayerCount: 2
Fore
SplineSet
103 214 m 0,0,1
 90 214 90 214 90 255 c 2,2,-1
 90 358 l 2,3,4
 90 423 90 423 114 450 c 1,5,-1
 309 632 l 2,6,7
 313 636 313 636 313 647 c 128,-1,8
 313 658 313 658 309 662 c 2,9,-1
 113 854 l 1,10,11
 90 883 90 883 90 948 c 2,12,-1
 90 1057 l 2,13,14
 90 1101 90 1101 103 1101 c 0,15,16
 106 1101 106 1101 113 1094 c 2,17,-1
 390 807 l 2,18,19
 413 783 413 783 413 712 c 2,20,-1
 413 587 l 2,21,22
 413 515 413 515 390 493 c 2,23,-1
 113 222 l 2,24,25
 105 214 105 214 103 214 c 0,0,1
443 215 m 0,26,27
 430 215 430 215 430 255 c 2,28,-1
 430 358 l 2,29,30
 430 422 430 422 454 450 c 1,31,-1
 650 632 l 2,32,33
 653 635 653 635 653 647 c 0,34,35
 653 658 653 658 650 662 c 2,36,-1
 454 854 l 1,37,38
 430 882 430 882 430 948 c 2,39,-1
 430 1057 l 2,40,41
 430 1101 430 1101 444 1101 c 0,42,43
 448 1101 448 1101 453 1094 c 1,44,-1
 730 807 l 2,45,46
 754 782 754 782 754 712 c 2,47,-1
 754 587 l 2,48,49
 754 516 754 516 730 493 c 2,50,-1
 453 222 l 2,51,52
 447 215 447 215 443 215 c 0,26,27
EndSplineSet
EndChar

StartChar: onequarter
Encoding: 188 188 121
Width: 1807
GlyphClass: 2
Flags: W
LayerCount: 2
Fore
SplineSet
1550 287 m 2,0,1
 1520 287 1520 287 1520 336 c 2,2,-1
 1520 516 l 1,3,-1
 1202 516 l 2,4,5
 1185 516 1185 516 1173.5 528 c 128,-1,6
 1162 540 1162 540 1162 559 c 0,7,8
 1162 566 1162 566 1163 570 c 2,9,-1
 1278 1384 l 2,10,11
 1283 1414 1283 1414 1288.5 1426 c 128,-1,12
 1294 1438 1294 1438 1308 1438 c 2,13,-1
 1374 1438 l 2,14,15
 1402 1438 1402 1438 1402 1398 c 0,16,17
 1402 1389 1402 1389 1401 1384 c 2,18,-1
 1322 679 l 2,19,20
 1321 673 1321 673 1325.5 664.5 c 128,-1,21
 1330 656 1330 656 1337 656 c 2,22,-1
 1520 656 l 1,23,-1
 1520 1390 l 2,24,25
 1520 1438 1520 1438 1550 1438 c 2,26,-1
 1627 1438 l 2,27,28
 1657 1438 1657 1438 1657 1390 c 2,29,-1
 1657 656 l 1,30,-1
 1761 656 l 2,31,32
 1796 656 1796 656 1796 611 c 2,33,-1
 1796 561 l 2,34,35
 1796 516 1796 516 1761 516 c 2,36,-1
 1657 516 l 1,37,-1
 1657 336 l 2,38,39
 1657 287 1657 287 1627 287 c 2,40,-1
 1550 287 l 2,0,1
727 124 m 2,41,42
 721 124 721 124 721 144 c 0,43,44
 721 145 721 145 721.5 147 c 128,-1,45
 722 149 722 149 722 150 c 2,46,-1
 963 1579 l 1,47,48
 966 1606 966 1606 978 1606 c 2,49,-1
 1049 1606 l 2,50,51
 1055 1606 1055 1606 1055 1588 c 1,52,-1
 1056 1584 l 1,53,54
 1056 1579 1056 1579 1055 1579 c 2,55,-1
 814 150 l 1,56,57
 811 123 811 123 799 123 c 2,58,-1
 727 124 l 2,41,42
379 288 m 2,59,60
 359 288 359 288 359 342 c 2,61,-1
 359 1226 l 2,62,63
 359 1252 359 1252 349 1250 c 0,64,65
 286 1234 286 1234 285 1234 c 0,66,67
 267 1232 267 1232 267 1269 c 2,68,-1
 267 1346 l 2,69,70
 267 1379 267 1379 286 1382 c 1,71,-1
 498 1436 l 2,72,73
 501 1437 501 1437 505 1437 c 0,74,75
 522 1437 522 1437 522 1399 c 2,76,-1
 522 342 l 2,77,78
 522 288 522 288 502 288 c 2,79,-1
 379 288 l 2,59,60
EndSplineSet
EndChar

StartChar: onehalf
Encoding: 189 189 122
Width: 1653
GlyphClass: 2
Flags: W
LayerCount: 2
Fore
SplineSet
358 289 m 2,0,1
 338 289 338 289 338 343 c 2,2,-1
 338 1227 l 2,3,4
 338 1253 338 1253 328 1251 c 0,5,6
 265 1235 265 1235 264 1235 c 0,7,8
 246 1233 246 1233 246 1270 c 2,9,-1
 246 1347 l 2,10,11
 246 1380 246 1380 265 1383 c 1,12,-1
 476 1437 l 2,13,14
 479 1438 479 1438 484 1438 c 0,15,16
 501 1438 501 1438 501 1400 c 2,17,-1
 501 343 l 2,18,19
 501 289 501 289 480 289 c 2,20,-1
 358 289 l 2,0,1
685 125 m 2,21,22
 679 125 679 125 679 145 c 0,23,24
 679 146 679 146 679.5 148 c 128,-1,25
 680 150 680 150 680 151 c 2,26,-1
 921 1580 l 1,27,28
 924 1607 924 1607 936 1607 c 2,29,-1
 1007 1607 l 2,30,31
 1013 1607 1013 1607 1013 1589 c 0,32,33
 1013 1583 1013 1583 1012 1580 c 2,34,-1
 772 151 l 1,35,36
 769 124 769 124 757 124 c 2,37,-1
 685 125 l 2,21,22
1560 290 m 2,38,-1
 1160 290 l 2,39,40
 1139 290 1139 290 1139 345 c 0,41,42
 1139 347 1139 347 1139.5 368.5 c 128,-1,43
 1140 390 1140 390 1140 393 c 0,44,45
 1147 509 1147 509 1182 613 c 128,-1,46
 1217 717 1217 717 1261 790 c 128,-1,47
 1305 863 1305 863 1348 927.5 c 128,-1,48
 1391 992 1391 992 1420.5 1055 c 128,-1,49
 1450 1118 1450 1118 1450 1175 c 0,50,51
 1450 1247 1450 1247 1413.5 1284 c 128,-1,52
 1377 1321 1377 1321 1322 1321 c 0,53,54
 1283 1321 1283 1321 1254.5 1312.5 c 128,-1,55
 1226 1304 1226 1304 1199.5 1288.5 c 128,-1,56
 1173 1273 1173 1273 1167 1271 c 1,57,58
 1152 1257 1152 1257 1150 1281 c 1,59,60
 1136 1341 1136 1341 1136 1356 c 0,61,62
 1136 1385 1136 1385 1143 1395 c 1,63,64
 1227 1452 1227 1452 1345 1452 c 0,65,66
 1606 1452 1606 1452 1606 1201 c 0,67,68
 1606 1130 1606 1130 1581.5 1063 c 128,-1,69
 1557 996 1557 996 1518.5 935 c 128,-1,70
 1480 874 1480 874 1439.5 809.5 c 128,-1,71
 1399 745 1399 745 1359 652 c 128,-1,72
 1319 559 1319 559 1299 454 c 0,73,74
 1298 452 1298 452 1298 445 c 0,75,76
 1298 406 1298 406 1309 406 c 2,77,-1
 1560 406 l 2,78,79
 1575 406 1575 406 1575 366 c 2,80,-1
 1575 327 l 2,81,82
 1575 290 1575 290 1560 290 c 2,38,-1
EndSplineSet
EndChar

StartChar: threequarters
Encoding: 190 190 123
Width: 1916
GlyphClass: 2
Flags: W
LayerCount: 2
Fore
SplineSet
1658 287 m 2,0,1
 1629 287 1629 287 1629 336 c 2,2,-1
 1629 516 l 1,3,-1
 1310 516 l 2,4,5
 1293 516 1293 516 1282 528 c 128,-1,6
 1271 540 1271 540 1271 559 c 0,7,8
 1271 566 1271 566 1272 570 c 2,9,-1
 1386 1384 l 2,10,11
 1391 1413 1391 1413 1397 1425.5 c 128,-1,12
 1403 1438 1403 1438 1417 1438 c 2,13,-1
 1482 1438 l 2,14,15
 1495 1438 1495 1438 1503 1427 c 128,-1,16
 1511 1416 1511 1416 1511 1398 c 0,17,18
 1511 1394 1511 1394 1509 1384 c 2,19,-1
 1431 679 l 2,20,21
 1430 673 1430 673 1434 664.5 c 128,-1,22
 1438 656 1438 656 1445 656 c 2,23,-1
 1629 656 l 1,24,-1
 1629 1390 l 2,25,26
 1629 1438 1629 1438 1658 1438 c 2,27,-1
 1736 1438 l 2,28,29
 1765 1438 1765 1438 1765 1390 c 2,30,-1
 1765 656 l 1,31,-1
 1869 656 l 2,32,33
 1905 656 1905 656 1905 611 c 2,34,-1
 1905 561 l 2,35,36
 1905 516 1905 516 1869 516 c 2,37,-1
 1765 516 l 1,38,-1
 1765 336 l 2,39,40
 1765 287 1765 287 1736 287 c 2,41,-1
 1658 287 l 2,0,1
851 124 m 2,42,43
 845 124 845 124 845 144 c 2,44,-1
 845 150 l 1,45,-1
 1087 1579 l 1,46,47
 1090 1606 1090 1606 1101 1606 c 2,48,-1
 1173 1606 l 2,49,50
 1179 1606 1179 1606 1179 1588 c 0,51,52
 1179 1582 1179 1582 1178 1579 c 2,53,-1
 937 150 l 1,54,55
 934 123 934 123 923 123 c 2,56,-1
 851 124 l 2,42,43
437 276 m 0,57,58
 323 276 323 276 275 316 c 0,59,60
 264 324 264 324 264 361 c 0,61,62
 264 368 264 368 266 395.5 c 128,-1,63
 268 423 268 423 269 423 c 0,64,65
 270 445 270 445 275 446 c 0,66,67
 278 446 278 446 281 443 c 1,68,-1
 290 438 l 2,69,70
 298 433 298 433 302.5 431 c 128,-1,71
 307 429 307 429 317.5 424 c 128,-1,72
 328 419 328 419 337 416.5 c 128,-1,73
 346 414 346 414 358.5 411 c 128,-1,74
 371 408 371 408 386 406.5 c 128,-1,75
 401 405 401 405 417 405 c 0,76,77
 566 405 566 405 566 606 c 1,78,79
 565 699 565 699 529.5 752 c 128,-1,80
 494 805 494 805 426 806 c 1,81,-1
 397 806 l 2,82,83
 383 806 383 806 379 812 c 128,-1,84
 375 818 375 818 375 835 c 2,85,-1
 375 921 l 2,86,87
 375 940 375 940 397 940 c 2,88,-1
 425 940 l 1,89,90
 558 943 558 943 558 1130 c 0,91,92
 558 1234 558 1234 526 1278 c 128,-1,93
 494 1322 494 1322 430 1322 c 0,94,95
 343 1322 343 1322 279 1284 c 1,96,97
 271 1277 271 1277 269 1293 c 0,98,99
 268 1297 268 1297 268 1305 c 1,100,101
 267 1305 267 1305 264 1332 c 128,-1,102
 261 1359 261 1359 261 1364 c 0,103,104
 261 1371 261 1371 264.5 1388.5 c 128,-1,105
 268 1406 268 1406 273 1410 c 0,106,107
 338 1451 338 1451 451 1451 c 128,-1,108
 564 1451 564 1451 631 1377 c 128,-1,109
 698 1303 698 1303 698 1137 c 0,110,111
 698 912 698 912 541 872 c 1,112,113
 622 854 622 854 663 778 c 128,-1,114
 704 702 704 702 704 578 c 0,115,116
 704 494 704 494 682 433 c 128,-1,117
 660 372 660 372 621 339 c 128,-1,118
 582 306 582 306 536.5 291 c 128,-1,119
 491 276 491 276 437 276 c 0,57,58
EndSplineSet
EndChar

StartChar: AE
Encoding: 198 198 131
Width: 1027
GlyphClass: 2
Flags: W
LayerCount: 2
Fore
SplineSet
67 0 m 2,0,1
 53 0 53 0 53 29 c 0,2,3
 53 31 53 31 52.5 37 c 128,-1,4
 52 43 52 43 52 46 c 0,5,6
 52 57 52 57 55 63 c 1,7,-1
 389 1388 l 1,8,9
 399 1438 399 1438 428 1438 c 2,10,-1
 929 1438 l 2,11,12
 938 1438 938 1438 942.5 1436 c 128,-1,13
 947 1434 947 1434 950.5 1425 c 128,-1,14
 954 1416 954 1416 954 1398 c 2,15,-1
 954 1319 l 2,16,17
 954 1294 954 1294 948 1286.5 c 128,-1,18
 942 1279 942 1279 929 1279 c 2,19,-1
 735 1279 l 2,20,21
 723 1279 723 1279 723 1246 c 2,22,-1
 723 842 l 2,23,24
 723 833 723 833 726.5 824 c 128,-1,25
 730 815 730 815 733 815 c 2,26,-1
 889 815 l 2,27,28
 914 815 914 815 914 769 c 2,29,-1
 914 692 l 2,30,31
 914 646 914 646 889 646 c 2,32,-1
 734 646 l 2,33,34
 730 646 730 646 726.5 636 c 128,-1,35
 723 626 723 626 723 616 c 2,36,-1
 723 159 l 1,37,-1
 946 159 l 2,38,39
 955 159 955 159 960 157 c 128,-1,40
 965 155 965 155 968.5 146 c 128,-1,41
 972 137 972 137 972 119 c 2,42,-1
 972 40 l 2,43,44
 972 15 972 15 965.5 7.5 c 128,-1,45
 959 0 959 0 946 0 c 2,46,-1
 551 0 l 2,47,48
 538 0 538 0 532 7.5 c 128,-1,49
 526 15 526 15 526 42 c 2,50,-1
 526 318 l 1,51,-1
 309 318 l 2,52,53
 303 318 303 318 298 295 c 2,54,-1
 235 42 l 1,55,56
 231 17 231 17 223.5 8.5 c 128,-1,57
 216 0 216 0 204 0 c 2,58,-1
 67 0 l 2,0,1
348 443 m 2,59,-1
 520 443 l 2,60,61
 526 443 526 443 526 465 c 2,62,-1
 526 1256 l 2,63,64
 526 1268 526 1268 523 1268 c 0,65,66
 519 1268 519 1268 519 1258 c 1,67,-1
 335 471 l 2,68,69
 333 464 333 464 333 458 c 0,70,71
 333 443 333 443 348 443 c 2,59,-1
EndSplineSet
EndChar

StartChar: Eth
Encoding: 208 208 141
Width: 935
GlyphClass: 2
Flags: W
LayerCount: 2
Fore
SplineSet
326 159 m 2,0,-1
 449 159 l 2,1,2
 526 159 526 159 568 205 c 128,-1,3
 610 251 610 251 630.5 373.5 c 128,-1,4
 651 496 651 496 651 726 c 0,5,6
 651 939 651 939 627.5 1063 c 128,-1,7
 604 1187 604 1187 563 1233 c 128,-1,8
 522 1279 522 1279 456 1279 c 2,9,-1
 325 1279 l 2,10,11
 313 1279 313 1279 313 1257 c 2,12,-1
 313 794 l 1,13,-1
 410 794 l 2,14,15
 436 794 436 794 447.5 783.5 c 128,-1,16
 459 773 459 773 459 746 c 2,17,-1
 459 697 l 1,18,19
 458 674 458 674 446 664.5 c 128,-1,20
 434 655 434 655 410 655 c 2,21,-1
 313 655 l 1,22,-1
 313 181 l 2,23,24
 313 159 313 159 326 159 c 2,0,-1
141 0 m 2,25,26
 128 0 128 0 122 8 c 128,-1,27
 116 16 116 16 116 44 c 2,28,-1
 116 655 l 1,29,-1
 66 655 l 2,30,31
 40 655 40 655 28.5 665.5 c 128,-1,32
 17 676 17 676 17 703 c 2,33,-1
 17 745 l 2,34,35
 17 773 17 773 28.5 783.5 c 128,-1,36
 40 794 40 794 66 794 c 2,37,-1
 116 794 l 1,38,-1
 116 1398 l 2,39,40
 116 1423 116 1423 122 1430.5 c 128,-1,41
 128 1438 128 1438 141 1438 c 2,42,-1
 485 1438 l 2,43,44
 573 1438 573 1438 637.5 1403 c 128,-1,45
 702 1368 702 1368 751 1288 c 128,-1,46
 800 1208 800 1208 824.5 1068.5 c 128,-1,47
 849 929 849 929 849 729 c 0,48,49
 849 587 849 587 840 478.5 c 128,-1,50
 831 370 831 370 816.5 292.5 c 128,-1,51
 802 215 802 215 775 161.5 c 128,-1,52
 748 108 748 108 719 76.5 c 128,-1,53
 690 45 690 45 646 28 c 128,-1,54
 602 11 602 11 560.5 5.5 c 128,-1,55
 519 0 519 0 458 0 c 2,56,-1
 141 0 l 2,25,26
EndSplineSet
EndChar

StartChar: multiply
Encoding: 215 215 148
Width: 801
GlyphClass: 2
Flags: W
LayerCount: 2
Fore
SplineSet
197 342 m 2,0,-1
 147 393 l 2,1,2
 136 404 136 404 136 412 c 0,3,4
 136 426 136 426 157 447 c 2,5,-1
 308 598 l 1,6,-1
 157 750 l 2,7,8
 136 771 136 771 136 785 c 0,9,10
 136 793 136 793 148 805 c 2,11,-1
 198 856 l 2,12,13
 208 866 208 866 217 866 c 0,14,15
 231 866 231 866 252 846 c 2,16,-1
 404 694 l 1,17,-1
 555 845 l 2,18,19
 576 866 576 866 590 866 c 0,20,21
 598 866 598 866 609 855 c 2,22,-1
 660 805 l 2,23,24
 671 794 671 794 671 784 c 0,25,26
 671 770 671 770 651 750 c 2,27,-1
 500 598 l 1,28,-1
 651 447 l 2,29,30
 672 426 672 426 672 413 c 0,31,32
 672 404 672 404 661 393 c 2,33,-1
 610 342 l 2,34,35
 599 331 599 331 590 331 c 0,36,37
 575 331 575 331 555 351 c 2,38,-1
 404 503 l 1,39,-1
 252 351 l 2,40,41
 232 331 232 331 218 331 c 0,42,43
 208 331 208 331 197 342 c 2,0,-1
EndSplineSet
EndChar

StartChar: Oslash
Encoding: 216 216 149
Width: 924
GlyphClass: 2
Flags: W
LayerCount: 2
Fore
SplineSet
304 -205 m 2,0,1
 301 -205 301 -205 299 -191 c 128,-1,2
 297 -177 297 -177 298 -172 c 2,3,-1
 323 2 l 1,4,5
 239 29 239 29 188.5 104.5 c 128,-1,6
 138 180 138 180 112.5 331.5 c 128,-1,7
 87 483 87 483 87 728 c 0,8,9
 87 906 87 906 102 1032.5 c 128,-1,10
 117 1159 117 1159 144.5 1242 c 128,-1,11
 172 1325 172 1325 219.5 1373 c 128,-1,12
 267 1421 267 1421 324 1440 c 128,-1,13
 381 1459 381 1459 462 1459 c 0,14,15
 495 1459 495 1459 528 1454 c 1,16,-1
 551 1614 l 2,17,18
 556 1647 556 1647 566 1647 c 2,19,-1
 641 1647 l 2,20,21
 645 1647 645 1647 647 1636 c 128,-1,22
 649 1625 649 1625 647 1614 c 2,23,-1
 621 1433 l 1,24,25
 735 1385 735 1385 786 1224.5 c 128,-1,26
 837 1064 837 1064 837 728 c 0,27,28
 837 542 837 542 823 412.5 c 128,-1,29
 809 283 809 283 782 198.5 c 128,-1,30
 755 114 755 114 708 67 c 128,-1,31
 661 20 661 20 603.5 2 c 128,-1,32
 546 -16 546 -16 462 -16 c 0,33,34
 446 -16 446 -16 416 -14 c 1,35,-1
 394 -173 l 1,36,37
 391 -206 391 -206 379 -206 c 2,38,-1
 304 -205 l 2,0,1
354 225 m 1,39,-1
 505 1291 l 1,40,41
 483 1296 483 1296 462 1296 c 0,42,43
 392 1296 392 1296 354.5 1246 c 128,-1,44
 317 1196 317 1196 301 1075.5 c 128,-1,45
 285 955 285 955 285 728 c 0,46,47
 285 513 285 513 301 395.5 c 128,-1,48
 317 278 317 278 354 225 c 1,39,-1
461 145 m 0,49,50
 531 145 531 145 568 192.5 c 128,-1,51
 605 240 605 240 622 364 c 128,-1,52
 639 488 639 488 639 728 c 0,53,54
 639 1079 639 1079 586 1184 c 1,55,-1
 440 147 l 1,56,57
 454 145 454 145 461 145 c 0,49,50
EndSplineSet
EndChar

StartChar: Thorn
Encoding: 222 222 155
Width: 866
GlyphClass: 2
Flags: W
LayerCount: 2
Fore
SplineSet
141 0 m 2,0,1
 116 0 116 0 116 52 c 2,2,-1
 116 1385 l 2,3,4
 116 1437 116 1437 141 1437 c 2,5,-1
 288 1437 l 2,6,7
 313 1437 313 1437 313 1385 c 2,8,-1
 313 1216 l 1,9,-1
 435 1216 l 2,10,11
 471 1216 471 1216 497 1215 c 128,-1,12
 523 1214 523 1214 556.5 1209 c 128,-1,13
 590 1204 590 1204 614 1195 c 128,-1,14
 638 1186 638 1186 666 1170 c 128,-1,15
 694 1154 694 1154 713.5 1131.5 c 128,-1,16
 733 1109 733 1109 752 1075.5 c 128,-1,17
 771 1042 771 1042 782 999.5 c 128,-1,18
 793 957 793 957 800 900 c 128,-1,19
 807 843 807 843 807 774 c 0,20,21
 807 692 807 692 797 626.5 c 128,-1,22
 787 561 787 561 770.5 516 c 128,-1,23
 754 471 754 471 727.5 439 c 128,-1,24
 701 407 701 407 674 388.5 c 128,-1,25
 647 370 647 370 609.5 359.5 c 128,-1,26
 572 349 572 349 540 346 c 128,-1,27
 508 343 508 343 466 343 c 2,28,-1
 324 343 l 2,29,30
 313 343 313 343 313 324 c 2,31,-1
 313 52 l 2,32,33
 313 0 313 0 288 0 c 2,34,-1
 141 0 l 2,0,1
323 502 m 2,35,-1
 443 502 l 2,36,37
 496 502 496 502 524 509.5 c 128,-1,38
 552 517 552 517 574 545.5 c 128,-1,39
 596 574 596 574 603 627 c 128,-1,40
 610 680 610 680 610 773 c 0,41,42
 610 832 610 832 605 876.5 c 128,-1,43
 600 921 600 921 593 951 c 128,-1,44
 586 981 586 981 571 1001.5 c 128,-1,45
 556 1022 556 1022 543.5 1033 c 128,-1,46
 531 1044 531 1044 508.5 1049.5 c 128,-1,47
 486 1055 486 1055 469.5 1056 c 128,-1,48
 453 1057 453 1057 424 1057 c 2,49,-1
 323 1057 l 2,50,51
 313 1057 313 1057 313 1037 c 2,52,-1
 313 521 l 2,53,54
 313 502 313 502 323 502 c 2,35,-1
EndSplineSet
EndChar

StartChar: germandbls
Encoding: 223 223 156
Width: 913
GlyphClass: 2
Flags: W
LayerCount: 2
Fore
SplineSet
290 0 m 2,0,-1
 159 0 l 2,1,2
 145 0 145 0 138.5 8 c 128,-1,3
 132 16 132 16 132 44 c 2,4,-1
 132 1042 l 2,5,6
 132 1100 132 1100 140.5 1152 c 128,-1,7
 149 1204 149 1204 173 1258 c 128,-1,8
 197 1312 197 1312 234 1350.5 c 128,-1,9
 271 1389 271 1389 333.5 1413.5 c 128,-1,10
 396 1438 396 1438 477 1438 c 0,11,12
 607 1438 607 1438 684.5 1345.5 c 128,-1,13
 762 1253 762 1253 762 1061 c 0,14,15
 762 1020 762 1020 761 996 c 128,-1,16
 760 972 760 972 754.5 939 c 128,-1,17
 749 906 749 906 739 884.5 c 128,-1,18
 729 863 729 863 710 840.5 c 128,-1,19
 691 818 691 818 663 802 c 1,20,21
 654 792 654 792 654.5 789 c 128,-1,22
 655 786 655 786 664 777 c 1,23,24
 733 748 733 748 772.5 654 c 128,-1,25
 812 560 812 560 812 434 c 0,26,27
 812 0 812 0 432 0 c 1,28,-1
 432 150 l 1,29,30
 532 150 532 150 584.5 223.5 c 128,-1,31
 637 297 637 297 637 435 c 0,32,33
 637 704 637 704 438 704 c 1,34,-1
 438 853 l 1,35,36
 525 853 525 853 562 903 c 128,-1,37
 599 953 599 953 599 1055 c 0,38,39
 599 1180 599 1180 569 1231 c 128,-1,40
 539 1282 539 1282 467 1282 c 0,41,42
 432 1282 432 1282 405 1273 c 128,-1,43
 378 1264 378 1264 361.5 1247 c 128,-1,44
 345 1230 345 1230 334.5 1211.5 c 128,-1,45
 324 1193 324 1193 319 1167.5 c 128,-1,46
 314 1142 314 1142 312.5 1123.5 c 128,-1,47
 311 1105 311 1105 311 1082 c 0,48,49
 311 1074 311 1074 311 1062 c 128,-1,50
 311 1050 311 1050 311 1046 c 2,51,-1
 311 50 l 2,52,53
 311 32 311 32 307.5 20 c 128,-1,54
 304 8 304 8 299.5 4 c 128,-1,55
 295 0 295 0 290 0 c 2,0,-1
EndSplineSet
EndChar

StartChar: ae
Encoding: 230 230 163
Width: 1062
GlyphClass: 2
Flags: W
LayerCount: 2
Fore
SplineSet
970 242 m 2,0,1
 970 128 970 128 917.5 58.5 c 128,-1,2
 865 -11 865 -11 749 -11 c 0,3,4
 673 -11 673 -11 616.5 49.5 c 128,-1,5
 560 110 560 110 534 223 c 1,6,7
 500 110 500 110 436.5 49 c 128,-1,8
 373 -12 373 -12 282 -12 c 0,9,10
 183 -12 183 -12 130.5 51.5 c 128,-1,11
 78 115 78 115 78 238 c 0,12,13
 78 329 78 329 104.5 397 c 128,-1,14
 131 465 131 465 171 500 c 128,-1,15
 211 535 211 535 259 558 c 128,-1,16
 307 581 307 581 348.5 588 c 128,-1,17
 390 595 390 595 421.5 601.5 c 128,-1,18
 453 608 453 608 458 615 c 1,19,-1
 458 662 l 2,20,21
 458 716 458 716 454 752.5 c 128,-1,22
 450 789 450 789 439.5 820.5 c 128,-1,23
 429 852 429 852 408.5 867 c 128,-1,24
 388 882 388 882 356 882 c 0,25,26
 267 882 267 882 237 750 c 1,27,28
 229 722 229 722 213 724 c 1,29,30
 110 750 110 750 108 757 c 1,31,32
 93 765 93 765 105 818 c 1,33,34
 126 903 126 903 192 960 c 128,-1,35
 258 1017 258 1017 356 1017 c 0,36,37
 510 1017 510 1017 555 855 c 1,38,39
 580 935 580 935 630.5 976.5 c 128,-1,40
 681 1018 681 1018 737 1018 c 0,41,42
 791 1018 791 1018 832 995 c 128,-1,43
 873 972 873 972 906 919.5 c 128,-1,44
 939 867 939 867 957.5 774 c 128,-1,45
 976 681 976 681 978 550 c 1,46,47
 978 466 978 466 953 466 c 2,48,-1
 630 466 l 2,49,50
 622 466 622 466 622 441 c 0,51,52
 622 125 622 125 755 125 c 0,53,54
 782 125 782 125 801.5 137 c 128,-1,55
 821 149 821 149 831 163 c 128,-1,56
 841 177 841 177 848 204.5 c 128,-1,57
 855 232 855 232 856.5 245.5 c 128,-1,58
 858 259 858 259 861 288 c 0,59,60
 864 310 864 310 878 310 c 2,61,-1
 947 310 l 2,62,63
 970 310 970 310 970 258 c 2,64,-1
 970 242 l 2,0,1
312 111 m 0,65,66
 381 111 381 111 421.5 205 c 128,-1,67
 462 299 462 299 462 428 c 0,68,69
 462 504 462 504 453 504 c 0,70,71
 435 504 435 504 423 498 c 1,72,73
 226 442 226 442 226 250 c 0,74,75
 226 111 226 111 312 111 c 0,65,66
626 572 m 2,76,-1
 842 572 l 2,77,78
 845 572 845 572 845 597 c 0,79,80
 837 883 837 883 736 883 c 0,81,82
 689 883 689 883 657.5 816.5 c 128,-1,83
 626 750 626 750 622 622 c 1,84,85
 622 572 622 572 626 572 c 2,76,-1
EndSplineSet
EndChar

StartChar: eth
Encoding: 240 240 173
Width: 805
GlyphClass: 2
Flags: W
LayerCount: 2
Fore
SplineSet
397 -18 m 0,0,1
 327 -18 327 -18 272.5 2.5 c 128,-1,2
 218 23 218 23 171.5 72 c 128,-1,3
 125 121 125 121 99.5 214 c 128,-1,4
 74 307 74 307 74 440 c 0,5,6
 74 653 74 653 152 773.5 c 128,-1,7
 230 894 230 894 378 894 c 0,8,9
 463 894 463 894 539 839 c 1,10,11
 529 965 529 965 436 1099 c 1,12,-1
 318 1018 l 1,13,14
 291 1001 291 1001 266 1034 c 1,15,-1
 251 1050 l 1,16,17
 234 1081 234 1081 261 1104 c 1,18,-1
 353 1164 l 1,19,20
 268 1220 268 1220 160 1251 c 1,21,22
 142 1254 142 1254 142 1282 c 0,23,24
 142 1288 142 1288 147 1306.5 c 128,-1,25
 152 1325 152 1325 157 1325 c 1,26,27
 160 1364 160 1364 180 1364 c 2,28,-1
 182 1364 l 1,29,30
 355 1325 355 1325 454 1255 c 1,31,-1
 576 1340 l 1,32,33
 585 1349 585 1349 595 1349 c 0,34,35
 612 1349 612 1349 628 1325 c 1,36,-1
 646 1305 l 1,37,38
 667 1278 667 1278 636 1251 c 1,39,-1
 534 1185 l 1,40,41
 722 962 722 962 722 580 c 0,42,43
 722 354 722 354 688.5 224 c 128,-1,44
 655 94 655 94 585.5 38 c 128,-1,45
 516 -18 516 -18 397 -18 c 0,0,1
400 113 m 0,46,47
 437 113 437 113 464 129 c 128,-1,48
 491 145 491 145 514 184 c 128,-1,49
 537 223 537 223 548.5 297.5 c 128,-1,50
 560 372 560 372 560 480 c 0,51,52
 560 604 560 604 517.5 683.5 c 128,-1,53
 475 763 475 763 398 763 c 0,54,55
 241 763 241 763 241 456 c 0,56,57
 241 272 241 272 279.5 192.5 c 128,-1,58
 318 113 318 113 400 113 c 0,46,47
EndSplineSet
EndChar

StartChar: divide
Encoding: 247 247 180
Width: 867
GlyphClass: 2
Flags: W
LayerCount: 2
Fore
SplineSet
772 638 m 2,0,1
 772 612 772 612 714 612 c 2,2,-1
 151 612 l 2,3,4
 95 612 95 612 95 638 c 2,5,-1
 95 750 l 2,6,7
 95 774 95 774 151 774 c 2,8,-1
 714 774 l 2,9,10
 772 774 772 774 772 750 c 2,11,-1
 772 638 l 2,0,1
378 941 m 2,12,13
 353 941 353 941 353 995 c 2,14,-1
 353 1124 l 2,15,16
 353 1177 353 1177 378 1177 c 2,17,-1
 497 1177 l 2,18,19
 522 1177 522 1177 522 1124 c 2,20,-1
 522 995 l 2,21,22
 522 941 522 941 497 941 c 2,23,-1
 378 941 l 2,12,13
378 195 m 2,24,25
 353 195 353 195 353 249 c 2,26,-1
 353 378 l 2,27,28
 353 431 353 431 378 431 c 2,29,-1
 497 431 l 2,30,31
 522 431 522 431 522 378 c 2,32,-1
 522 249 l 2,33,34
 522 195 522 195 497 195 c 2,35,-1
 378 195 l 2,24,25
EndSplineSet
EndChar

StartChar: oslash
Encoding: 248 248 181
Width: 768
GlyphClass: 2
Flags: W
LayerCount: 2
Fore
SplineSet
177 -84 m 1,0,-1
 132 -68 l 2,1,2
 131 -68 131 -68 131 -65 c 0,3,4
 131 -60 131 -60 135 -46 c 1,5,-1
 182 69 l 1,6,7
 171 82 171 82 161 98 c 128,-1,8
 151 114 151 114 141.5 133 c 128,-1,9
 132 152 132 152 124 175 c 128,-1,10
 116 198 116 198 109.5 224.5 c 128,-1,11
 103 251 103 251 97.5 281.5 c 128,-1,12
 92 312 92 312 88.5 347 c 128,-1,13
 85 382 85 382 83 422 c 128,-1,14
 81 462 81 462 81 506 c 0,15,16
 81 606 81 606 91.5 685.5 c 128,-1,17
 102 765 102 765 119 818 c 128,-1,18
 136 871 136 871 162 909.5 c 128,-1,19
 188 948 188 948 212.5 968.5 c 128,-1,20
 237 989 237 989 270.5 1000.5 c 128,-1,21
 304 1012 304 1012 328.5 1015 c 128,-1,22
 353 1018 353 1018 385 1018 c 0,23,24
 490 1018 490 1018 550 973 c 1,25,-1
 590 1071 l 1,26,27
 600 1090 600 1090 604 1090 c 2,28,-1
 605 1090 l 1,29,-1
 650 1075 l 2,30,31
 652 1075 652 1075 652 1070 c 0,32,33
 652 1063 652 1063 647 1053 c 2,34,-1
 596 927 l 1,35,36
 624 889 624 889 643.5 836 c 128,-1,37
 663 783 663 783 675 698.5 c 128,-1,38
 687 614 687 614 687 506 c 0,39,40
 687 406 687 406 676.5 325.5 c 128,-1,41
 666 245 666 245 650 192 c 128,-1,42
 634 139 634 139 608.5 100 c 128,-1,43
 583 61 583 61 558.5 40 c 128,-1,44
 534 19 534 19 501 7 c 128,-1,45
 468 -5 468 -5 443 -8 c 128,-1,46
 418 -11 418 -11 385 -11 c 0,47,48
 287 -11 287 -11 229 27 c 1,49,-1
 191 -65 l 1,50,51
 185 -84 185 -84 178 -84 c 2,52,-1
 177 -84 l 1,0,-1
504 701 m 1,53,54
 294 186 l 1,55,56
 309 152 309 152 331.5 138.5 c 128,-1,57
 354 125 354 125 385 125 c 0,58,59
 417 125 417 125 438 138.5 c 128,-1,60
 459 152 459 152 477 190.5 c 128,-1,61
 495 229 495 229 504 307.5 c 128,-1,62
 513 386 513 386 513 506 c 0,63,64
 513 566 513 566 510.5 614.5 c 128,-1,65
 508 663 508 663 504 701 c 1,53,54
481 804 m 1,66,67
 465 848 465 848 441.5 865 c 128,-1,68
 418 882 418 882 385 882 c 0,69,70
 354 882 354 882 332.5 868 c 128,-1,71
 311 854 311 854 292.5 815.5 c 128,-1,72
 274 777 274 777 265 700.5 c 128,-1,73
 256 624 256 624 256 506 c 0,74,75
 256 366 256 366 269 282 c 1,76,-1
 481 804 l 1,66,67
EndSplineSet
EndChar

StartChar: thorn
Encoding: 254 254 187
Width: 765
GlyphClass: 2
Flags: W
LayerCount: 2
Fore
SplineSet
128 -374 m 2,0,1
 118 -374 118 -374 111 -353 c 128,-1,2
 104 -332 104 -332 104 -300 c 2,3,-1
 104 1355 l 2,4,5
 104 1387 104 1387 111 1407.5 c 128,-1,6
 118 1428 118 1428 129 1428 c 2,7,-1
 240 1428 l 2,8,9
 251 1428 251 1428 258 1407.5 c 128,-1,10
 265 1387 265 1387 265 1355 c 2,11,-1
 265 884 l 2,12,13
 265 869 265 869 270 869 c 128,-1,14
 275 869 275 869 277 876 c 0,15,16
 305 947 305 947 349.5 982.5 c 128,-1,17
 394 1018 394 1018 446 1018 c 0,18,19
 493 1018 493 1018 534 991.5 c 128,-1,20
 575 965 575 965 610 908 c 128,-1,21
 645 851 645 851 665 746.5 c 128,-1,22
 685 642 685 642 685 500 c 0,23,24
 685 365 685 365 663.5 262.5 c 128,-1,25
 642 160 642 160 605 102.5 c 128,-1,26
 568 45 568 45 524.5 17 c 128,-1,27
 481 -11 481 -11 433 -11 c 0,28,29
 384 -11 384 -11 339 23.5 c 128,-1,30
 294 58 294 58 265 129 c 1,31,-1
 265 -300 l 2,32,33
 265 -332 265 -332 258 -353 c 128,-1,34
 251 -374 251 -374 240 -374 c 2,35,-1
 128 -374 l 2,0,1
399 125 m 0,36,37
 518 125 518 125 518 511 c 0,38,39
 518 689 518 689 486 785.5 c 128,-1,40
 454 882 454 882 398 882 c 0,41,42
 340 882 340 882 302.5 779.5 c 128,-1,43
 265 677 265 677 265 511 c 128,-1,44
 265 345 265 345 302.5 235 c 128,-1,45
 340 125 340 125 399 125 c 0,36,37
EndSplineSet
EndChar

StartChar: Dcroat
Encoding: 272 272 205
Width: 935
GlyphClass: 2
Flags: W
LayerCount: 2
Fore
SplineSet
326 159 m 2,0,-1
 449 159 l 2,1,2
 526 159 526 159 568 205 c 128,-1,3
 610 251 610 251 630.5 373.5 c 128,-1,4
 651 496 651 496 651 726 c 0,5,6
 651 939 651 939 627.5 1063 c 128,-1,7
 604 1187 604 1187 563 1233 c 128,-1,8
 522 1279 522 1279 456 1279 c 2,9,-1
 325 1279 l 2,10,11
 313 1279 313 1279 313 1257 c 2,12,-1
 313 777 l 1,13,-1
 455 777 l 2,14,15
 490 777 490 777 490 738 c 2,16,-1
 490 710 l 2,17,18
 490 671 490 671 455 671 c 2,19,-1
 313 671 l 1,20,-1
 313 181 l 2,21,22
 313 159 313 159 326 159 c 2,0,-1
141 0 m 2,23,24
 128 0 128 0 122 8 c 128,-1,25
 116 16 116 16 116 44 c 2,26,-1
 116 671 l 1,27,-1
 40 671 l 2,28,29
 5 671 5 671 5 709 c 2,30,-1
 5 738 l 2,31,32
 5 777 5 777 40 777 c 2,33,-1
 116 777 l 1,34,-1
 116 1398 l 2,35,36
 116 1423 116 1423 122 1430.5 c 128,-1,37
 128 1438 128 1438 141 1438 c 2,38,-1
 485 1438 l 2,39,40
 573 1438 573 1438 637.5 1403 c 128,-1,41
 702 1368 702 1368 751 1288 c 128,-1,42
 800 1208 800 1208 824.5 1068.5 c 128,-1,43
 849 929 849 929 849 729 c 0,44,45
 849 587 849 587 840 478.5 c 128,-1,46
 831 370 831 370 816.5 292.5 c 128,-1,47
 802 215 802 215 775 161.5 c 128,-1,48
 748 108 748 108 719 76.5 c 128,-1,49
 690 45 690 45 646 28 c 128,-1,50
 602 11 602 11 560.5 5.5 c 128,-1,51
 519 0 519 0 458 0 c 2,52,-1
 141 0 l 2,23,24
EndSplineSet
EndChar

StartChar: dcroat
Encoding: 273 273 206
Width: 789
GlyphClass: 2
Flags: W
LayerCount: 2
Fore
SplineSet
342 -11 m 0,0,1
 79 -11 79 -11 79 500 c 0,2,3
 79 1018 79 1018 335 1018 c 0,4,5
 446 1018 446 1018 499 878 c 1,6,7
 506 868 506 868 507 868 c 0,8,9
 511 868 511 868 511 885 c 2,10,-1
 511 1174 l 1,11,-1
 337 1174 l 2,12,13
 303 1174 303 1174 303 1212 c 2,14,-1
 303 1241 l 2,15,16
 303 1280 303 1280 337 1280 c 2,17,-1
 511 1280 l 1,18,-1
 511 1368 l 2,19,20
 511 1428 511 1428 536 1428 c 2,21,-1
 660 1428 l 2,22,23
 685 1428 685 1428 685 1368 c 2,24,-1
 685 1280 l 1,25,-1
 752 1280 l 2,26,27
 787 1280 787 1280 787 1241 c 2,28,-1
 787 1213 l 2,29,30
 787 1174 787 1174 752 1174 c 2,31,-1
 685 1174 l 1,32,-1
 685 67 l 2,33,34
 685 0 685 0 661 0 c 0,35,36
 629 1 629 1 628 3 c 1,37,38
 607 10 607 10 597 63 c 0,39,40
 572 194 572 194 572 199 c 0,41,42
 571 214 571 214 566 216 c 1,43,44
 563 213 563 213 559 204 c 1,45,46
 532 80 532 80 477 34.5 c 128,-1,47
 422 -11 422 -11 342 -11 c 0,0,1
510 511 m 0,48,49
 510 700 510 700 476 791 c 128,-1,50
 442 882 442 882 381 882 c 0,51,52
 351 882 351 882 329.5 866.5 c 128,-1,53
 308 851 308 851 290 812 c 128,-1,54
 272 773 272 773 263 697.5 c 128,-1,55
 254 622 254 622 254 511 c 0,56,57
 254 356 254 356 270 269 c 128,-1,58
 286 182 286 182 312 153.5 c 128,-1,59
 338 125 338 125 380 125 c 0,60,61
 510 125 510 125 510 511 c 0,48,49
EndSplineSet
EndChar

StartChar: Hbar
Encoding: 294 294 225
Width: 947
GlyphClass: 2
Flags: W
LayerCount: 2
Fore
SplineSet
142 0 m 2,0,1
 128 0 128 0 122 8.5 c 128,-1,2
 116 17 116 17 116 47 c 2,3,-1
 116 1174 l 1,4,-1
 54 1174 l 2,5,6
 19 1174 19 1174 19 1212 c 2,7,-1
 19 1241 l 2,8,9
 19 1280 19 1280 54 1280 c 2,10,-1
 116 1280 l 1,11,-1
 116 1391 l 2,12,13
 116 1421 116 1421 122 1429.5 c 128,-1,14
 128 1438 128 1438 142 1438 c 2,15,-1
 287 1438 l 2,16,17
 301 1438 301 1438 307 1429.5 c 128,-1,18
 313 1421 313 1421 313 1391 c 2,19,-1
 313 1280 l 1,20,-1
 634 1280 l 1,21,-1
 634 1391 l 2,22,23
 634 1420 634 1420 640.5 1429 c 128,-1,24
 647 1438 647 1438 660 1438 c 2,25,-1
 807 1438 l 2,26,27
 820 1438 820 1438 826 1429.5 c 128,-1,28
 832 1421 832 1421 832 1391 c 2,29,-1
 832 1280 l 1,30,-1
 893 1280 l 2,31,32
 928 1280 928 1280 928 1241 c 2,33,-1
 928 1213 l 2,34,35
 928 1174 928 1174 893 1174 c 2,36,-1
 832 1174 l 1,37,-1
 832 47 l 2,38,39
 832 17 832 17 826 8.5 c 128,-1,40
 820 0 820 0 807 0 c 2,41,-1
 660 0 l 2,42,43
 651 0 651 0 646 2.5 c 128,-1,44
 641 5 641 5 637 16 c 128,-1,45
 633 27 633 27 633 47 c 2,46,-1
 633 658 l 2,47,48
 633 679 633 679 622 679 c 2,49,-1
 325 679 l 2,50,51
 315 679 315 679 315 658 c 2,52,-1
 315 47 l 2,53,54
 315 18 315 18 308.5 9 c 128,-1,55
 302 0 302 0 289 0 c 2,56,-1
 142 0 l 2,0,1
323 836 m 2,57,-1
 623 836 l 2,58,59
 626 836 626 836 630 843.5 c 128,-1,60
 634 851 634 851 634 860 c 2,61,-1
 634 1174 l 1,62,-1
 313 1174 l 1,63,-1
 313 859 l 2,64,65
 313 850 313 850 316.5 843 c 128,-1,66
 320 836 320 836 323 836 c 2,57,-1
EndSplineSet
EndChar

StartChar: hbar
Encoding: 295 295 226
Width: 785
GlyphClass: 2
Flags: W
LayerCount: 2
Fore
SplineSet
130 0 m 2,0,1
 117 0 117 0 110.5 9.5 c 128,-1,2
 104 19 104 19 104 49 c 2,3,-1
 104 1174 l 1,4,-1
 41 1174 l 2,5,6
 6 1174 6 1174 6 1212 c 2,7,-1
 6 1241 l 2,8,9
 6 1280 6 1280 41 1280 c 2,10,-1
 104 1280 l 1,11,-1
 104 1384 l 2,12,13
 104 1437 104 1437 130 1437 c 2,14,-1
 257 1437 l 2,15,16
 282 1437 282 1437 282 1384 c 2,17,-1
 282 1280 l 1,18,-1
 468 1280 l 2,19,20
 502 1280 502 1280 502 1241 c 2,21,-1
 502 1213 l 2,22,23
 502 1174 502 1174 468 1174 c 2,24,-1
 282 1174 l 1,25,-1
 282 878 l 2,26,27
 282 863 282 863 287 863 c 0,28,29
 290 863 290 863 294 869 c 1,30,31
 325 946 325 946 378 982 c 128,-1,32
 431 1018 431 1018 485 1018 c 0,33,34
 534 1018 534 1018 570 997 c 128,-1,35
 606 976 606 976 635 927 c 128,-1,36
 664 878 664 878 679 789.5 c 128,-1,37
 694 701 694 701 694 574 c 2,38,-1
 694 49 l 2,39,40
 694 19 694 19 687.5 9.5 c 128,-1,41
 681 0 681 0 669 0 c 2,42,-1
 541 0 l 2,43,44
 528 0 528 0 522 9.5 c 128,-1,45
 516 19 516 19 516 49 c 2,46,-1
 516 595 l 2,47,48
 516 749 516 749 495 815.5 c 128,-1,49
 474 882 474 882 422 882 c 0,50,51
 363 882 363 882 322.5 799.5 c 128,-1,52
 282 717 282 717 282 588 c 2,53,-1
 282 49 l 2,54,55
 282 19 282 19 276 9.5 c 128,-1,56
 270 0 270 0 258 0 c 2,57,-1
 130 0 l 2,0,1
EndSplineSet
EndChar

StartChar: dotlessi
Encoding: 305 305 236
Width: 363
GlyphClass: 2
Flags: W
LayerCount: 2
Fore
SplineSet
133 0 m 2,0,1
 108 0 108 0 108 67 c 2,2,-1
 108 940 l 2,3,4
 108 1006 108 1006 133 1006 c 2,5,-1
 245 1006 l 2,6,7
 269 1006 269 1006 269 940 c 2,8,-1
 269 67 l 2,9,10
 269 0 269 0 245 0 c 2,11,-1
 133 0 l 2,0,1
EndSplineSet
EndChar

StartChar: kgreenlandic
Encoding: 312 312 243
Width: 706
GlyphClass: 2
Flags: W
LayerCount: 2
Fore
SplineSet
130 0 m 2,0,1
 105 0 105 0 105 61 c 2,2,-1
 105 946 l 2,3,4
 105 1006 105 1006 130 1006 c 2,5,-1
 243 1006 l 2,6,7
 268 1006 268 1006 268 946 c 2,8,-1
 268 590 l 2,9,10
 268 575 268 575 274 575 c 1,11,12
 277 578 l 1,13,-1
 463 953 l 2,14,15
 477 981 477 981 488.5 993.5 c 128,-1,16
 500 1006 500 1006 514 1006 c 2,17,-1
 651 1006 l 2,18,19
 660 1006 660 1006 660 984 c 0,20,21
 660 968 660 968 651 953 c 1,22,-1
 469 579 l 2,23,24
 465 572 465 572 465 560 c 0,25,26
 465 550 465 550 468 542 c 2,27,-1
 668 59 l 2,28,29
 674 44 674 44 674 29 c 0,30,31
 674 0 674 0 663 0 c 2,32,-1
 523 0 l 2,33,34
 502 0 502 0 485 48 c 2,35,-1
 345 442 l 1,36,37
 340 452 340 452 337 452 c 0,38,39
 331 452 331 452 330 445 c 1,40,41
 326 439 326 439 312.5 411.5 c 128,-1,42
 299 384 299 384 287 360 c 2,43,-1
 275 335 l 1,44,45
 268 316 268 316 268 288 c 2,46,-1
 268 61 l 2,47,48
 268 0 268 0 243 0 c 2,49,-1
 130 0 l 2,0,1
EndSplineSet
EndChar

StartChar: Lslash
Encoding: 321 321 252
Width: 652
GlyphClass: 2
Flags: W
LayerCount: 2
Fore
SplineSet
587 0 m 2,0,-1
 141 0 l 2,1,2
 128 0 128 0 122 8.5 c 128,-1,3
 116 17 116 17 116 47 c 2,4,-1
 116 653 l 1,5,-1
 38 632 l 1,6,7
 26 630 26 630 19 638.5 c 128,-1,8
 12 647 12 647 12 672 c 2,9,-1
 12 759 l 2,10,11
 12 776 12 776 16.5 784.5 c 128,-1,12
 21 793 21 793 24.5 794.5 c 128,-1,13
 28 796 28 796 38 798 c 2,14,-1
 116 819 l 1,15,-1
 116 1391 l 2,16,17
 116 1421 116 1421 122 1429.5 c 128,-1,18
 128 1438 128 1438 141 1438 c 2,19,-1
 288 1438 l 2,20,21
 301 1438 301 1438 307 1429.5 c 128,-1,22
 313 1421 313 1421 313 1391 c 2,23,-1
 313 869 l 1,24,-1
 479 913 l 2,25,26
 491 916 491 916 497.5 907.5 c 128,-1,27
 504 899 504 899 504 873 c 2,28,-1
 504 786 l 2,29,30
 504 769 504 769 500 760.5 c 128,-1,31
 496 752 496 752 492.5 750.5 c 128,-1,32
 489 749 489 749 479 747 c 2,33,-1
 313 703 l 1,34,-1
 313 181 l 2,35,36
 313 159 313 159 327 159 c 2,37,-1
 587 159 l 2,38,39
 600 159 600 159 606 152 c 128,-1,40
 612 145 612 145 612 120 c 2,41,-1
 612 40 l 2,42,43
 612 15 612 15 606 7.5 c 128,-1,44
 600 0 600 0 587 0 c 2,0,-1
EndSplineSet
EndChar

StartChar: lslash
Encoding: 322 322 253
Width: 363
GlyphClass: 2
Flags: W
LayerCount: 2
Fore
SplineSet
247 0 m 2,0,-1
 135 0 l 2,1,2
 110 0 110 0 110 54 c 2,3,-1
 110 734 l 1,4,-1
 1 706 l 2,5,6
 -11 702 -11 702 -18.5 711 c 128,-1,7
 -26 720 -26 720 -26 750 c 2,8,-1
 -26 811 l 2,9,10
 -26 821 -26 821 -24.5 828.5 c 128,-1,11
 -23 836 -23 836 -22 840.5 c 128,-1,12
 -21 845 -21 845 -17.5 848 c 128,-1,13
 -14 851 -14 851 -12.5 851.5 c 128,-1,14
 -11 852 -11 852 -5.5 853.5 c 128,-1,15
 0 855 0 855 1 855 c 2,16,-1
 110 883 l 1,17,-1
 110 1402 l 2,18,19
 110 1462 110 1462 135 1462 c 2,20,-1
 247 1462 l 2,21,22
 272 1462 272 1462 272 1402 c 2,23,-1
 272 926 l 1,24,-1
 378 954 l 2,25,26
 390 958 390 958 397.5 949 c 128,-1,27
 405 940 405 940 405 911 c 2,28,-1
 405 849 l 2,29,30
 405 837 405 837 404 829 c 128,-1,31
 403 821 403 821 399 816.5 c 128,-1,32
 395 812 395 812 394 810.5 c 128,-1,33
 393 809 393 809 386 808 c 2,34,-1
 378 806 l 1,35,-1
 272 778 l 1,36,-1
 272 54 l 2,37,38
 272 0 272 0 247 0 c 2,0,-1
EndSplineSet
EndChar

StartChar: OE
Encoding: 338 338 266
Width: 1175
GlyphClass: 2
Flags: W
LayerCount: 2
Fore
SplineSet
498 0 m 2,0,1
 450 0 450 0 410 7 c 128,-1,2
 370 14 370 14 326.5 33.5 c 128,-1,3
 283 53 283 53 249.5 86 c 128,-1,4
 216 119 216 119 184.5 174 c 128,-1,5
 153 229 153 229 132.5 303.5 c 128,-1,6
 112 378 112 378 99.5 484.5 c 128,-1,7
 87 591 87 591 87 722 c 0,8,9
 87 885 87 885 108.5 1011 c 128,-1,10
 130 1137 130 1137 166 1216.5 c 128,-1,11
 202 1296 202 1296 253.5 1347 c 128,-1,12
 305 1398 305 1398 359.5 1418 c 128,-1,13
 414 1438 414 1438 479 1438 c 2,14,-1
 1076 1438 l 2,15,16
 1087 1438 1087 1438 1094 1421.5 c 128,-1,17
 1101 1405 1101 1405 1101 1379 c 2,18,-1
 1101 1339 l 2,19,20
 1101 1279 1101 1279 1076 1279 c 2,21,-1
 789 1279 l 2,22,23
 778 1279 778 1279 778 1246 c 2,24,-1
 778 838 l 2,25,26
 778 828 778 828 781 819.5 c 128,-1,27
 784 811 784 811 787 811 c 2,28,-1
 1030 811 l 2,29,30
 1041 811 1041 811 1048.5 795.5 c 128,-1,31
 1056 780 1056 780 1056 753 c 2,32,-1
 1056 712 l 2,33,34
 1056 653 1056 653 1030 653 c 2,35,-1
 788 653 l 2,36,37
 784 653 784 653 781 643 c 128,-1,38
 778 633 778 633 778 623 c 2,39,-1
 778 188 l 2,40,41
 778 159 778 159 786 159 c 2,42,-1
 1094 159 l 2,43,44
 1118 159 1118 159 1118 99 c 2,45,-1
 1118 60 l 2,46,47
 1118 0 1118 0 1094 0 c 2,48,-1
 498 0 l 2,0,1
572 158 m 2,49,50
 576 158 576 158 576 718 c 0,51,52
 576 1279 576 1279 572 1279 c 2,53,-1
 489 1279 l 2,54,55
 285 1279 285 1279 285 722 c 0,56,57
 285 563 285 563 299.5 451.5 c 128,-1,58
 314 340 314 340 341.5 277 c 128,-1,59
 369 214 369 214 405 186 c 128,-1,60
 441 158 441 158 489 158 c 2,61,-1
 572 158 l 2,49,50
EndSplineSet
EndChar

StartChar: oe
Encoding: 339 339 267
Width: 1090
GlyphClass: 2
Flags: W
LayerCount: 2
Fore
SplineSet
1012 242 m 2,0,1
 1012 132 1012 132 957.5 60.5 c 128,-1,2
 903 -11 903 -11 794 -11 c 0,3,4
 642 -11 642 -11 579 161 c 1,5,6
 515 -11 515 -11 373 -11 c 0,7,8
 340 -11 340 -11 315.5 -8 c 128,-1,9
 291 -5 291 -5 259 7 c 128,-1,10
 227 19 227 19 203.5 40 c 128,-1,11
 180 61 180 61 155.5 99.5 c 128,-1,12
 131 138 131 138 115.5 191.5 c 128,-1,13
 100 245 100 245 90.5 325 c 128,-1,14
 81 405 81 405 81 506 c 0,15,16
 81 606 81 606 91 685.5 c 128,-1,17
 101 765 101 765 116 817.5 c 128,-1,18
 131 870 131 870 155.5 908.5 c 128,-1,19
 180 947 180 947 203 967.5 c 128,-1,20
 226 988 226 988 257.5 1000 c 128,-1,21
 289 1012 289 1012 313 1015 c 128,-1,22
 337 1018 337 1018 369 1018 c 0,23,24
 508 1018 508 1018 576 857 c 1,25,26
 647 1018 647 1018 778 1018 c 0,27,28
 831 1018 831 1018 872.5 995 c 128,-1,29
 914 972 914 972 947.5 920 c 128,-1,30
 981 868 981 868 999.5 774.5 c 128,-1,31
 1018 681 1018 681 1020 550 c 1,32,33
 1020 466 1020 466 996 466 c 2,34,-1
 666 466 l 2,35,36
 658 466 658 466 658 441 c 0,37,38
 660 125 660 125 795 125 c 0,39,40
 822 125 822 125 842 137 c 128,-1,41
 862 149 862 149 872 163 c 128,-1,42
 882 177 882 177 889.5 204 c 128,-1,43
 897 231 897 231 898.5 245.5 c 128,-1,44
 900 260 900 260 903 288 c 0,45,46
 906 310 906 310 920 310 c 2,47,-1
 989 310 l 2,48,49
 1012 310 1012 310 1012 260 c 2,50,-1
 1012 242 l 2,0,1
663 572 m 2,51,-1
 885 572 l 2,52,53
 887 572 887 572 887 597 c 0,54,55
 879 883 879 883 776 883 c 0,56,57
 728 883 728 883 696.5 820.5 c 128,-1,58
 665 758 665 758 659 622 c 1,59,60
 659 572 659 572 663 572 c 2,51,-1
367 125 m 0,61,62
 398 125 398 125 418.5 138.5 c 128,-1,63
 439 152 439 152 457 191 c 128,-1,64
 475 230 475 230 483 307.5 c 128,-1,65
 491 385 491 385 491 506 c 0,66,67
 491 624 491 624 482.5 700.5 c 128,-1,68
 474 777 474 777 456.5 815.5 c 128,-1,69
 439 854 439 854 418.5 868 c 128,-1,70
 398 882 398 882 367 882 c 128,-1,71
 336 882 336 882 315 868 c 128,-1,72
 294 854 294 854 276 815.5 c 128,-1,73
 258 777 258 777 249.5 700.5 c 128,-1,74
 241 624 241 624 241 506 c 0,75,76
 241 347 241 347 257.5 261 c 128,-1,77
 274 175 274 175 299 150 c 128,-1,78
 324 125 324 125 367 125 c 0,61,62
EndSplineSet
EndChar

StartChar: florin
Encoding: 402 402 306
Width: 526
GlyphClass: 2
Flags: W
LayerCount: 2
Fore
SplineSet
5 -139 m 2,0,1
 -17 -139 -17 -139 -26 -132 c 128,-1,2
 -35 -125 -35 -125 -35 -104 c 0,3,4
 -35 -96 -35 -96 -34 -78 c 128,-1,5
 -33 -60 -33 -60 -33 -59 c 0,6,7
 -29 -13 -29 -13 -21 -9 c 0,8,9
 -19 -7 -19 -7 -15 -7 c 2,10,-1
 1 -7 l 2,11,12
 56 -7 56 -7 83 36 c 128,-1,13
 110 79 110 79 120 200 c 2,14,-1
 166 766 l 2,15,16
 168 797 168 797 162 797 c 2,17,-1
 86 797 l 2,18,19
 74 797 74 797 69.5 805.5 c 128,-1,20
 65 814 65 814 68 839 c 2,21,-1
 74 900 l 1,22,23
 80 947 80 947 102 947 c 2,24,-1
 178 947 l 2,25,26
 183 947 183 947 189 1008 c 0,27,28
 200 1127 200 1127 222.5 1207 c 128,-1,29
 245 1287 245 1287 279.5 1330 c 128,-1,30
 314 1373 314 1373 354 1390 c 128,-1,31
 394 1407 394 1407 448 1407 c 0,32,33
 480 1407 480 1407 501 1399 c 128,-1,34
 522 1391 522 1391 522 1383 c 1,35,36
 523 1383 523 1383 523 1356 c 2,37,-1
 523 1325 l 1,38,39
 520 1272 520 1272 505 1272 c 2,40,-1
 478 1272 l 2,41,42
 425 1272 425 1272 398.5 1227.5 c 128,-1,43
 372 1183 372 1183 360 1065 c 2,44,-1
 348 953 l 2,45,46
 348 947 348 947 350 947 c 2,47,-1
 460 947 l 2,48,49
 482 947 482 947 478 904 c 2,50,-1
 472 839 l 2,51,52
 469 814 469 814 462.5 805.5 c 128,-1,53
 456 797 456 797 444 797 c 2,54,-1
 346 797 l 2,55,56
 336 797 336 797 334 766 c 2,57,-1
 295 260 l 1,58,59
 263 -139 263 -139 31 -139 c 2,60,-1
 5 -139 l 2,0,1
EndSplineSet
EndChar

StartChar: uni0237
Encoding: 567 567 349
Width: 404
GlyphClass: 2
Flags: W
LayerCount: 2
Fore
SplineSet
34 -335 m 2,0,1
 23 -335 23 -335 16 -319 c 128,-1,2
 9 -303 9 -303 9 -277 c 2,3,-1
 9 -216 l 2,4,5
 9 -165 9 -165 33 -165 c 2,6,-1
 72 -165 l 2,7,8
 110 -165 110 -165 128 -133.5 c 128,-1,9
 146 -102 146 -102 146 -6 c 2,10,-1
 146 940 l 2,11,12
 146 1006 146 1006 171 1006 c 2,13,-1
 282 1006 l 2,14,15
 307 1006 307 1006 307 940 c 2,16,-1
 307 -3 l 2,17,18
 307 -91 307 -91 297 -154 c 128,-1,19
 287 -217 287 -217 271 -251.5 c 128,-1,20
 255 -286 255 -286 228.5 -305.5 c 128,-1,21
 202 -325 202 -325 178 -330 c 128,-1,22
 154 -335 154 -335 118 -335 c 2,23,-1
 34 -335 l 2,0,1
EndSplineSet
EndChar

StartChar: circumflex
Encoding: 710 710 350
Width: 314
GlyphClass: 2
Flags: W
LayerCount: 2
Fore
SplineSet
62 1225 m 0,0,1
 31 1225 31 1225 31 1233 c 1,2,3
 15 1234 15 1234 15 1260 c 0,4,5
 15 1271 15 1271 19 1287 c 1,6,-1
 91 1486 l 1,7,8
 115 1561 115 1561 143 1561 c 2,9,-1
 168 1561 l 2,10,11
 196 1561 196 1561 220 1486 c 1,12,-1
 292 1287 l 1,13,14
 296 1269 296 1269 296 1256 c 0,15,16
 296 1234 296 1234 281 1233 c 1,17,18
 281 1225 281 1225 250 1225 c 0,19,20
 229 1225 229 1225 213 1266 c 2,21,-1
 166 1384 l 2,22,23
 160 1401 160 1401 155 1401 c 128,-1,24
 150 1401 150 1401 145 1384 c 1,25,-1
 98 1266 l 1,26,27
 80 1225 80 1225 62 1225 c 0,0,1
EndSplineSet
EndChar

StartChar: caron
Encoding: 711 711 351
Width: 314
GlyphClass: 2
Flags: W
LayerCount: 2
Fore
SplineSet
143 1225 m 2,0,1
 115 1225 115 1225 91 1301 c 1,2,-1
 19 1499 l 1,3,4
 15 1517 15 1517 15 1529 c 0,5,6
 15 1552 15 1552 30 1553 c 1,7,8
 30 1561 30 1561 61 1561 c 0,9,10
 80 1561 80 1561 98 1521 c 1,11,-1
 145 1402 l 1,12,13
 149 1386 149 1386 156 1386 c 0,14,15
 160 1386 160 1386 166 1402 c 2,16,-1
 213 1521 l 2,17,18
 229 1561 229 1561 249 1561 c 0,19,20
 280 1561 280 1561 280 1553 c 1,21,22
 296 1552 296 1552 296 1526 c 0,23,24
 296 1515 296 1515 292 1499 c 1,25,-1
 220 1301 l 1,26,27
 196 1225 196 1225 168 1225 c 2,28,-1
 143 1225 l 2,0,1
EndSplineSet
EndChar

StartChar: breve
Encoding: 728 728 352
Width: 1504
GlyphClass: 2
Flags: W
LayerCount: 2
Fore
SplineSet
616 1292 m 128,-1,1
 536 1292 536 1292 480 1341 c 128,-1,2
 424 1390 424 1390 423 1487 c 1,3,-1
 510 1487 l 1,4,5
 510 1436 510 1436 541 1411.5 c 128,-1,6
 572 1387 572 1387 618 1387 c 0,7,8
 663 1387 663 1387 694 1411 c 128,-1,9
 725 1435 725 1435 725 1487 c 1,10,-1
 810 1487 l 1,11,12
 809 1391 809 1391 752.5 1341.5 c 128,-1,0
 696 1292 696 1292 616 1292 c 128,-1,1
EndSplineSet
EndChar

StartChar: dotaccent
Encoding: 729 729 353
Width: 398
GlyphClass: 2
Flags: W
LayerCount: 2
Fore
SplineSet
72 43 m 2,0,1
 45 43 45 43 45 93 c 2,2,-1
 45 232 l 2,3,4
 45 282 45 282 72 282 c 2,5,-1
 212 282 l 2,6,7
 239 282 239 282 239 232 c 2,8,-1
 239 93 l 2,9,10
 239 43 239 43 212 43 c 2,11,-1
 72 43 l 2,0,1
EndSplineSet
EndChar

StartChar: ring
Encoding: 730 730 354
Width: 1268
GlyphClass: 2
Flags: W
LayerCount: 2
Fore
SplineSet
651 1193 m 0,0,1
 699 1193 699 1193 733 1223.5 c 128,-1,2
 767 1254 767 1254 767 1316 c 0,3,4
 767 1381 767 1381 732.5 1409.5 c 128,-1,5
 698 1438 698 1438 651 1438 c 0,6,7
 601 1438 601 1438 566 1409.5 c 128,-1,8
 531 1381 531 1381 532 1316 c 1,9,10
 531 1254 531 1254 566 1223.5 c 128,-1,11
 601 1193 601 1193 651 1193 c 0,0,1
651 1120 m 0,12,13
 617 1120 617 1120 583 1130 c 128,-1,14
 549 1140 549 1140 516.5 1161.5 c 128,-1,15
 484 1183 484 1183 464 1223 c 128,-1,16
 444 1263 444 1263 444 1316 c 0,17,18
 444 1371 444 1371 463 1411 c 128,-1,19
 482 1451 482 1451 513.5 1472 c 128,-1,20
 545 1493 545 1493 579 1502.5 c 128,-1,21
 613 1512 613 1512 651 1512 c 0,22,23
 680 1512 680 1512 707 1506.5 c 128,-1,24
 734 1501 734 1501 761.5 1487 c 128,-1,25
 789 1473 789 1473 809.5 1451.5 c 128,-1,26
 830 1430 830 1430 842.5 1395 c 128,-1,27
 855 1360 855 1360 855 1316 c 0,28,29
 855 1263 855 1263 835 1223 c 128,-1,30
 815 1183 815 1183 783 1161.5 c 128,-1,31
 751 1140 751 1140 717.5 1130 c 128,-1,32
 684 1120 684 1120 651 1120 c 0,12,13
EndSplineSet
EndChar

StartChar: ogonek
Encoding: 731 731 355
Width: 716
GlyphClass: 2
Flags: W
LayerCount: 2
Fore
SplineSet
479 -352 m 2,0,1
 427 -352 l 0,2,3
 321 -350 321 -350 263.5 -299.5 c 128,-1,4
 206 -249 206 -249 206 -184 c 0,5,6
 206 -84 206 -84 267.5 -28.5 c 128,-1,7
 329 27 329 27 433 35 c 1,8,-1
 431 -2 l 1,9,10
 349 -19 349 -19 349 -128 c 0,11,12
 349 -265 349 -265 467 -265 c 1,13,14
 495 -264 495 -264 495 -275 c 2,15,-1
 495 -335 l 2,16,17
 495 -352 495 -352 479 -352 c 2,0,1
EndSplineSet
EndChar

StartChar: tilde
Encoding: 732 732 356
Width: 799
GlyphClass: 2
Flags: W
LayerCount: 2
Fore
SplineSet
482 878 m 128,-1,1
 463 878 463 878 431 858 c 128,-1,2
 399 838 399 838 358 817.5 c 128,-1,3
 317 797 317 797 277 797 c 0,4,5
 254 797 254 797 235.5 805 c 128,-1,6
 217 813 217 813 201.5 830.5 c 128,-1,7
 186 848 186 848 179 858 c 128,-1,8
 172 868 172 868 158 890 c 1,9,10
 139 917 139 917 139 932 c 128,-1,11
 139 947 139 947 151 958.5 c 128,-1,12
 163 970 163 970 177 970 c 0,13,14
 192 970 192 970 204 958.5 c 128,-1,15
 216 947 216 947 223.5 933 c 128,-1,16
 231 919 231 919 242 907.5 c 128,-1,17
 253 896 253 896 267 896 c 0,18,19
 290 896 290 896 360.5 936.5 c 128,-1,20
 431 977 431 977 473 977 c 0,21,22
 499 977 499 977 522 961 c 128,-1,23
 545 945 545 945 557.5 929 c 128,-1,24
 570 913 570 913 589 883 c 0,25,26
 608 854 608 854 608 840 c 0,27,28
 608 825 608 825 596.5 814.5 c 128,-1,29
 585 804 585 804 572 804 c 0,30,31
 549 804 549 804 525 841 c 128,-1,0
 501 878 501 878 482 878 c 128,-1,1
EndSplineSet
EndChar

StartChar: hungarumlaut
Encoding: 733 733 357
Width: 597
GlyphClass: 2
Flags: W
LayerCount: 2
Fore
SplineSet
204 1169 m 2,0,1
 196 1169 196 1169 193 1175.5 c 128,-1,2
 190 1182 190 1182 190 1201 c 0,3,4
 190 1208 190 1208 192 1236 c 2,5,-1
 212 1559 l 2,6,7
 214 1590 214 1590 219.5 1602 c 128,-1,8
 225 1614 225 1614 237 1614 c 2,9,-1
 319 1614 l 2,10,11
 328 1614 328 1614 328 1586 c 0,12,13
 328 1573 328 1573 324 1549 c 1,14,-1
 250 1208 l 1,15,16
 244 1169 244 1169 231 1169 c 2,17,-1
 204 1169 l 2,0,1
363 1169 m 2,18,19
 355 1169 355 1169 352 1175.5 c 128,-1,20
 349 1182 349 1182 349 1201 c 0,21,22
 349 1222 349 1222 350 1236 c 2,23,-1
 371 1559 l 2,24,25
 373 1591 373 1591 378.5 1602.5 c 128,-1,26
 384 1614 384 1614 396 1614 c 2,27,-1
 477 1614 l 2,28,29
 487 1614 487 1614 487 1586 c 0,30,31
 487 1573 487 1573 483 1549 c 1,32,-1
 409 1208 l 2,33,34
 401 1169 401 1169 390 1169 c 2,35,-1
 363 1169 l 2,18,19
EndSplineSet
EndChar

StartChar: endash
Encoding: 8211 8211 380
Width: 1024
GlyphClass: 2
Flags: W
LayerCount: 2
Fore
SplineSet
115 532 m 2,0,1
 102 532 102 532 95.5 542.5 c 128,-1,2
 89 553 89 553 89 583 c 2,3,-1
 89 634 l 2,4,5
 89 664 89 664 95.5 674 c 128,-1,6
 102 684 102 684 115 684 c 2,7,-1
 905 684 l 2,8,9
 930 684 930 684 930 634 c 2,10,-1
 930 583 l 2,11,12
 930 532 930 532 905 532 c 2,13,-1
 115 532 l 2,0,1
EndSplineSet
EndChar

StartChar: emdash
Encoding: 8212 8212 381
Width: 2048
GlyphClass: 2
Flags: W
LayerCount: 2
Fore
SplineSet
118 532 m 2,0,1
 105 532 105 532 98.5 542.5 c 128,-1,2
 92 553 92 553 92 583 c 2,3,-1
 92 634 l 2,4,5
 92 664 92 664 98.5 674 c 128,-1,6
 105 684 105 684 118 684 c 2,7,-1
 1928 684 l 2,8,9
 1953 684 1953 684 1953 634 c 2,10,-1
 1953 583 l 2,11,12
 1953 532 1953 532 1928 532 c 2,13,-1
 118 532 l 2,0,1
EndSplineSet
EndChar

StartChar: quoteleft
Encoding: 8216 8216 382
Width: 341
GlyphClass: 2
Flags: W
LayerCount: 2
Fore
SplineSet
114 858 m 2,0,1
 88 858 88 858 88 922 c 2,2,-1
 88 1116 l 2,3,4
 88 1274 88 1274 135 1372 c 128,-1,5
 182 1470 182 1470 230 1493 c 0,6,7
 232 1494 232 1494 235 1494 c 0,8,9
 255 1494 255 1494 255 1448 c 2,10,-1
 255 1431 l 2,11,12
 255 1420 255 1420 254.5 1413 c 128,-1,13
 254 1406 254 1406 254 1400 c 128,-1,14
 254 1394 254 1394 252.5 1389.5 c 128,-1,15
 251 1385 251 1385 251 1382.5 c 128,-1,16
 251 1380 251 1380 248 1376 c 128,-1,17
 245 1372 245 1372 244 1370.5 c 128,-1,18
 243 1369 243 1369 238.5 1363.5 c 128,-1,19
 234 1358 234 1358 232 1356 c 0,20,21
 210 1329 210 1329 197.5 1281.5 c 128,-1,22
 185 1234 185 1234 185 1193 c 0,23,24
 185 1166 185 1166 191 1166 c 2,25,-1
 234 1166 l 2,26,27
 255 1166 255 1166 255 1109 c 2,28,-1
 255 917 l 2,29,30
 255 858 255 858 234 858 c 2,31,-1
 114 858 l 2,0,1
EndSplineSet
EndChar

StartChar: quoteright
Encoding: 8217 8217 383
Width: 336
GlyphClass: 2
Flags: W
LayerCount: 2
Fore
SplineSet
114 851 m 0,0,1
 112 850 112 850 109 850 c 0,2,3
 89 850 89 850 89 896 c 2,4,-1
 89 913 l 2,5,6
 89 925 89 925 89 933 c 128,-1,7
 89 941 89 941 90.5 947.5 c 128,-1,8
 92 954 92 954 92 957.5 c 128,-1,9
 92 961 92 961 95 965.5 c 128,-1,10
 98 970 98 970 99 971.5 c 128,-1,11
 100 973 100 973 105 979 c 128,-1,12
 110 985 110 985 112 988 c 0,13,14
 134 1015 134 1015 146.5 1062.5 c 128,-1,15
 159 1110 159 1110 159 1151 c 0,16,17
 159 1178 159 1178 153 1178 c 2,18,-1
 110 1178 l 2,19,20
 89 1178 89 1178 89 1235 c 2,21,-1
 89 1427 l 2,22,23
 89 1486 89 1486 110 1486 c 2,24,-1
 230 1486 l 2,25,26
 256 1486 256 1486 256 1422 c 2,27,-1
 256 1228 l 2,28,29
 256 1070 256 1070 209 972 c 128,-1,30
 162 874 162 874 114 851 c 0,0,1
EndSplineSet
EndChar

StartChar: quotesinglbase
Encoding: 8218 8218 384
Width: 292
GlyphClass: 2
Flags: W
LayerCount: 2
Fore
SplineSet
130 -457 m 2,0,1
 110 -457 110 -457 107 -387 c 1,2,-1
 69 142 l 1,3,4
 69 154 l 0,5,6
 69 180 69 180 76 198 c 128,-1,7
 83 216 83 216 94 216 c 2,8,-1
 192 216 l 2,9,10
 202 216 202 216 209 197 c 128,-1,11
 216 178 216 178 216 151 c 2,12,-1
 216 142 l 1,13,-1
 179 -387 l 2,14,15
 174 -457 174 -457 156 -457 c 2,16,-1
 130 -457 l 2,0,1
EndSplineSet
EndChar

StartChar: quotedblleft
Encoding: 8220 8220 385
Width: 611
GlyphClass: 2
Flags: W
LayerCount: 2
Fore
SplineSet
114 858 m 2,0,1
 88 858 88 858 88 922 c 2,2,-1
 88 1116 l 2,3,4
 88 1274 88 1274 135 1372 c 128,-1,5
 182 1470 182 1470 230 1493 c 0,6,7
 232 1494 232 1494 235 1494 c 0,8,9
 255 1494 255 1494 255 1448 c 2,10,-1
 255 1431 l 2,11,12
 255 1420 255 1420 254.5 1413 c 128,-1,13
 254 1406 254 1406 254 1400 c 128,-1,14
 254 1394 254 1394 252.5 1389.5 c 128,-1,15
 251 1385 251 1385 251 1382.5 c 128,-1,16
 251 1380 251 1380 248 1376 c 128,-1,17
 245 1372 245 1372 244 1370.5 c 128,-1,18
 243 1369 243 1369 238.5 1363.5 c 128,-1,19
 234 1358 234 1358 232 1356 c 0,20,21
 210 1329 210 1329 197.5 1281.5 c 128,-1,22
 185 1234 185 1234 185 1193 c 0,23,24
 185 1166 185 1166 191 1166 c 2,25,-1
 234 1166 l 2,26,27
 255 1166 255 1166 255 1109 c 2,28,-1
 255 917 l 2,29,30
 255 858 255 858 234 858 c 2,31,-1
 114 858 l 2,0,1
377 858 m 2,32,33
 351 858 351 858 351 922 c 2,34,-1
 351 1116 l 2,35,36
 351 1274 351 1274 398 1372 c 128,-1,37
 445 1470 445 1470 493 1493 c 0,38,39
 495 1494 495 1494 498 1494 c 0,40,41
 518 1494 518 1494 518 1448 c 2,42,-1
 518 1431 l 2,43,44
 518 1420 518 1420 517.5 1413 c 128,-1,45
 517 1406 517 1406 517 1400 c 128,-1,46
 517 1394 517 1394 515.5 1389.5 c 128,-1,47
 514 1385 514 1385 514 1382.5 c 128,-1,48
 514 1380 514 1380 511 1376 c 128,-1,49
 508 1372 508 1372 507 1370.5 c 128,-1,50
 506 1369 506 1369 501.5 1363.5 c 128,-1,51
 497 1358 497 1358 495 1356 c 0,52,53
 473 1329 473 1329 460.5 1281.5 c 128,-1,54
 448 1234 448 1234 448 1193 c 0,55,56
 448 1166 448 1166 454 1166 c 2,57,-1
 497 1166 l 2,58,59
 518 1166 518 1166 518 1109 c 2,60,-1
 518 917 l 2,61,62
 518 858 518 858 497 858 c 2,63,-1
 377 858 l 2,32,33
EndSplineSet
EndChar

StartChar: quotedblright
Encoding: 8221 8221 386
Width: 608
GlyphClass: 2
Flags: W
LayerCount: 2
Fore
SplineSet
114 851 m 0,0,1
 112 850 112 850 109 850 c 0,2,3
 89 850 89 850 89 896 c 2,4,-1
 89 913 l 2,5,6
 89 925 89 925 89 933 c 128,-1,7
 89 941 89 941 90.5 947.5 c 128,-1,8
 92 954 92 954 92 957.5 c 128,-1,9
 92 961 92 961 95 965.5 c 128,-1,10
 98 970 98 970 99 971.5 c 128,-1,11
 100 973 100 973 105 979 c 128,-1,12
 110 985 110 985 112 988 c 0,13,14
 134 1015 134 1015 146.5 1062.5 c 128,-1,15
 159 1110 159 1110 159 1151 c 0,16,17
 159 1178 159 1178 153 1178 c 2,18,-1
 110 1178 l 2,19,20
 89 1178 89 1178 89 1235 c 2,21,-1
 89 1427 l 2,22,23
 89 1486 89 1486 110 1486 c 2,24,-1
 230 1486 l 2,25,26
 256 1486 256 1486 256 1422 c 2,27,-1
 256 1228 l 2,28,29
 256 1070 256 1070 209 972 c 128,-1,30
 162 874 162 874 114 851 c 0,0,1
377 851 m 0,31,32
 375 850 375 850 372 850 c 0,33,34
 353 850 353 850 353 896 c 2,35,-1
 353 913 l 2,36,37
 353 924 353 924 353.5 931 c 128,-1,38
 354 938 354 938 354 944 c 128,-1,39
 354 950 354 950 355.5 954.5 c 128,-1,40
 357 959 357 959 357 961.5 c 128,-1,41
 357 964 357 964 360 968 c 128,-1,42
 363 972 363 972 364 973.5 c 128,-1,43
 365 975 365 975 369.5 980.5 c 128,-1,44
 374 986 374 986 376 988 c 0,45,46
 397 1015 397 1015 410 1063 c 128,-1,47
 423 1111 423 1111 423 1151 c 0,48,49
 423 1178 423 1178 417 1178 c 2,50,-1
 374 1178 l 2,51,52
 353 1178 353 1178 353 1235 c 2,53,-1
 353 1427 l 2,54,55
 353 1486 353 1486 374 1486 c 2,56,-1
 493 1486 l 2,57,58
 520 1486 520 1486 520 1422 c 2,59,-1
 520 1228 l 2,60,61
 520 1144 520 1144 505 1073 c 128,-1,62
 490 1002 490 1002 466.5 958 c 128,-1,63
 443 914 443 914 420 887.5 c 128,-1,64
 397 861 397 861 377 851 c 0,31,32
EndSplineSet
EndChar

StartChar: quotedblbase
Encoding: 8222 8222 387
Width: 533
GlyphClass: 2
Flags: W
LayerCount: 2
Fore
SplineSet
130 -457 m 2,0,1
 110 -457 110 -457 107 -387 c 1,2,-1
 69 142 l 1,3,4
 69 154 l 0,5,6
 69 180 69 180 76 198 c 128,-1,7
 83 216 83 216 94 216 c 2,8,-1
 192 216 l 2,9,10
 202 216 202 216 209 197 c 128,-1,11
 216 178 216 178 216 151 c 2,12,-1
 216 142 l 1,13,-1
 179 -387 l 2,14,15
 174 -457 174 -457 156 -457 c 2,16,-1
 130 -457 l 2,0,1
383 -457 m 2,17,18
 364 -457 364 -457 360 -387 c 1,19,-1
 321 142 l 1,20,-1
 321 151 l 2,21,22
 321 178 321 178 328.5 197 c 128,-1,23
 336 216 336 216 346 216 c 2,24,-1
 445 216 l 2,25,26
 455 216 455 216 461.5 198 c 128,-1,27
 468 180 468 180 468 154 c 2,28,-1
 468 142 l 1,29,-1
 431 -387 l 1,30,31
 428 -457 428 -457 409 -457 c 2,32,-1
 383 -457 l 2,17,18
EndSplineSet
EndChar

StartChar: dagger
Encoding: 8224 8224 388
Width: 524
GlyphClass: 2
Flags: W
LayerCount: 2
Fore
SplineSet
215 0 m 2,0,1
 190 0 190 0 190 54 c 2,2,-1
 190 898 l 1,3,-1
 -76 898 l 2,4,5
 -128 898 -128 898 -128 923 c 2,6,-1
 -128 1034 l 2,7,8
 -128 1061 -128 1061 -76 1061 c 2,9,-1
 190 1061 l 1,10,-1
 190 1402 l 2,11,12
 190 1462 190 1462 215 1462 c 2,13,-1
 327 1462 l 2,14,15
 352 1462 352 1462 352 1402 c 2,16,-1
 352 1061 l 1,17,-1
 594 1061 l 2,18,19
 651 1061 651 1061 651 1034 c 2,20,-1
 651 923 l 2,21,22
 651 898 651 898 594 898 c 2,23,-1
 352 898 l 1,24,-1
 352 54 l 2,25,26
 352 0 352 0 327 0 c 2,27,-1
 215 0 l 2,0,1
EndSplineSet
EndChar

StartChar: daggerdbl
Encoding: 8225 8225 389
Width: 524
GlyphClass: 2
Flags: W
LayerCount: 2
Fore
SplineSet
215 0 m 2,0,1
 190 0 190 0 190 54 c 2,2,-1
 190 367 l 1,3,-1
 -76 367 l 2,4,5
 -128 367 -128 367 -128 391 c 2,6,-1
 -128 503 l 2,7,8
 -128 529 -128 529 -76 529 c 2,9,-1
 190 529 l 1,10,-1
 190 934 l 1,11,-1
 -76 934 l 2,12,13
 -128 934 -128 934 -128 959 c 2,14,-1
 -128 1070 l 2,15,16
 -128 1097 -128 1097 -76 1097 c 2,17,-1
 190 1097 l 1,18,-1
 190 1402 l 2,19,20
 190 1462 190 1462 215 1462 c 2,21,-1
 327 1462 l 2,22,23
 352 1462 352 1462 352 1402 c 2,24,-1
 352 1097 l 1,25,-1
 594 1097 l 2,26,27
 651 1097 651 1097 651 1070 c 2,28,-1
 651 959 l 2,29,30
 651 934 651 934 594 934 c 2,31,-1
 352 934 l 1,32,-1
 352 529 l 1,33,-1
 594 529 l 2,34,35
 651 529 651 529 651 503 c 2,36,-1
 651 391 l 2,37,38
 651 367 651 367 594 367 c 2,39,-1
 352 367 l 1,40,-1
 352 54 l 2,41,42
 352 0 352 0 327 0 c 2,43,-1
 215 0 l 2,0,1
EndSplineSet
EndChar

StartChar: bullet
Encoding: 8226 8226 390
Width: 1193
GlyphClass: 2
Flags: W
LayerCount: 2
Fore
SplineSet
596 616 m 128,-1,1
 520 616 520 616 458 637.5 c 128,-1,2
 396 659 396 659 355.5 694.5 c 128,-1,3
 315 730 315 730 287.5 777.5 c 128,-1,4
 260 825 260 825 248 874.5 c 128,-1,5
 236 924 236 924 236 976 c 0,6,7
 236 1045 236 1045 256 1107.5 c 128,-1,8
 276 1170 276 1170 317 1223 c 128,-1,9
 358 1276 358 1276 430 1307.5 c 128,-1,10
 502 1339 502 1339 596 1339 c 128,-1,11
 690 1339 690 1339 762 1307.5 c 128,-1,12
 834 1276 834 1276 875 1223 c 128,-1,13
 916 1170 916 1170 936 1107.5 c 128,-1,14
 956 1045 956 1045 956 976 c 0,15,16
 956 924 956 924 944 874.5 c 128,-1,17
 932 825 932 825 904.5 777.5 c 128,-1,18
 877 730 877 730 836.5 694.5 c 128,-1,19
 796 659 796 659 734 637.5 c 128,-1,0
 672 616 672 616 596 616 c 128,-1,1
EndSplineSet
EndChar

StartChar: perthousand
Encoding: 8240 8240 392
Width: 1527
GlyphClass: 2
Flags: W
LayerCount: 2
Fore
SplineSet
386 -73 m 2,0,1
 379 -73 379 -73 373.5 -58 c 128,-1,2
 368 -43 368 -43 368 -23 c 0,3,4
 368 -16 368 -16 370 -3 c 2,5,-1
 594 1415 l 2,6,7
 605 1485 605 1485 631 1485 c 2,8,-1
 672 1485 l 2,9,10
 679 1485 679 1485 683.5 1471 c 128,-1,11
 688 1457 688 1457 688 1438 c 0,12,13
 688 1428 688 1428 686 1415 c 2,14,-1
 463 -3 l 2,15,16
 452 -73 452 -73 427 -73 c 2,17,-1
 386 -73 l 2,0,1
225 785 m 0,18,19
 268 785 268 785 287.5 848.5 c 128,-1,20
 307 912 307 912 307 1051 c 0,21,22
 307 1193 307 1193 287.5 1258 c 128,-1,23
 268 1323 268 1323 225 1323 c 0,24,25
 181 1323 181 1323 161.5 1258 c 128,-1,26
 142 1193 142 1193 142 1051 c 0,27,28
 142 912 142 912 161.5 848.5 c 128,-1,29
 181 785 181 785 225 785 c 0,18,19
225 670 m 0,30,31
 136 670 136 670 90.5 761.5 c 128,-1,32
 45 853 45 853 45 1055 c 0,33,34
 45 1256 45 1256 90 1347 c 128,-1,35
 135 1438 135 1438 225 1438 c 0,36,37
 314 1438 314 1438 358.5 1347 c 128,-1,38
 403 1256 403 1256 403 1055 c 0,39,40
 403 853 403 853 358 761.5 c 128,-1,41
 313 670 313 670 225 670 c 0,30,31
848 115 m 128,-1,43
 891 115 891 115 910.5 178.5 c 128,-1,44
 930 242 930 242 930 381 c 0,45,46
 930 523 930 523 910.5 588 c 128,-1,47
 891 653 891 653 848 653 c 0,48,49
 804 653 804 653 784.5 588 c 128,-1,50
 765 523 765 523 765 381 c 0,51,52
 765 243 765 243 785 179 c 128,-1,42
 805 115 805 115 848 115 c 128,-1,43
848 0 m 0,53,54
 759 0 759 0 713.5 91.5 c 128,-1,55
 668 183 668 183 668 385 c 0,56,57
 668 586 668 586 713 677 c 128,-1,58
 758 768 758 768 848 768 c 0,59,60
 937 768 937 768 982 677 c 128,-1,61
 1027 586 1027 586 1027 385 c 0,62,63
 1027 183 1027 183 981.5 91.5 c 128,-1,64
 936 0 936 0 848 0 c 0,53,54
1304 115 m 128,-1,66
 1347 115 1347 115 1366.5 178.5 c 128,-1,67
 1386 242 1386 242 1386 381 c 0,68,69
 1386 523 1386 523 1366.5 588 c 128,-1,70
 1347 653 1347 653 1304 653 c 0,71,72
 1260 653 1260 653 1240.5 588 c 128,-1,73
 1221 523 1221 523 1221 381 c 0,74,75
 1221 243 1221 243 1241 179 c 128,-1,65
 1261 115 1261 115 1304 115 c 128,-1,66
1304 0 m 0,76,77
 1215 0 1215 0 1169.5 91.5 c 128,-1,78
 1124 183 1124 183 1124 385 c 0,79,80
 1124 586 1124 586 1169 677 c 128,-1,81
 1214 768 1214 768 1304 768 c 0,82,83
 1393 768 1393 768 1438 677 c 128,-1,84
 1483 586 1483 586 1483 385 c 0,85,86
 1483 183 1483 183 1437.5 91.5 c 128,-1,87
 1392 0 1392 0 1304 0 c 0,76,77
EndSplineSet
EndChar

StartChar: guilsinglleft
Encoding: 8249 8249 393
Width: 524
GlyphClass: 2
Flags: W
LayerCount: 2
Fore
SplineSet
396 218 m 0,0,1
 395 218 395 218 376 237.5 c 128,-1,2
 357 257 357 257 330 284.5 c 128,-1,3
 303 312 303 312 276 340 c 128,-1,4
 249 368 249 368 230 388 c 2,5,-1
 210 408 l 2,6,7
 193 425 193 425 145.5 490.5 c 128,-1,8
 98 556 98 556 98 575 c 1,9,10
 90 584 90 584 90 702 c 0,11,12
 90 781 90 781 105 795 c 1,13,14
 105 804 105 804 294 993 c 2,15,-1
 305 1004 l 2,16,17
 316 1016 316 1016 330 1031 c 128,-1,18
 344 1046 344 1046 359 1061.5 c 128,-1,19
 374 1077 374 1077 384 1087.5 c 128,-1,20
 394 1098 394 1098 395 1098 c 2,21,-1
 397 1098 l 2,22,23
 407 1098 407 1098 410 1071 c 1,24,25
 413 1071 413 1071 413 964 c 0,26,27
 413 910 413 910 398 888 c 1,28,29
 398 881 398 881 370 852.5 c 128,-1,30
 342 824 342 824 310 794.5 c 128,-1,31
 278 765 278 765 277 764 c 0,32,33
 275 763 275 763 233 715 c 128,-1,34
 191 667 191 667 191 664 c 0,35,36
 189 656 189 656 193 650 c 0,37,38
 193 649 193 649 210.5 632.5 c 128,-1,39
 228 616 228 616 249 596.5 c 128,-1,40
 270 577 270 577 288 560 c 2,41,-1
 306 543 l 1,42,43
 405 414 405 414 405 390 c 1,44,45
 413 382 413 382 413 265 c 0,46,47
 413 252 413 252 410 239 c 128,-1,48
 407 226 407 226 404 226 c 1,49,50
 403 217 403 217 398 217 c 0,51,52
 397 217 397 217 396 218 c 0,0,1
EndSplineSet
EndChar

StartChar: guilsinglright
Encoding: 8250 8250 394
Width: 524
GlyphClass: 2
Flags: W
LayerCount: 2
Fore
SplineSet
103 215 m 0,0,1
 90 215 90 215 90 255 c 2,2,-1
 90 358 l 2,3,4
 90 423 90 423 114 450 c 1,5,-1
 309 632 l 2,6,7
 313 636 313 636 313 647 c 128,-1,8
 313 658 313 658 309 662 c 2,9,-1
 113 854 l 1,10,11
 90 883 90 883 90 948 c 2,12,-1
 90 1057 l 2,13,14
 90 1101 90 1101 103 1101 c 0,15,16
 106 1101 106 1101 113 1094 c 2,17,-1
 390 807 l 2,18,19
 413 783 413 783 413 712 c 2,20,-1
 413 587 l 2,21,22
 413 515 413 515 390 493 c 2,23,-1
 113 222 l 1,24,25
 104 215 104 215 103 215 c 0,0,1
EndSplineSet
EndChar

StartChar: fraction
Encoding: 8260 8260 395
Width: 569
GlyphClass: 2
Flags: W
LayerCount: 2
Fore
SplineSet
86 -205 m 2,0,1
 78 -205 78 -205 78 -180 c 0,2,3
 78 -178 78 -178 78.5 -176 c 128,-1,4
 79 -174 79 -174 79 -172 c 2,5,-1
 381 1614 l 2,6,7
 386 1647 386 1647 399 1647 c 2,8,-1
 488 1647 l 2,9,10
 496 1647 496 1647 496 1625 c 0,11,12
 496 1618 496 1618 495 1614 c 2,13,-1
 194 -173 l 2,14,15
 189 -206 189 -206 176 -206 c 2,16,-1
 86 -205 l 2,0,1
EndSplineSet
EndChar

